<?xml version="1.0" encoding="UTF-8" standalone="no"?><!DOCTYPE svg PUBLIC "-//W3C//DTD SVG 1.1//EN" "http://www.w3.org/Graphics/SVG/1.1/DTD/svg11.dtd"><svg width="100%" height="100%" viewBox="0 0 641 554" version="1.1" xmlns="http://www.w3.org/2000/svg" xmlns:xlink="http://www.w3.org/1999/xlink" xml:space="preserve" xmlns:serif="http://www.serif.com/" style="fill-rule:evenodd;clip-rule:evenodd;stroke-linecap:round;stroke-linejoin:round;stroke-miterlimit:1.5;"><rect id="Artboard15" x="0" y="0" width="640.577" height="553.695" style="fill:none;"/><clipPath id="_clip1"><rect x="0" y="0" width="640.577" height="553.695"/></clipPath><g clip-path="url(#_clip1)"><g><path d="M124.011,-18.613c-9.275,0 -44.117,15.503 -51.219,22.605c-2.825,2.825 -2.995,8.157 -5.294,10.545c-0.966,1.004 -8.438,2.537 -10.17,3.405c-9.802,4.91 -24.273,17.843 -31.397,24.966c-1.721,1.722 -1.003,5.724 -3.025,7.566c-7.505,6.837 -13.472,13.459 -16.648,21.184c-0.717,1.746 0.314,4.184 -1.132,5.63c-19.984,19.985 -32.169,68.827 -26.86,100.624c2.945,17.635 5.456,33.152 13.243,48.755c1.896,3.798 16.264,21.552 16.264,24.966" style="fill:none;stroke:#000;stroke-width:3.5px;"/><path d="M7.773,251.633c0,4.573 6.229,9.573 7.945,13.571c16.388,38.177 71.999,58.33 105.876,75.236c15.274,7.623 26.121,20.019 41.941,25.299c13.964,4.66 82.492,10.821 97.977,5.672c4.981,-1.656 9.232,-5.612 13.997,-7.566c11.244,-4.612 25.547,-6.921 35.89,-12.102c16.598,-8.315 41.929,-47.272 51.827,-65.066c4.899,-8.807 15.517,-17.445 17.779,-26.482c4.182,-16.703 14.122,-31.299 21.941,-46.907c16.769,-33.474 16.884,-102.321 -0.379,-136.847c-1.24,-2.481 -18.613,-21.26 -19.626,-22.273c-0.559,-0.559 -2.798,0.56 -3.357,0c-1.749,-1.749 -12.277,-26.845 -13.996,-30.975c-7.104,-17.071 -29.42,-31.966 -42.75,-39.72c-6.064,-3.528 -53.066,-4.815 -65.019,-6.809c-7.616,-1.271 -8.464,-8.749 -16.265,-11.349c-13.268,-4.423 -33.383,-3.026 -46.724,-3.026c-11.836,0 -24.124,7.488 -35.938,9.46c-10.546,1.76 -22.054,0.172 -31.775,3.404c-3.742,1.244 -5.15,3.768 -6.434,5.626c-0.421,0.609 -5.115,-4.789 -8.656,-3.311c-14.428,6.023 -25.304,24.456 -38.205,33.665c-4.34,3.098 -12.85,4.416 -17.779,6.055c-12.732,4.234 -27.92,36.176 -40.384,36.176" style="fill:none;stroke:#000;stroke-width:3.5px;"/><path d="M143.393,-45.333c-25.44,0 -42.774,17.554 -64.208,28.271c-5.47,2.736 -11.879,4.839 -16.888,7.344c-1.623,0.811 -5.411,6.207 -6.522,5.096c-0.469,-0.469 0.479,-2.39 0,-2.849c-0.371,-0.356 -1.941,0.254 -2.203,0.386c-37.748,18.909 -75.607,90.186 -93.621,126.282c-1.968,3.945 -0.874,52.746 0,58.008c2.315,13.921 9.062,27.594 12.436,41.078c10.966,43.823 46.041,72.395 72.699,105.737c3.783,4.731 13.273,7.003 19.09,9.912c5.526,2.763 15.28,15.054 16.199,15.054c5.468,0 48.413,28.618 59.478,32.311c8.285,2.765 21.208,-2.64 29.006,1.098c0.349,0.167 -0.29,2.571 0,2.85c4.249,4.09 73.329,5.801 83.343,3.304c4.173,-1.04 9.71,-5.978 13.216,-8.074c0.513,-0.307 1.37,-0.423 1.793,0c0.535,0.535 -0.536,2.678 0,3.213c1.058,1.058 13.44,0.386 15.376,0c5.537,-1.105 9.048,-5.384 13.952,-7.343c46.675,-18.65 85.702,-74.348 107.529,-119.643c4.681,-9.714 13.987,-17.741 16.52,-27.903c8.606,-34.519 14.578,-77.335 7.344,-113.452c-3.413,-17.039 -48.661,-113.504 -61.68,-120.014c-9.092,-4.546 -17.59,-15.047 -27.536,-18.354c-3.644,-1.212 -18.16,0.888 -20.518,-1.471c-5.128,-5.127 -10.405,-11.424 -16.889,-15.744c-17.274,-11.509 -55.553,-17.491 -75.631,-12.481c-3.829,0.955 -11.383,3.258 -11.383,3.258c0,0 -6.589,-1.057 -9.912,-1.057c-17.048,0 -32.22,2.37 -48.831,5.142c-2.931,0.489 -18.052,-1.454 -20.147,0.731c-0.899,0.938 -2.85,2.938 -2.85,5.097" style="fill:none;stroke:#000;stroke-width:3.5px;"/><path d="M125.373,81.715c0,40.136 15.999,81.122 25.334,119.692c2.025,8.368 4.287,16.596 7.183,24.709c2.47,6.918 4.488,16.063 8.573,22.195c0.303,0.454 3.085,5.093 3.334,4.864c1.599,-1.473 -0.155,-4.353 0,-6.522c2.367,-33.112 10.411,-65.209 15.054,-98.029c0.195,-1.378 5.51,-50.21 5.51,-41.12" style="fill:none;stroke:#000;stroke-width:13px;"/><path d="M84.633,50.272c0,47.581 -5.506,94.712 -5.506,142.28l0,2.202c1.587,1.587 4.071,-2.363 5.161,-4.325c10.993,-19.784 26.185,-36.791 38.879,-55.458c9.263,-13.621 58.397,-98.89 58.397,-112.044c0,-1.456 0.353,2.954 0,4.365c-4.398,17.573 -20.72,37.154 -29.742,51.768c-20.774,33.65 -40.936,80.393 -63.517,110.51c-0.364,0.485 -1.699,1.978 -2.569,1.834c-2.561,-0.422 -0.931,-5.117 -1.103,-7.707c-2.452,-36.884 6.258,-65.286 27.536,-96.563c5.493,-8.074 13.272,-16.889 17.246,-26.162c0.555,-1.296 5.587,-7.186 3.019,-8.473c-6.238,-3.128 -24.188,-3.872 -29.763,1.709c-14.855,14.869 -32.744,96.42 -25.014,114.435c3.091,7.203 33.334,-13.737 41.855,-17.623c32.368,-14.762 95.52,-29.001 113.039,-64.038c1.622,-3.245 5.959,-12.825 1.71,-15.578c-8.597,-5.569 -20.807,-6.562 -30.671,-6.664c-14.245,-0.147 -30.495,-2.43 -43.727,4.467c-47.394,24.704 -74.281,171.59 -24.561,198.932c11.684,6.425 30.17,4.239 42.953,3.304c29.881,-2.187 63.186,-16.968 81.735,-41.081c30.41,-39.531 25.046,-129.509 -21.153,-157.547c-24.114,-14.634 -49.56,24.439 -60.763,39.984c-19.795,27.465 -107.065,167.872 -49.013,196.096c9.77,4.75 20.205,5.212 30.84,5.505c105.294,2.906 161.23,-199.133 84.078,-221.389c-70.352,-20.293 -79.975,46.577 -83.207,100.434c-2.373,39.552 -4.642,104.759 37.68,127.931c18.885,10.341 42.462,-30.643 48.463,-40.752c14.311,-24.104 71.928,-145.485 33.409,-170.724c-62.618,-41.03 -107.187,49.59 -120.046,96.766c-4.229,15.513 -4.445,30.025 -4.784,46.055c-0.299,14.142 -3.754,56.711 19.941,59.347c35.922,3.996 99.03,-138.012 108.928,-165.455c2.67,-7.403 13.92,-59.326 8.446,-61.68c-19.338,-8.319 -64.014,76.465 -68.64,88.418c-6.274,16.21 -9.744,32.187 -12.501,49.261c-2.329,14.429 -2.201,28.408 -2.201,42.958c0,2.57 0,10.281 0,7.711c0,-18.707 4.707,-38.255 7.707,-56.175c7.12,-42.527 13.862,-85.466 25.548,-127.02c6.573,-23.373 12.713,-46.831 18.145,-70.505c1.161,-5.061 2.201,-15.422 2.201,-15.422c0,0 -4.374,11.761 -6.608,17.624c-11.33,29.738 -23.653,59.161 -34.144,89.215c-19.8,56.723 -33.999,113.571 -46.262,172.195c-0.39,1.866 -5.064,40.311 -12.114,47.361c-0.936,0.936 -1.92,-2.011 -2.205,-3.305c-1.616,-7.33 -1.577,-14.933 -1.577,-22.38c0,-18.852 0.248,-37.704 0.11,-56.555c-0.357,-48.891 4.991,-93.66 13.217,-142.086c3.492,-20.559 3.789,-20.13 6.608,-41.12c0.194,-1.44 1.482,-12.466 1.103,-12.072c-7.443,7.721 -9.879,25.688 -12.118,35.246c-15.367,65.605 -19.825,127.852 -19.825,194.956c0,0.705 -0.05,-1.411 0,-2.114c0.773,-10.779 1.53,-21.559 2.404,-32.33c1.693,-20.861 2.374,-26.068 5.618,-47.804c4.543,-30.435 38.817,-166.111 58.065,-186.051c0.547,-0.567 -0.619,1.459 -1.057,2.115c-8.213,12.28 -18.41,22.56 -25.884,35.468c-9.351,16.148 -46.08,75.291 -46.08,91.567c0,0.705 0,-1.41 0,-2.115c0,-2.937 -0.218,-5.883 0,-8.813c1.364,-18.393 2.476,-22.328 5.365,-40.147c4.722,-29.12 7.501,-58.367 11.16,-87.62c1.945,-15.559 5.551,-31.345 6.975,-46.997c0.133,-1.462 0,-4.403 0,-4.403c0,0 -1.471,3.67 -2.205,5.506c-3.95,9.873 -6.662,20.339 -8.405,30.799c-4.988,29.925 -7.646,60.017 -12.155,89.991c-1.701,11.307 -4.362,22.728 -5.506,34.149c-0.182,1.826 -0.682,7.209 0,5.505c11.26,-28.086 26.334,-53.743 43.689,-78.935c6.846,-9.938 13.217,-19.084 21.663,-27.536c0.34,-0.34 6.187,-5.202 5.142,-6.245c-4.671,-4.662 -12.654,-5.565 -18.726,-6.608c-38.575,-6.63 -54.773,6.513 -86.647,29.741c-3.514,2.561 -14.319,8.838 -14.319,13.952c0,1.806 0,-3.613 0,-5.419c0,-12.725 4.039,-24.729 4.039,-37.452c0,-1.513 2.456,-3.727 1.103,-4.403c-1.703,-0.852 -2.606,2.785 -4.039,4.039c-13.551,11.855 -26.105,20.727 -38.184,34.144c-3.529,3.92 -3.919,3.227 -6.608,7.711c-0.597,0.996 -2.141,3.824 -1.103,3.304c7.952,-3.983 16.272,-14.605 23.129,-19.829c17.603,-13.41 35.405,-28.028 53.973,-40.017c5.387,-3.478 17.624,-7.711 17.624,-7.711c0,0 -5.744,3.854 -7.711,6.608c-22.928,32.112 -45.426,66.318 -63.11,101.679c-5.114,10.226 -10.344,20.519 -14.36,31.23c-0.657,1.753 -2.427,6.828 -1.103,5.506c4.654,-4.646 7.328,-14.267 11.016,-19.825c22.116,-33.334 45.745,-68.511 73.413,-97.636c9.871,-10.392 20.927,-22.052 33.062,-29.763c0.274,-0.174 1.907,-0.345 2.201,0c3.313,3.876 -26.93,28.595 -31.942,34.098c-6.647,7.3 -109.525,125.285 -109.525,142.442c0,0.62 -0.35,3.261 1.215,2.217c15.978,-10.655 31.728,-26.552 46.262,-38.551c19.887,-16.416 39.434,-33.225 60.919,-47.548c17.09,-11.394 34.346,-23.882 52.896,-32.858c0.054,-0.025 6.059,-2.203 6.609,-1.102c7.201,14.429 -32.717,56.51 -38.184,64.616c-12.75,18.905 -23.742,40.356 -34.144,60.581c-9.54,18.55 -17.983,37.598 -27.536,56.175c-2.194,4.267 -7.852,16.174 -11.015,21.295c-1.091,1.766 -3.997,6.443 -4.403,4.407c-4.663,-23.385 11.148,-47.132 21.235,-66.358c33.673,-64.178 98.859,-132.293 173.721,-139.572c27.139,-2.639 77.817,-9.424 96.091,18.003c8.815,13.23 8.547,25.965 8.547,41.475c0,20.256 0.349,40.739 -4.407,60.581c-9.801,40.896 -49.79,84.891 -80.605,29.41c-5.059,-9.108 -6.087,-20.136 -6.087,-30.347c0,-8.475 -0.885,-19.643 2.615,-27.701c5.072,-11.68 12.903,-23.916 22.209,-32.676c21.281,-20.034 73.63,-40.171 93.401,-7.166c6.01,10.033 5.205,22.8 5.18,33.969c-0.017,7.862 1.135,16.836 -2.201,24.231c-17.937,39.756 -90.768,29.486 -112.002,-0.863c-15.267,-21.82 26.592,-57.832 52.156,-23.736c2.57,3.428 6.243,9.182 3.304,13.584c-14.228,21.315 -111.429,-117.248 -24.788,-83.936c7.804,3 15.341,7.458 21.851,12.712c0.614,0.495 -1.43,-0.666 -2.114,-1.058c-1.858,-1.064 -3.65,-2.239 -5.506,-3.308c-5.251,-3.025 -9.692,-5.988 -14.319,-9.912c-16.356,-13.874 -31.354,-29.938 -51.036,-39.282c-8.057,-3.825 -61.767,-12.616 -71.96,-10.648c-4.606,0.889 -42.959,16.697 -37.448,5.138c5.194,-10.897 91.553,-15.919 106.849,-14.006c9.773,1.223 19.424,6.107 28.996,8.501c6.61,1.653 28.265,4.575 31.575,12.849c0.723,1.807 -1.019,1.102 -2.115,1.102c-14.045,0 -25.957,-2.084 -39.653,-5.509c-20.318,-5.082 -66.653,-10.913 -83.711,-19.458c-0.547,-0.274 0.858,-1.102 1.471,-1.102c18.843,0 34.581,5.213 51.767,13.216c31.757,14.788 66.029,28.345 93.255,51.037c20.49,17.076 11.75,65.975 11.75,88.48c0,2.666 -3.743,0.163 -3.262,3.04c2.477,14.845 3.776,14.076 7.711,28.638c4.451,16.475 8.346,33.763 11.015,50.669c1.265,8.013 1.103,8.071 1.103,14.315c0,1.102 0,4.406 0,3.305c0,-26.006 1.68,-51.543 4.035,-77.466c0.367,-4.039 0.654,-8.087 1.102,-12.118c1.199,-10.778 3.885,-23.65 4.04,-23.496c0.52,0.517 0,1.467 0,2.201c0,15.749 -1.103,31.5 -1.103,47.365c0,69.759 -8.378,70.825 -63.15,114.182c-11.042,8.741 -68.206,63.437 -86.806,35.546c-26.134,-39.19 98.741,-175.282 118.381,-162.581c8.196,5.3 10.261,14.76 11.658,23.829c2.241,14.545 3.223,34.271 -2.477,48.135c-11.922,28.997 -67.478,89.839 -97.789,47.407c-15.141,-21.195 -6.56,-47.191 7.838,-65.031c23.881,-29.588 35.814,-25.751 58.009,2.569c9.022,11.513 16.319,23.983 22.03,37.449c2.909,6.858 12.872,38.364 7.707,45.526c-2.688,3.728 -6.862,3.859 -11.015,4.407c-28.842,3.805 -29.258,-9.28 -30.84,-35.247c-0.538,-8.827 0.596,-16.708 2.205,-25.334c0.976,-5.233 0.554,-5.801 2.202,-9.912c0.426,-1.065 1.102,-4.406 1.102,-3.259c0,19.297 -15.791,39.454 -22.03,57.64c-14.51,42.301 -9.224,49.718 -50.297,66.822c-19.57,8.15 -36.77,11.439 -58.418,7.672c-14.228,-2.476 -77.332,-34.9 -64.946,-56.135c4.52,-7.748 13.838,-10.863 22.03,-12.118c5.449,-0.835 15.183,-3.322 20.56,-0.363c17.584,9.676 41.735,61.893 48.464,78.2c3.018,7.315 5.733,14.862 2.936,15.422c-30.354,6.076 -69.952,-44.293 -29.289,-59.545c4.575,-1.716 11.554,-4.122 16.44,-2.502c0.679,0.225 0.102,3.634 -1.102,4.035c-8.543,2.846 -20.131,2.861 -28.639,3.304c-22.967,1.195 -60.933,7.725 -82.853,-5.968c-23.272,-14.536 10.556,-57.534 17.869,-70.766c1.432,-2.592 -5.879,-0.708 -8.814,-1.099c-9.593,-1.278 -18.607,-4.057 -28.158,-5.525c-20.563,-3.162 -54.267,-12.976 -55.184,-39.266c-0.116,-3.304 -1.637,-7.045 0,-9.917c7.292,-12.793 67.499,-3.883 62.602,20.713c-1.176,5.904 -12.245,14.478 -15.973,18.206c-6.209,6.209 -12.13,15.45 -20.56,19.093c-36.495,15.773 -60.957,-31.441 -54.704,-62.047c2.739,-13.403 36.168,-7.89 44.52,-5.968c35.436,8.153 17.844,48.419 -18.822,30.931c-10.49,-5.004 -23.47,-13.371 -28.638,-24.232c-15.321,-32.196 55.631,-149.661 71.964,-151.998c24.755,-3.542 44.671,53.384 35.977,72.327c-21.895,47.708 -138.544,85.37 -102.432,-20.927c4.542,-13.368 11.781,-30.141 24.599,-37.816c6.071,-3.635 10.817,0.613 14.32,5.509c13.553,18.943 18.849,44.176 14.287,67.008c-2.163,10.823 -31.011,73.541 -50.269,61.862c-8.481,-5.144 -14.09,-15.062 -16.521,-24.232c-2.478,-9.35 -4.548,-22.364 -2.205,-31.943c2.762,-11.292 11.923,-19.674 19.829,-27.535c24.134,-24.002 61.443,-39.123 94.923,-23.744c28.072,12.894 74.017,55.071 78.002,87.992c3.264,26.956 -44.089,54.749 -56.174,46.63c-11.958,-8.034 -12.814,-19.191 -14.749,-32.732c-1.349,-9.446 -3.945,-21.214 -1.404,-30.786c12.1,-45.575 55.478,-87.835 102.8,-89.951c16.217,-0.725 30.171,0.761 40.948,14.456c42.658,54.204 8.716,96.729 -18.918,150.396c-8.766,17.023 -22.693,52.719 -45.159,56.905c-46.737,8.708 -61.672,-83.655 -51.46,-114.407c0.681,-2.05 19.577,-37.081 26.493,-28.046c7.957,10.394 -1.723,35.615 -5.138,45.894c-2.956,8.896 -13.86,62.036 -27.172,64.249c-8.391,1.395 -17.728,-0.735 -26.169,0c-17.822,1.552 -17.439,2.714 -35.247,3.308c-10.797,0.36 -40.346,4.872 -48.831,-7.711c-1.135,-1.683 0.696,-2.608 -1.103,-4.407c-1.283,-1.284 2.222,2.874 3.263,4.362c3.734,5.333 7.206,11.854 11.869,16.517c11.43,11.429 23.62,19.785 36.962,28.642c18.65,12.381 49.529,19.362 71.225,22.398c6.607,0.924 14.45,-0.333 20.795,1.098c10.625,2.396 66.876,25.185 74.901,19.829c4.134,-2.76 6.446,-7.744 9.912,-11.015c8.557,-8.076 21.408,-8.034 30.84,-14.319c45.502,-30.322 55.466,-61.234 70.861,-111.614c4.656,-15.234 10.7,-30.19 12.469,-46.127c1.538,-13.852 6.444,-43.187 -3.659,-56.309c-0.449,-0.583 0.178,1.492 0,2.205c-0.563,2.253 -1.247,4.492 -2.202,6.609c-5.888,13.054 -14.148,25.208 -21.852,37.193c-20.87,32.465 -38.436,66.53 -57.554,99.987c-7.469,13.072 -12.484,27.68 -21.559,39.785c-0.494,0.657 -1.75,1.787 -2.206,1.103c-8.722,-13.092 -9.372,-111.804 -13.217,-138.419c-2.451,-16.97 -6.657,-33.639 -8.809,-50.664c-1.56,-12.341 1.202,-27.87 -2.569,-39.654c-0.228,-0.711 -2.069,-0.279 -4.366,12.118c-3.727,20.12 -6.491,40.407 -9.912,60.581c-6.647,39.191 -11.414,78.449 -16.521,117.854c-2.08,16.049 -4.053,32.116 -6.608,48.096c-0.591,3.697 -1.36,7.367 -2.201,11.015c-0.284,1.228 -1.631,4.547 -1.838,3.304c-5.123,-30.71 -14.121,-214.996 34.144,-236.443c11.603,-5.157 35.224,80.127 40.756,107.941c2.883,14.495 5.479,28.282 6.608,42.954c0.17,2.196 0,8.811 0,6.608c0,-44.052 22.101,-96.63 36.769,-137.717c0.135,-0.378 6.821,-18.996 10.592,-16.482c4.174,2.783 0,10.033 0,15.05c0,52.189 -3.4,103.613 -5.873,155.674c-0.392,8.245 -2.754,21.434 1.466,10.648c6.98,-17.841 6.566,-17.5 13.221,-35.247c5.394,-14.385 10.997,-35.346 20.56,-48.096c1.051,-1.401 -0.087,3.712 -1.103,5.138c-3.446,4.838 -8.649,9.278 -12.328,13.959c-7.148,9.098 -15.453,16.894 -22.919,25.695c-21.753,25.644 -39.015,54.317 -55.071,83.71c-9.587,17.548 -9.927,17.045 -19.825,34.144c-0.11,0.189 -7.476,15.634 -7.711,15.418c-7.769,-7.157 46.222,-60.537 49.238,-62.8c6.988,-5.241 13.954,-6.882 21.986,-9.804c9.156,-3.331 17.886,-5.704 26.438,0c2.146,1.431 6.096,3.802 5.505,6.976c-1.111,5.972 -17.121,10.379 -21.663,13.216c-10.927,6.826 -20.635,17.58 -32.673,22.394c-43.519,17.401 -82.339,-9.363 -122.629,-20.56c-15.862,-4.408 -67.77,-17.759 -67.77,-40.616c0,-10.772 5.659,-10.611 13.434,-3.073c7.23,7.011 61.261,65.161 70.489,65.352c0.924,0.019 -0.119,-1.865 -0.41,-2.741c-1.082,-3.256 -4.644,-4.244 -6.198,-7.126c-5.425,-10.064 -8.856,-21.885 -11.015,-33.046c-6.357,-32.858 -10.67,-76.478 1.906,-108.271c9.918,-25.074 45.895,-85.37 67.121,-103.941c0.306,-0.267 4.413,-3.666 5.873,-2.936c8.074,4.036 38.579,39.398 48.096,47.728c0.142,0.124 5.486,4.384 6.608,3.304c6.385,-6.144 -37.012,-66.414 -37.448,-77.424c-0.144,-3.649 5.687,4.607 8.768,6.567c6.268,3.986 28.28,22.71 37.081,17.623c8.527,-4.928 5.901,-43.211 3.304,-50.668c-6.842,-19.649 -20.486,-16.217 -35.201,-27.536c-23.176,-17.828 -26.901,-21.751 -53.969,-27.168c-28.783,-5.761 -40.132,30.139 -64.253,42.222" style="fill:none;stroke:#000;stroke-width:13px;"/><path d="M189.194,7.472c-9.07,0 -69.314,47.02 -77.332,58.033c-7.546,10.366 -38.122,78.821 -26.866,86.334c2.545,1.699 8.894,2.004 11.819,1.076c22.738,-7.211 145.966,-67.179 155.469,-58.033c0.922,0.887 -1.243,2.275 -2.147,3.18c-8.085,8.084 -15.338,16.123 -20.762,26.291c-17.857,33.47 -24.919,67.901 -27.6,105.535c-0.013,0.19 -3.234,14.224 -0.032,14.224c2.552,0 11.306,-8.712 12.843,-9.924c23.198,-18.301 34.486,-36.017 42.759,-64.139c2.702,-9.184 1.846,-30.462 11.333,-36.167c1.669,-1.004 1.793,0.613 1.793,1.749" style="fill:none;stroke:#000;stroke-width:0.65px;"/><path d="M88.175,31.389c-8.071,0 -48.121,30.539 -40.523,41.466c1.736,2.497 4.157,-3.38 11.464,-13.971c8.027,-11.633 18.833,-21.463 29.015,-31.162c5.115,-4.873 5.05,-4.483 9.675,-10.031c0.828,-0.992 2.646,-3.307 3.224,-2.151c1.854,3.707 -5.199,6.496 -8.241,9.312c-7.662,7.094 -16.767,12.17 -24.229,19.634c-16.456,16.463 -31.088,35.03 -47.058,52.012c-0.792,0.842 -7.996,7.891 -7.523,8.6c2.876,4.314 21.176,-15.886 28.773,-23.807c15.432,-16.091 39.755,-34.962 61.143,-42.826c3.429,-1.261 8.556,-5.071 10.748,-2.148c6.565,8.754 -72.027,78.644 -86.334,88.124c-1.366,0.905 -13.581,7.718 -15.048,4.299c-9.618,-22.425 24.818,-82.254 41.132,-95.301c0.791,-0.632 11.206,-8.713 12.247,-7.152c0.534,0.801 -1.031,3.157 -1.076,3.224c-10.513,15.764 -21.568,31.137 -31.525,47.285c-4.098,6.647 -7.324,9.431 -11.819,15.048c-1.449,1.81 -3.941,8.048 -3.941,5.73c0,-29.279 59.491,-69.689 83.823,-78.811c1.061,-0.397 2.408,-1.857 3.224,-1.072c0.806,0.776 -0.356,2.321 -1.072,3.18c-13.353,16.028 -30.345,29.496 -44.42,45.138c-1.059,1.176 -8.549,8.595 -6.807,8.595" style="fill:none;stroke:#000;stroke-width:8.5px;"/><path d="M39.556,39.541c0,9.512 -13.364,20.107 -18.35,27.584c-7.698,11.544 -13.982,20.165 -16.754,34.031c-0.392,1.961 0.322,10.081 -1.076,11.421c-6.994,6.706 -13.71,-16.525 -18.988,-11.465c-2.362,2.264 7.606,6.852 8.6,8.197c6.697,9.065 12.098,21.729 16.836,31.883c3.1,6.643 13.622,34.982 20.419,39.045c4.254,2.543 27.085,-35.376 34.032,-44.062c0.13,-0.163 5.73,-6.448 7.523,-4.295c5.448,6.54 4.578,71.58 -6.806,79.165c-0.768,0.512 -3.086,2.076 -4.3,1.076c-3.428,-2.824 -8.859,-62.942 1.076,-56.599c4.048,2.585 2.865,14.017 2.865,17.55c0,37.43 -27.551,27.904 -29.018,7.524c-0.146,-2.025 -1.667,-4.931 0,-6.089c0.282,-0.197 0.742,-0.187 1.031,0c5.259,3.398 10.794,39.187 10.794,47.215c0,5.532 1.139,10.725 1.747,16.189c0.158,1.425 0,5.734 0,4.3c0,-8.377 -2.586,-20.405 0,-28.301c6.107,-18.645 29.81,-0.56 32.956,13.254c1.794,7.88 3.223,13.725 3.223,21.854c0,2.485 1.017,7.579 -1.075,9.671c-10.232,10.232 -45.327,-41.161 -23.643,-44.779c18.809,-3.139 -7.229,48.015 -19.702,50.513c-20.421,4.091 -27.001,-46.508 -18.626,-53.378c2.926,-2.4 1.706,11.115 1.745,11.465c0.744,6.689 0.519,24.527 5.376,29.373c0.718,0.716 1.283,2.489 2.865,1.434c1.245,-0.83 -1.154,-2.823 -2.148,-3.941c-8.144,-9.159 -17.463,-16.82 -25.794,-25.79c-20.878,-22.479 -21.137,-25.339 -21.137,-54.096c0,-4.311 -0.866,-13.314 1.076,-17.191c1.241,-2.476 1.076,5.467 1.076,8.236c0,20.589 14.427,62.692 15.402,62.692c1.005,0 -2.776,-18.264 -7.523,-39.407c-5.41,-24.092 -11.804,-70.787 1.793,-92.778c0.281,-0.455 0.182,-1.435 0.717,-1.435c3.414,0 -4.566,13.96 3.139,32.277c9.542,22.683 20.451,45.432 32.323,66.953c11.894,21.559 23.516,44.988 37.146,65.433c7.212,10.817 19.037,20.823 24.784,32.317c1.042,2.084 2.023,13.711 1.076,16.079c-0.612,1.531 -3.155,0.237 -3.941,-0.358c-15.346,-11.624 -36.538,-31.573 -36.538,-52.303c0,-0.43 -0.11,5.538 1.901,9.56c2.969,5.937 6.542,11.552 9.918,17.266c3.309,5.6 25.078,35.729 25.078,42.986l0,1.435c-0.396,0.395 -3.523,0.132 -3.942,0c-4.869,-1.545 -44.287,-35.483 -48.361,-42.273c-0.484,-0.806 6.895,6.763 12.855,12.182c9.676,8.799 21.002,14.64 32.238,21.132c24.29,14.034 49.128,24.281 74.515,35.825c7.773,3.535 14.657,9.153 22.567,11.82c7.875,2.654 21.968,0 30.046,0c29.418,0 43.669,-3.178 66.633,-20.778c10.94,-8.385 23.113,-14.256 35.82,-19.343c1.166,-0.467 10.581,-6.512 11.824,-4.654c1.751,2.616 -3.922,12.149 -5.376,13.967c-6.494,8.119 -17.55,9.188 -25.791,14.688c-0.659,0.441 -2.849,2.167 -2.147,3.224c3.665,5.529 14.127,-8.097 32.955,-38.686c8.021,-13.03 45.297,-63.133 37.614,-77.738c-1.186,-2.255 -11.623,1.277 -12.895,2.151c-28.23,19.399 -42.331,64.01 -66.991,85.259c-1.016,0.875 -9.186,4.47 -9.672,1.072c-7.1,-49.646 42.883,-97.559 75.259,-127.62c13.105,-12.168 26.756,-23.47 39.373,-36.087c0.21,-0.21 1.36,-1.867 2.152,-1.076c0.11,0.111 -10.905,15.215 -11.824,17.196c-8.377,18.063 -15.872,36.822 -23.643,55.167c-1.621,3.827 -17.475,41.379 -6.447,32.956c7.719,-5.895 40.509,-106.501 44.061,-118.931c3.176,-11.111 2.148,-23.023 2.148,-34.39l0,-70.929c0,-1.358 0.444,-5.165 1.032,-3.941c1.681,3.501 -0.377,11.287 0,15.047c1.181,11.797 3.666,23.207 4.658,35.104c1.116,13.371 -1.376,25.894 -2.147,39.049c-1.86,31.69 -3.942,63.615 -3.942,95.288c0,4.642 -0.542,-9.316 0,-13.927c0.852,-7.232 2.676,-15.671 4.3,-22.571c4.753,-20.197 10.891,-39.982 2.507,-60.539c-11.817,-28.974 -47.108,-96.904 -70.211,-120.008c-4.255,-4.255 -31.703,-11.102 -38.332,-11.102c-4.124,0 -9.565,0.868 -13.612,0c-2.131,-0.457 -7.958,-2.647 -6.448,-1.076c10.65,11.083 21.284,23.662 29.138,37.405c13.346,23.353 48.512,93.473 48.512,118.738c0,0.358 0.254,0.822 0,1.076c-2.884,2.884 -5.973,-15.966 -6.019,-16.47c-1.546,-16.983 -1.505,-33.847 -1.505,-50.876l0,-12.896c0,-0.613 0.119,-8.418 0.718,-7.523c2.911,4.351 12.86,86.095 13.967,97.795c4.058,42.881 5.874,74.007 5.376,74.152c-9.307,2.71 -43.451,-37.503 -48.682,-43.677c-37.545,-44.312 -53.279,-100.412 -50.907,-157.289c0.13,-3.115 -0.013,-19.375 4.3,-22.566c0.277,-0.205 0,0.687 0,1.031c0,9.206 -0.236,10.431 0.739,19.708c1.535,14.591 5.89,28.599 10.009,42.625c12.6,42.909 24.866,86.281 27.87,131.15c0.044,0.663 0.278,2.538 -0.772,2.738c-7.342,1.393 -11.97,-5.439 -16.709,-9.944c-39.866,-37.895 -55.661,-77.858 -55.661,-132.507c0,-16.143 -0.164,-32.295 1.21,-48.398c0.146,-1.71 1.902,-13.459 2.507,-16.478c0.424,-2.122 1.075,-8.568 1.075,-6.403c0,15.101 -3.525,30.662 -2.151,46.209c2.716,30.744 10.33,60.798 12.54,91.706c0.205,2.859 2.293,6.88 0,8.6c-4.628,3.471 -9.399,-9.326 -14.33,-18.271c-14.154,-25.68 -25.67,-54.585 -27.584,-84.183c-0.552,-8.54 0,-17.244 0,-25.794c0,-3.581 0,-14.325 0,-10.744c0,41.755 14.014,62.792 31.167,103.526c6.762,16.059 13.002,30.071 22.567,44.42c0.988,1.483 2.763,6.033 3.179,4.3c3.463,-14.431 -24.554,-65.487 -31.146,-86.574c-3.416,-10.926 -9.473,-21.82 -9.692,-33.433c-0.124,-6.573 0,-16.054 0,-13.972c0,13.52 -1.35,27.357 0,40.838c4.374,43.662 16.673,86.028 20.419,130.038c0.055,0.647 3.37,41.412 3.583,46.209c0.169,3.815 -1.674,25.179 2.152,29.019c0.252,0.253 0.814,0.247 1.072,0c2.412,-2.322 -2.801,-47.723 -3.224,-50.469c-5.41,-35.131 -11.639,-69.877 -15.044,-105.319c-2.011,-20.94 -0.563,-40.962 -5.017,-61.97c-0.259,-1.223 -0.926,-2.281 -2.067,-2.849c-8.196,-4.083 -17.888,46.55 -20.657,59.753c-10.534,50.223 -9.031,103.424 -8.442,154.446c0.097,8.398 8.589,59.845 6.452,63.05c-2.239,3.359 -4.165,-6.92 -6.049,-10.489c-0.846,-1.603 -3.71,-0.265 -5.331,-1.076c-3.737,-1.868 -7.205,-4.234 -10.748,-6.448c-20.977,-13.109 -43.692,-24.733 -63.405,-39.762c-7.78,-5.931 -14.269,-12.841 -21.495,-19.343c-5.899,-5.308 -7.561,-7.542 -5.371,-6.447c5.77,2.885 15.013,87.032 33.314,99.225c2.338,1.558 0.763,-11.19 0.696,-11.861c-1.572,-15.704 -7.58,-31.439 -10.494,-46.984c-9.887,-52.729 -19.148,-107.481 -15.275,-161.419c1.058,-14.742 7.573,-29.857 13.971,-42.986c1.638,-3.361 2.369,-12.678 5.013,-10.034c1.273,1.273 -3.796,10.986 -5.372,16.123c-12.459,40.616 -32.368,76.3 -79.169,76.3c-1.681,0 -13.408,1.767 -14.928,-1.27c-8.352,-16.68 86.658,-97.221 109.141,-114.437c2.786,-2.134 42.113,-29.793 46.213,-23.643c1.331,1.996 -29.251,37.485 -44.062,51.585c-1.476,1.406 -13.118,8.548 -13.971,11.106c-0.897,2.693 5.433,-1.718 8.237,-2.151c9.076,-1.403 17.85,-2.161 26.867,-4.296c8.002,-1.896 86.538,-21.628 87.051,-34.032c0.003,-0.074 -0.071,0 -26.109,0c-13.885,0 -81.815,1.048 -89.913,-11.106c-5.534,-8.307 12.999,-16.816 16.12,-19.258c13.836,-10.83 25.715,-20.746 41.909,-27.943c16.315,-7.25 34.225,-2.318 26.871,18.271c-2.667,7.468 1.196,26.507 -4.658,31.525c-3.351,2.872 -4.81,-1.548 -5.731,-3.224c-7.338,-13.354 -28.823,-41.726 -28.823,-56.533c0,-0.942 -0.708,-5.365 1.195,-4.723c7.51,2.531 16.142,13.532 22.567,18.267c4.414,3.253 12.499,8.983 17.554,12.895c31.841,24.644 -61.79,-7.53 -70.929,4.3c-1.421,1.84 -3.497,13.336 -2.148,14.688c9.882,9.9 79.969,-30.947 63.764,-11.863c-12.665,14.914 -90.332,54.115 -109.26,64.48c-25.709,14.08 -54.716,17.19 -45.292,51.754c3.519,12.905 10.399,26.779 19.916,36.296c22.904,22.904 51.14,30.237 82.333,31.24c50.643,1.63 86.641,-37.852 95.647,-86.334c3.406,-18.332 2.152,-37.356 2.152,-55.885c0,-10.218 3.609,-26.461 -4.3,-35.462c-15.296,-17.409 -29.024,21.866 -32.955,29.731c-12.653,25.316 -61.964,119.438 -51.227,151.887c0.202,0.609 0.566,1.16 0.95,1.673c3.529,4.714 12.976,8.41 17.798,10.806c1.5,0.745 4.813,2.807 4.895,1.134c0.323,-6.576 -14.069,-22.417 -11.348,-25.791c14.762,-18.307 38.72,-31.267 56.957,-46.209c2.373,-1.945 12.756,-14.111 17.554,-9.313c22.074,22.074 -55.332,191.096 -63.409,199.172c-1.238,1.239 -1.359,-8.634 -1.072,-9.671c3.739,-13.495 10.267,-27.212 15.697,-40.011c19.777,-46.613 46.095,-89.768 72.785,-132.654c2.151,-3.456 18.079,-28.116 18.267,-27.942c7.129,6.565 -18.541,179.616 -41.549,179.616c-3.467,0 -8.036,-6.652 -10.032,-8.83c-15.249,-16.639 -27.944,-35.029 -36.184,-56.239c-10.741,-27.65 -40.32,-141.825 11.107,-149.739c66.726,-10.27 32.59,148.801 5.73,145.439c-1.027,-0.129 -1.081,-10.99 -1.072,-11.82c0.248,-23.077 59.969,-51.294 66.864,-36.962c16.767,34.854 -5.852,72.974 -28.819,98.497c-22.661,25.181 -33.482,25.704 -50.944,-3.502c-8.082,-13.516 -15.697,-28.72 -19.343,-44.061" style="fill:none;stroke:#000;stroke-width:8.5px;"/><path d="M298.877,-45.048c0,0.932 4.339,-7.907 5.191,-10.46c2.678,-8.023 6.039,-16.44 13.603,-20.229c0.827,-0.415 2.645,-2.569 3.138,-2.096c0.166,0.159 0,2.515 0,2.751c0,1.615 -3.031,6.515 -4.186,7.67c-1.859,1.859 -3.064,19.99 -4.535,24.416c-0.14,0.419 -1.896,10.883 -4.799,7.98c-3.502,-3.502 2.095,-15.815 2.095,-19.142c0,-1.034 0.251,2.097 0,3.099c-0.854,3.415 -2.095,6.687 -2.095,10.115c0,1.758 8.794,10.171 12.084,11.813c0.237,0.119 2.205,1.89 2.79,1.048c1.703,-2.449 0.98,-6.602 2.091,-9.373c3.548,-8.849 13.684,-17.631 22.67,-19.88c0.608,-0.153 5.202,-3.175 5.497,-2.751c2.484,3.574 -11.862,13.216 -13.603,14.957c-4.567,4.567 -2.159,19.515 -7.325,21.622c-3.722,1.518 0.698,-19.124 0.698,-12.555c0,8.212 5.131,11.416 9.378,14.258c0.382,0.255 3.367,1.721 4.056,1.004c1.217,-1.264 1.675,-6.416 3.139,-8.369c4.124,-5.5 29.855,-24.119 32.09,-21.975c0.178,0.17 0.088,2.837 0,3.099c-2.036,6.102 -18.712,17.859 -23.717,26.857c-0.552,0.992 -2.15,7.227 -2.75,6.626c-0.556,-0.555 0.09,-5.784 0,-6.238c-0.124,-0.619 -2.55,-4.753 -2.092,-5.23c0.834,-0.87 3.096,3.828 3.096,4.532c0,3.781 5.445,8.497 7.286,10.338c0.099,0.099 2.918,0.099 3.013,0c6.987,-7.26 14.485,-11.904 24.761,-15.694c2.106,-0.777 11.162,-2.104 11.162,-4.143c0,-1.4 -1.974,2.012 -3.138,2.789c-2.294,1.532 -4.588,2.867 -6.278,5.234c-4.641,6.502 -15.698,22.957 -15.698,29.646c0,0.879 -0.519,3.346 -1.742,2.747c-1.987,-0.975 -0.712,-4.448 -2.052,-6.235c-1.455,-1.941 -7.293,-9.809 -4.186,-12.904c2.358,-2.35 7.492,-1.746 11.162,-1.746c1.512,0 3.116,-2.809 4.186,-1.742c4.971,4.952 -11.971,15.065 -6.975,20.061c4.299,4.299 33.582,-19.18 35.323,-17.44c3.132,3.132 -11.898,11.57 -13.603,13.559c-5.443,6.352 -8.509,13.186 -12.206,20.579c-0.793,1.586 -0.618,5.523 -2.095,6.277c-0.317,0.162 -1.571,-14.351 -2.048,-16.741c-2.165,-10.847 6.916,1.085 8.329,2.44c0.383,0.368 -5.613,2.009 -1.09,2.009" style="stroke:#000;stroke-width:5px;"/><path d="M77.04,-14.83c-6.21,-6.21 -15.301,-19.862 -15.301,-26.467c0,-4.844 -2.79,-8.846 -2.79,-12.905c0,-0.326 0.358,-4.516 -1.004,-3.095c-2.068,2.157 1.382,10.14 0,12.904c-5.477,10.953 -3.708,33.636 -8.722,41.157c-0.557,0.835 -2.364,-0.893 -2.441,-1.047c-3.47,-6.941 -10.772,-11.969 -15.344,-18.833c-2.667,-4.002 -5.234,-8.106 -5.234,-7.674c0,8.768 1.046,17.402 3.139,25.765c0.883,3.531 3.169,5.676 4.186,8.722c0.294,0.882 0,3.72 0,2.79c0,-7.594 -18.088,-25.352 -24.416,-27.162c-0.476,-0.137 -2.447,-2.434 -3.139,-1.397c-5.202,7.804 11.405,39.163 14.301,46.387c0.412,1.027 -0.738,1.746 0.699,1.746" style="stroke:#000;stroke-width:5px;"/><path d="M431.718,156.524c2.28,0 50.499,-0.338 51.535,0.699c1.839,1.838 -7.072,4.866 -8.369,5.19c-8.961,2.243 -16.816,6.559 -25.808,9.766c-2.704,0.964 -15.625,3.372 -16.393,4.881c-0.151,0.298 -0.241,0.772 0,1.004c3.897,3.751 41.417,1.537 47.431,7.325c0.807,0.777 -11.242,1.005 -12.555,1.005c-2.439,0 -30.774,0.822 -30.999,1.047c-2.286,2.286 6.741,3.92 7.282,4.1c7.286,2.429 19.553,3.848 25.459,9.766c0.69,0.691 2.052,2.091 2.052,2.091c0,0 -21.766,0.663 -32.392,2.79c-2.773,0.555 -5.836,1.745 -8.722,1.745c-1.103,0 -4.242,1.048 -3.139,1.048c3.997,0 16.828,8.44 18.497,11.779c0.984,1.967 10.064,6.223 7.928,8.45c-2.115,2.206 -17.542,-0.27 -20.536,-0.698c-1.722,-0.246 -9.36,0.912 -9.071,1.005c8.017,2.562 35.143,15.663 35.143,22.587l-5.187,0c-5.436,0 -49.599,-3.798 -38.756,-3.798" style="stroke:#000;stroke-width:5px;"/><path d="M345.712,346.754c0,11.043 18.134,28.785 18.134,35.884c0,0.775 2.056,1.651 1.004,2.703c-0.236,0.237 -0.687,0.107 -1.004,0c-6.366,-2.146 -34.128,-23.995 -38.364,-30.34c-0.377,-0.565 -1.047,-2.425 -1.047,-1.746c0,4.972 12.283,46.926 9.765,49.444c-0.39,0.389 -9.587,-7.338 -11.021,-8.293c-4.689,-3.124 -13.045,-10.089 -16.141,-14.726c-0.194,-0.291 -2.063,-2.636 -1.742,-3.1c1.631,-2.359 3.425,2.814 3.751,3.139c6.918,6.905 4.535,28.737 4.535,38.018c0,2.195 2.195,6.584 0,6.584c-2.483,0 -4.478,-7.895 -5.19,-9.373c-5.938,-12.325 -17.911,-23.139 -23.019,-35.924c-0.868,-2.172 -5.477,-6.186 -3.139,-6.277c1.543,-0.06 0.936,2.824 1.004,3.095c2,7.983 3.202,60.235 1.048,61.732c-1.484,1.032 -2.135,-7.602 -3.019,-8.93c-7.766,-11.656 -10.105,-30.74 -19.219,-39.854c-0.237,-0.237 0.232,-1.246 0,-1.005c-9.114,9.455 -9.379,40.417 -18.488,49.526c-0.396,0.396 -2.639,4.408 -3.751,2.747c-1.137,-1.7 -2.542,-34.625 -4.884,-42.55c-0.568,-1.922 -3.139,-14.59 -3.139,-7.102" style="stroke:#000;stroke-width:5px;"/><path d="M22.884,303.086c0,14.273 -25.808,43.217 -25.808,56.811c0,1.369 2.081,-1.874 2.693,-3.097c1.197,-2.39 3.391,-3.805 4.628,-6.28c2.68,-5.359 23.67,-23.316 26.162,-20.927c1.274,1.221 -0.619,3.478 -1.048,5.19c-2.915,11.652 -2.203,24.762 -5.928,35.924c-0.557,1.668 -2.095,4.841 -2.095,4.841c0,0 1.166,-2.905 2.095,-4.143c9.085,-12.105 13.807,-23.263 26.507,-32.785c0.205,-0.153 3.638,-2.614 4.182,-2.091c0.744,0.716 0,2.064 0,3.096c0,14.057 -12.904,39.7 -12.904,55.105c0,0.993 0.604,-1.901 1.048,-2.79c5.794,-11.595 13.51,-22.245 22.669,-31.387c0.481,-0.48 1.359,-1.605 1.746,-1.048c4.924,7.082 -4.394,27.542 -6.277,34.138c-0.444,1.556 -1.769,17.034 -3.143,17.091c-0.487,0.02 4.899,-8.874 5.234,-9.377c8.298,-12.447 19.535,-21.606 29.995,-32.086c0.228,-0.229 1.303,-1.804 2.091,-1.048c1.845,1.769 -3.598,12.841 -4.186,14.607c-2.723,8.174 -2.999,16.275 -4.881,24.416c-0.648,2.802 -2.157,5.777 -3.139,8.718c-0.561,1.68 -3.79,5.401 -2.095,4.885c1.051,-0.321 23.016,-45.999 45.999,-45.999" style="stroke:#000;stroke-width:5px;"/><g><path d="M29.329,247.711l-18.97,-66.079l12.666,-3.637l6.832,23.8c2.63,-5.569 6.619,-9.121 11.968,-10.657c5.829,-1.673 11.258,-0.947 16.287,2.179c5.028,3.127 8.677,8.641 10.946,16.544c2.346,8.174 2.208,15.028 -0.416,20.562c-2.623,5.535 -6.714,9.1 -12.273,10.696c-2.735,0.785 -5.628,0.876 -8.68,0.272c-3.052,-0.604 -5.923,-1.967 -8.614,-4.089l2.018,7.031l-11.764,3.378Zm5.407,-28.582c1.423,4.958 3.257,8.4 5.501,10.325c3.16,2.736 6.558,3.582 10.194,2.538c2.794,-0.802 4.833,-2.68 6.115,-5.634c1.283,-2.954 1.186,-7 -0.289,-12.139c-1.57,-5.469 -3.694,-9.128 -6.371,-10.978c-2.678,-1.849 -5.565,-2.33 -8.66,-1.441c-3.035,0.871 -5.22,2.775 -6.556,5.712c-1.336,2.937 -1.314,6.809 0.066,11.617Z" style="fill:none;fill-rule:nonzero;stroke:#000;stroke-width:18px;stroke-miterlimit:2;"/><path d="M29.329,247.711l-18.97,-66.079l12.666,-3.637l6.832,23.8c2.63,-5.569 6.619,-9.121 11.968,-10.657c5.829,-1.673 11.258,-0.947 16.287,2.179c5.028,3.127 8.677,8.641 10.946,16.544c2.346,8.174 2.208,15.028 -0.416,20.562c-2.623,5.535 -6.714,9.1 -12.273,10.696c-2.735,0.785 -5.628,0.876 -8.68,0.272c-3.052,-0.604 -5.923,-1.967 -8.614,-4.089l2.018,7.031l-11.764,3.378Zm5.407,-28.582c1.423,4.958 3.257,8.4 5.501,10.325c3.16,2.736 6.558,3.582 10.194,2.538c2.794,-0.802 4.833,-2.68 6.115,-5.634c1.283,-2.954 1.186,-7 -0.289,-12.139c-1.57,-5.469 -3.694,-9.128 -6.371,-10.978c-2.678,-1.849 -5.565,-2.33 -8.66,-1.441c-3.035,0.871 -5.22,2.775 -6.556,5.712c-1.336,2.937 -1.314,6.809 0.066,11.617Z" style="fill:#fff;fill-rule:nonzero;"/><path d="M109.605,208.174l13.229,-1.505c-0.294,5.094 -1.845,9.353 -4.651,12.777c-2.806,3.424 -6.839,5.89 -12.097,7.4c-8.324,2.39 -15.265,1.439 -20.823,-2.853c-4.406,-3.451 -7.562,-8.498 -9.469,-15.138c-2.277,-7.934 -1.987,-14.742 0.87,-20.424c2.857,-5.683 7.456,-9.435 13.796,-11.255c7.122,-2.045 13.416,-1.306 18.883,2.215c5.467,3.52 9.503,10.16 12.109,19.918l-31.732,9.109c1.169,3.731 3.029,6.36 5.582,7.887c2.553,1.528 5.287,1.873 8.201,1.037c1.984,-0.57 3.496,-1.589 4.538,-3.059c1.041,-1.47 1.563,-3.506 1.564,-6.109Zm-2.954,-13.008c-1.143,-3.64 -2.889,-6.156 -5.24,-7.546c-2.351,-1.391 -4.818,-1.715 -7.403,-0.973c-2.764,0.794 -4.759,2.456 -5.984,4.987c-1.225,2.531 -1.326,5.52 -0.304,8.967l18.931,-5.435Z" style="fill:none;fill-rule:nonzero;stroke:#000;stroke-width:18px;stroke-miterlimit:2;"/><path d="M109.605,208.174l13.229,-1.505c-0.294,5.094 -1.845,9.353 -4.651,12.777c-2.806,3.424 -6.839,5.89 -12.097,7.4c-8.324,2.39 -15.265,1.439 -20.823,-2.853c-4.406,-3.451 -7.562,-8.498 -9.469,-15.138c-2.277,-7.934 -1.987,-14.742 0.87,-20.424c2.857,-5.683 7.456,-9.435 13.796,-11.255c7.122,-2.045 13.416,-1.306 18.883,2.215c5.467,3.52 9.503,10.16 12.109,19.918l-31.732,9.109c1.169,3.731 3.029,6.36 5.582,7.887c2.553,1.528 5.287,1.873 8.201,1.037c1.984,-0.57 3.496,-1.589 4.538,-3.059c1.041,-1.47 1.563,-3.506 1.564,-6.109Zm-2.954,-13.008c-1.143,-3.64 -2.889,-6.156 -5.24,-7.546c-2.351,-1.391 -4.818,-1.715 -7.403,-0.973c-2.764,0.794 -4.759,2.456 -5.984,4.987c-1.225,2.531 -1.326,5.52 -0.304,8.967l18.931,-5.435Z" style="fill:#fff;fill-rule:nonzero;"/><path d="M162.704,209.421l-18.97,-66.079l12.666,-3.636l6.832,23.799c2.63,-5.568 6.619,-9.121 11.968,-10.656c5.829,-1.674 11.258,-0.947 16.287,2.179c5.028,3.126 8.677,8.641 10.946,16.544c2.346,8.174 2.208,15.028 -0.416,20.562c-2.623,5.534 -6.714,9.1 -12.273,10.696c-2.735,0.785 -5.628,0.875 -8.68,0.271c-3.052,-0.603 -5.923,-1.966 -8.614,-4.089l2.018,7.032l-11.764,3.377Zm5.407,-28.581c1.423,4.958 3.257,8.4 5.501,10.325c3.16,2.736 6.558,3.582 10.194,2.538c2.794,-0.802 4.833,-2.68 6.115,-5.634c1.283,-2.954 1.186,-7.001 -0.289,-12.139c-1.57,-5.469 -3.694,-9.128 -6.371,-10.978c-2.678,-1.85 -5.565,-2.33 -8.66,-1.442c-3.035,0.872 -5.22,2.776 -6.556,5.713c-1.336,2.936 -1.314,6.809 0.066,11.617Z" style="fill:none;fill-rule:nonzero;stroke:#000;stroke-width:18px;stroke-miterlimit:2;"/><path d="M162.704,209.421l-18.97,-66.079l12.666,-3.636l6.832,23.799c2.63,-5.568 6.619,-9.121 11.968,-10.656c5.829,-1.674 11.258,-0.947 16.287,2.179c5.028,3.126 8.677,8.641 10.946,16.544c2.346,8.174 2.208,15.028 -0.416,20.562c-2.623,5.534 -6.714,9.1 -12.273,10.696c-2.735,0.785 -5.628,0.875 -8.68,0.271c-3.052,-0.603 -5.923,-1.966 -8.614,-4.089l2.018,7.032l-11.764,3.377Zm5.407,-28.581c1.423,4.958 3.257,8.4 5.501,10.325c3.16,2.736 6.558,3.582 10.194,2.538c2.794,-0.802 4.833,-2.68 6.115,-5.634c1.283,-2.954 1.186,-7.001 -0.289,-12.139c-1.57,-5.469 -3.694,-9.128 -6.371,-10.978c-2.678,-1.85 -5.565,-2.33 -8.66,-1.442c-3.035,0.872 -5.22,2.776 -6.556,5.713c-1.336,2.936 -1.314,6.809 0.066,11.617Z" style="fill:#fff;fill-rule:nonzero;"/><path d="M231.758,189.597l-12.666,3.636l-13.742,-47.869l11.764,-3.377l1.954,6.806c1.09,-3.793 2.293,-6.431 3.607,-7.914c1.314,-1.484 2.993,-2.519 5.036,-3.105c2.885,-0.828 5.893,-0.83 9.025,-0.005l-0.751,12.169c-2.53,-0.77 -4.712,-0.892 -6.545,-0.366c-1.773,0.509 -3.135,1.429 -4.087,2.759c-0.952,1.331 -1.414,3.374 -1.387,6.131c0.027,2.757 1.21,8.207 3.547,16.351l4.245,14.784Z" style="fill:none;fill-rule:nonzero;stroke:#000;stroke-width:18px;stroke-miterlimit:2;"/><path d="M231.758,189.597l-12.666,3.636l-13.742,-47.869l11.764,-3.377l1.954,6.806c1.09,-3.793 2.293,-6.431 3.607,-7.914c1.314,-1.484 2.993,-2.519 5.036,-3.105c2.885,-0.828 5.893,-0.83 9.025,-0.005l-0.751,12.169c-2.53,-0.77 -4.712,-0.892 -6.545,-0.366c-1.773,0.509 -3.135,1.429 -4.087,2.759c-0.952,1.331 -1.414,3.374 -1.387,6.131c0.027,2.757 1.21,8.207 3.547,16.351l4.245,14.784Z" style="fill:#fff;fill-rule:nonzero;"/><path d="M255.473,146.783l-12.089,1.226c-0.037,-4.999 1.204,-9.063 3.72,-12.192c2.517,-3.13 6.886,-5.587 13.106,-7.373c5.649,-1.622 10.048,-2.161 13.197,-1.617c3.148,0.543 5.581,1.682 7.299,3.417c1.718,1.735 3.366,5.352 4.945,10.851l4.109,14.824c1.208,4.206 2.301,7.251 3.28,9.133c0.98,1.882 2.353,3.805 4.121,5.769l-12.531,3.598c-0.572,-0.747 -1.336,-1.877 -2.291,-3.392c-0.426,-0.691 -0.719,-1.144 -0.878,-1.358c-1.56,2.724 -3.42,4.966 -5.583,6.725c-2.162,1.759 -4.64,3.04 -7.435,3.842c-4.928,1.415 -9.196,1.193 -12.803,-0.666c-3.607,-1.859 -5.998,-4.832 -7.171,-8.919c-0.776,-2.705 -0.823,-5.302 -0.139,-7.791c0.684,-2.489 2.029,-4.632 4.034,-6.427c2.006,-1.796 5.081,-3.744 9.227,-5.845c5.6,-2.811 9.405,-5.025 11.412,-6.642l-0.362,-1.263c-0.699,-2.434 -1.798,-3.996 -3.298,-4.688c-1.499,-0.692 -3.917,-0.559 -7.252,0.399c-2.254,0.647 -3.885,1.595 -4.892,2.844c-1.008,1.248 -1.583,3.097 -1.726,5.545Zm19.898,5.411c-1.467,1.007 -3.851,2.391 -7.151,4.151c-3.3,1.761 -5.388,3.157 -6.262,4.189c-1.317,1.646 -1.716,3.371 -1.198,5.174c0.509,1.773 1.61,3.115 3.303,4.028c1.693,0.912 3.561,1.075 5.604,0.489c2.284,-0.656 4.247,-2.033 5.889,-4.13c1.205,-1.582 1.81,-3.268 1.817,-5.059c0.02,-1.177 -0.406,-3.283 -1.277,-6.318l-0.725,-2.524Z" style="fill:none;fill-rule:nonzero;stroke:#000;stroke-width:18px;stroke-miterlimit:2;"/><path d="M255.473,146.783l-12.089,1.226c-0.037,-4.999 1.204,-9.063 3.72,-12.192c2.517,-3.13 6.886,-5.587 13.106,-7.373c5.649,-1.622 10.048,-2.161 13.197,-1.617c3.148,0.543 5.581,1.682 7.299,3.417c1.718,1.735 3.366,5.352 4.945,10.851l4.109,14.824c1.208,4.206 2.301,7.251 3.28,9.133c0.98,1.882 2.353,3.805 4.121,5.769l-12.531,3.598c-0.572,-0.747 -1.336,-1.877 -2.291,-3.392c-0.426,-0.691 -0.719,-1.144 -0.878,-1.358c-1.56,2.724 -3.42,4.966 -5.583,6.725c-2.162,1.759 -4.64,3.04 -7.435,3.842c-4.928,1.415 -9.196,1.193 -12.803,-0.666c-3.607,-1.859 -5.998,-4.832 -7.171,-8.919c-0.776,-2.705 -0.823,-5.302 -0.139,-7.791c0.684,-2.489 2.029,-4.632 4.034,-6.427c2.006,-1.796 5.081,-3.744 9.227,-5.845c5.6,-2.811 9.405,-5.025 11.412,-6.642l-0.362,-1.263c-0.699,-2.434 -1.798,-3.996 -3.298,-4.688c-1.499,-0.692 -3.917,-0.559 -7.252,0.399c-2.254,0.647 -3.885,1.595 -4.892,2.844c-1.008,1.248 -1.583,3.097 -1.726,5.545Zm19.898,5.411c-1.467,1.007 -3.851,2.391 -7.151,4.151c-3.3,1.761 -5.388,3.157 -6.262,4.189c-1.317,1.646 -1.716,3.371 -1.198,5.174c0.509,1.773 1.61,3.115 3.303,4.028c1.693,0.912 3.561,1.075 5.604,0.489c2.284,-0.656 4.247,-2.033 5.889,-4.13c1.205,-1.582 1.81,-3.268 1.817,-5.059c0.02,-1.177 -0.406,-3.283 -1.277,-6.318l-0.725,-2.524Z" style="fill:#fff;fill-rule:nonzero;"/><path d="M320.058,164.248l-33.034,-42.331l13.297,-3.817l16.029,21.842l4.956,7.408c0.096,-2.272 0.139,-3.764 0.13,-4.477c0.032,-1.473 0.095,-2.955 0.187,-4.445l2.092,-27.044l13.026,-3.74l-5.279,53.33l-11.404,3.274Z" style="fill:none;fill-rule:nonzero;stroke:#000;stroke-width:18px;stroke-miterlimit:2;"/><path d="M320.058,164.248l-33.034,-42.331l13.297,-3.817l16.029,21.842l4.956,7.408c0.096,-2.272 0.139,-3.764 0.13,-4.477c0.032,-1.473 0.095,-2.955 0.187,-4.445l2.092,-27.044l13.026,-3.74l-5.279,53.33l-11.404,3.274Z" style="fill:#fff;fill-rule:nonzero;"/><path d="M381.583,130.095l13.229,-1.505c-0.294,5.093 -1.844,9.352 -4.65,12.776c-2.807,3.424 -6.839,5.891 -12.098,7.4c-8.324,2.39 -15.264,1.439 -20.822,-2.853c-4.407,-3.451 -7.563,-8.497 -9.469,-15.138c-2.278,-7.933 -1.988,-14.741 0.869,-20.424c2.857,-5.683 7.456,-9.435 13.797,-11.255c7.121,-2.044 13.416,-1.306 18.883,2.215c5.467,3.521 9.503,10.16 12.109,19.918l-31.732,9.11c1.168,3.73 3.029,6.359 5.582,7.887c2.552,1.527 5.286,1.873 8.201,1.036c1.983,-0.569 3.496,-1.589 4.537,-3.059c1.042,-1.47 1.563,-3.506 1.564,-6.108Zm-2.953,-13.009c-1.143,-3.64 -2.89,-6.155 -5.24,-7.546c-2.351,-1.39 -4.819,-1.715 -7.403,-0.973c-2.764,0.794 -4.759,2.456 -5.984,4.987c-1.225,2.531 -1.327,5.52 -0.305,8.967l18.932,-5.435Z" style="fill:none;fill-rule:nonzero;stroke:#000;stroke-width:18px;stroke-miterlimit:2;"/><path d="M381.583,130.095l13.229,-1.505c-0.294,5.093 -1.844,9.352 -4.65,12.776c-2.807,3.424 -6.839,5.891 -12.098,7.4c-8.324,2.39 -15.264,1.439 -20.822,-2.853c-4.407,-3.451 -7.563,-8.497 -9.469,-15.138c-2.278,-7.933 -1.988,-14.741 0.869,-20.424c2.857,-5.683 7.456,-9.435 13.797,-11.255c7.121,-2.044 13.416,-1.306 18.883,2.215c5.467,3.521 9.503,10.16 12.109,19.918l-31.732,9.11c1.168,3.73 3.029,6.359 5.582,7.887c2.552,1.527 5.286,1.873 8.201,1.036c1.983,-0.569 3.496,-1.589 4.537,-3.059c1.042,-1.47 1.563,-3.506 1.564,-6.108Zm-2.953,-13.009c-1.143,-3.64 -2.89,-6.155 -5.24,-7.546c-2.351,-1.39 -4.819,-1.715 -7.403,-0.973c-2.764,0.794 -4.759,2.456 -5.984,4.987c-1.225,2.531 -1.327,5.52 -0.305,8.967l18.932,-5.435Z" style="fill:#fff;fill-rule:nonzero;"/></g></g></g></svg>