<?xml version="1.0" encoding="UTF-8" standalone="no"?><!DOCTYPE svg PUBLIC "-//W3C//DTD SVG 1.1//EN" "http://www.w3.org/Graphics/SVG/1.1/DTD/svg11.dtd"><svg width="100%" height="100%" viewBox="0 0 288 326" version="1.1" xmlns="http://www.w3.org/2000/svg" xmlns:xlink="http://www.w3.org/1999/xlink" xml:space="preserve" xmlns:serif="http://www.serif.com/" style="fill-rule:evenodd;clip-rule:evenodd;stroke-linecap:round;stroke-linejoin:round;stroke-miterlimit:1.5;"><rect id="Artboard16" x="0" y="0" width="287.771" height="325.55" style="fill:none;"/><g id="Layer20"><path d="M57.272,52.581c0,2.032 -0.986,8.605 -2.205,9.819c-0.063,0.063 0,0.919 0,1.021c0,3.166 -0.977,8.2 0,11.13c0.875,2.621 2.457,5.157 3.889,6.594c1.308,1.313 3.372,4.132 5.785,4.132" style="fill:none;stroke:#000;stroke-width:1px;"/><path d="M65.161,86.18c1.026,0 3.825,0.906 4.329,1.409c0.097,0.098 6.273,2.657 7.241,3.629c2.791,2.802 4.833,11.591 6.854,16.299c0.514,1.198 -0.206,-0.244 -0.746,-0.244c-0.682,0 1.807,4.781 1.945,5.039c1.293,2.428 1.228,5.115 2.073,7.647c0.294,0.882 1.695,10.861 1.166,11.39c-1.064,1.064 -3.294,15.195 -2.073,17.237c2.949,4.933 5.524,12.25 9.445,16.171c0.798,0.798 0.656,3.25 1.426,4.276c4.009,5.342 7.152,10.282 11.016,15.682c5.11,7.143 10.343,8.326 13.091,16.59c0.969,2.915 4.406,5.399 4.406,8.035" style="fill:none;stroke:#000;stroke-width:1px;"/><path d="M125.629,210.228c0,2.294 2.96,5.033 4.277,6.351c2.091,2.09 2.112,7.113 3.629,9.85c0.723,1.304 2.292,2.247 2.98,3.629c2.21,4.435 4.909,11.053 9.964,13.576c2.645,1.32 6.618,2.982 8.426,4.797c1.333,1.338 5.237,1.461 7.128,2.72c2.923,1.948 8.795,7.492 11.404,10.11c3.629,3.643 6.214,9.688 11.618,12.38c6.338,3.157 12.709,6.678 18.793,9.72c6.168,3.084 21.637,21.904 24.61,21.904" style="fill:none;stroke:#000;stroke-width:1px;"/><path d="M204.029,280.381c0,-12.092 -1.521,-13.361 -13.089,-15.668c-3.363,-0.67 -6.493,-3.718 -9.721,-4.795c-0.778,-0.259 -3.078,-0.869 -3.614,-1.426c-0.941,-0.977 0,-7.051 0,-8.554c0,-8.677 -2.295,-13.749 -2.295,-21.332" style="fill:none;stroke:#000;stroke-width:1px;"/><path d="M176.418,232.979c0,-2.433 0.587,-4.77 0.298,-7.218c-0.171,-1.456 -0.731,-2.5 -1.006,-3.869c-0.169,-0.848 0.022,-1.817 -0.186,-2.645c-0.245,-0.979 -0.766,-1.899 -1.043,-2.869c-0.287,-1.005 -0.465,-2.142 -0.782,-3.092c-0.466,-1.394 -0.186,-3.559 -0.186,-4.954c0,-0.538 0.286,-1.27 0.111,-1.788c-0.097,-0.289 -1.307,-0.785 -1.601,-1.006c-1.476,-1.106 -3.808,-0.894 -5.625,-0.894c-0.346,0 -1.195,0.123 -1.565,0c-1.115,-0.37 -1.443,-1.181 -2.31,-1.788c-0.494,-0.346 -1.046,-0.526 -1.527,-0.857c-0.701,-0.481 -1.491,-0.128 -2.235,-0.447c-1.364,-0.584 -2.704,-1.512 -3.8,-2.347c-0.871,-0.663 -2.004,-1.446 -2.645,-2.086c-0.126,-0.126 -0.497,-0.327 -0.703,-0.224c-0.205,0.103 -0.315,0.447 -0.401,0.616c-0.158,0.311 -0.545,0.429 -0.708,0.633c-0.432,0.543 -0.689,1.511 -1.117,1.938c-0.145,0.144 0.032,0.651 -0.108,0.797c-0.33,0.344 1.009,0.526 1.151,0.703c0.571,0.714 2.059,1.091 3.129,1.304c0.913,0.182 1.643,1.007 2.458,1.415c0.495,0.248 1.149,0.297 1.672,0.559c1.144,0.572 2.209,1.348 3.316,1.9c1.079,0.539 2.099,1.772 3.315,2.384c1.198,0.603 3.059,1.204 4.019,2.161c0.628,0.625 1.107,1.525 1.639,2.235c0.324,0.432 0.999,0.852 1.22,1.332c0.786,1.706 1.314,3.497 2.012,5.243c0.602,1.506 1.224,2.999 1.714,4.466c0.239,0.718 0.233,1.51 0.558,2.161c0.315,0.629 -0.111,1.763 -0.111,2.414" style="stroke:#000;stroke-width:1px;"/><path d="M167.131,204.435c0,-1.155 0.596,-2.38 0.298,-3.571c-0.238,-0.951 -0.475,-1.987 -0.782,-2.906c-0.12,-0.359 0.168,-0.931 0,-1.267c-0.887,-1.773 -1.182,-3.143 -2.235,-4.987c-0.405,-0.708 -0.737,-1.417 -1.118,-2.123c-0.178,-0.331 -0.873,-0.543 -1.15,-0.82c-0.056,-0.056 -0.712,-0.811 -0.815,-0.708c-0.19,0.19 0.312,0.663 0.447,0.731c0.406,0.202 0.93,0.675 1.117,0.862c0.127,0.127 0.087,0.466 0.22,0.555c0.051,0.034 0.485,0.39 0.33,0.545c-0.414,0.414 -0.914,-0.962 -1.076,-1.043c-0.578,-0.289 -0.952,-1.266 -1.527,-1.825c-1.016,-0.989 -1.77,-2.288 -2.682,-3.428c-0.328,-0.409 -0.75,-0.563 -0.969,-0.782c-0.645,-0.645 -1.314,-1.794 -1.751,-2.608c-0.172,-0.32 -0.759,-0.718 -1.043,-0.931c-0.967,-0.725 -1.652,-1.797 -2.644,-2.459c-0.412,-0.274 -0.793,-0.81 -1.267,-0.968c-0.526,-0.176 -1.417,-0.453 -1.816,-0.853c-0.604,-0.603 -0.956,-1.514 -1.714,-2.044c-0.581,-0.406 -1.647,-0.223 -2.347,-0.223c-1.833,0 -3.703,-0.075 -5.551,-0.075c-0.535,0 -2.143,0.39 -2.533,0c-0.407,-0.407 0.266,-1.756 0.522,-2.012c0.458,-0.457 2.122,0.052 2.748,-0.074c1.093,-0.219 1.868,-0.629 2.906,-1.043c0.397,-0.159 1.21,-0.391 1.489,-0.671c1.027,-1.026 0.49,-4.003 -0.596,-4.544c-0.23,-0.115 -0.369,-0.74 -0.521,-0.969c-0.057,-0.085 -0.343,-0.318 -0.294,-0.368c0.36,-0.359 1.386,0.625 1.626,0.745c1.377,0.69 2.281,1.738 3.576,2.57c0.34,0.219 0.871,1.009 1.292,1.009c1.636,0 3.397,-0.215 5.023,-0.012c0.712,0.089 1.389,0.495 2.086,0.634c1.438,0.286 2.916,-0.188 4.359,0.223c0.652,0.187 1.373,0.112 2.048,0.112c0.211,0 0.48,-0.224 0.629,-0.074c0.164,0.163 0,1.3 0,1.555c0,1.823 -0.409,3.453 -0.409,5.29c0,2.056 0.18,3.666 1.08,5.467c0.334,0.668 -0.046,1.884 0.074,2.608c0.375,2.248 0.979,4.676 2.012,6.742c1.069,2.139 2.78,3.843 4.043,5.864c1.019,1.631 1.046,3.71 2.011,5.401c0.557,0.975 2.807,3.898 1.677,5.035" style="stroke:#000;stroke-width:2px;"/><path d="M135.353,173.032c-2.001,0 -3.375,0.465 -4.819,0.465c-0.309,0 -1.656,0.196 -1.852,0c-0.875,-0.875 -1.282,-1.759 -2.99,-2.899c-0.389,-0.26 -2.306,-1.126 -2.442,-1.329c-2.334,-3.488 -5.525,-5.424 -8.032,-8.039c-1.968,-2.052 -4.025,-4.668 -5.248,-7.11c-0.209,-0.416 -0.524,-0.14 -0.715,-0.331c-1.146,-1.146 -2.377,-3.44 -3.19,-4.909c-1.7,-3.076 -3.423,-5.651 -4.916,-8.638c-0.212,-0.424 -1.346,-2.691 -1.239,-2.849c1.284,-1.882 4.714,-3.218 6.644,-4.185c1.511,-0.757 2.622,-2.715 4.253,-3.322c2.068,-0.771 3.625,-1.822 5.764,-3.248c3.061,-2.04 5.924,-4.409 9.236,-5.514c1.2,-0.401 1.912,-2.193 2.716,-2.193" style="fill:none;stroke:#000;stroke-width:2px;"/><path d="M136.641,135.037c-0.908,-0.908 -2.23,-1.78 -2.982,-2.783c-0.499,-0.666 -1.156,-2.396 -1.794,-2.658c-0.325,-0.133 -2.439,1.192 -3.024,1.388c-2.818,0.94 -5.798,0.506 -8.505,1.86c-2.223,1.113 -4.437,1.5 -6.711,2.259c-0.294,0.098 -1.739,0.961 -1.453,1.246c0.433,0.433 1.332,-0.428 1.586,-0.598c1.516,-1.01 3.78,-2.137 5.714,-2.524c1.962,-0.394 4.044,-0.142 6.047,-0.598c0.933,-0.213 1.668,-0.405 2.458,-0.931c0.173,-0.115 0.59,-0.199 0.59,-0.199c0,0 -1.08,0.035 -1.587,0.199c-1.443,0.468 -2.991,0.816 -4.51,1.321c-2.745,0.915 -6.705,3.92 -9.434,3.92" style="fill:none;stroke:#000;stroke-width:2px;"/><path d="M164.772,169.269c1.728,-0.864 3.311,-1.366 4.419,-2.916c1.586,-2.216 0.412,-5.011 1.196,-6.577c2.09,-4.171 1.985,-9.506 2.791,-14.352c0.266,-1.602 0.93,-3.572 0.93,-5.116" style="fill:none;stroke:#000;stroke-width:2px;"/><path d="M149.057,200.809c-3.057,0 -4.201,-3.322 -6.637,-3.322c-0.34,0 -1.837,-0.546 -2.184,-0.2c-0.019,0.02 -0.019,0.555 0,0.574c0.624,0.624 0.773,0.746 0.773,1.896c0,1.189 0.285,3.676 0.997,4.385c0.07,0.07 0.189,4.032 0.59,4.834c0.786,1.573 1.041,3.567 1.661,5.631c0.241,0.804 0.465,1.618 0.797,2.393c0.095,0.222 0.507,0.821 0.399,0.605c-0.292,-0.582 -0.286,0.952 -0.192,1.196c0.993,2.578 1.114,5.039 1.662,7.774c0.334,1.667 1.452,2.955 1.86,4.585c0.916,3.661 0.141,7.949 0.141,11.478" style="fill:none;stroke:#000;stroke-width:2px;"/><path d="M175.973,233.926c0,2.756 0.686,5.269 1.329,7.84c1.297,5.181 0.731,11.234 0.731,16.61" style="fill:none;stroke:#000;stroke-width:1px;"/><path d="M111.964,136.512c0,4.233 0.207,8.498 0.207,12.801c0,1.837 -0.067,4.495 0.97,5.531c0.425,0.426 6.57,-0.921 6.649,-1.039c0.063,-0.094 0.259,-0.08 0.338,0c0.182,0.182 0.231,1.701 0.415,2.069c0.9,1.796 1.88,3.144 2.494,4.986c0.17,0.512 0.09,2.167 0.415,2.492c0.775,0.775 3.322,-0.72 4.079,0.07c0.443,0.462 -0.037,1.868 0.416,2.321c0.755,0.755 4.226,-1.681 4.226,0.598" style="fill:none;stroke:#000;stroke-width:1px;"/><path d="M128.503,148.554c0.31,0 1.667,0.125 1.022,0.745c-0.602,0.579 -2.035,-0.056 -1.315,-0.745c0.421,-0.404 1.193,0.655 0.891,1.091c-0.452,0.654 -1.725,-0.533 -1.107,-1.177c0.711,-0.741 2.073,0.798 1.238,0.798" style="fill:none;stroke:#000;stroke-width:1px;"/><path d="M128.999,117.98c0,-2.55 2.506,-4.064 3.324,-6.008c0.216,-0.514 0.588,-1.228 0.969,-1.8c0.1,-0.15 0.244,-0.563 0.347,-0.415c0.493,0.71 -0.486,5.033 -0.486,6.223c0,0.035 -0.404,2.117 -0.207,2.216c0.099,0.049 0.398,-0.482 0.434,-0.554c0.607,-1.214 3.513,-1.802 4.621,-2.354c0.062,-0.031 0.158,-0.048 0.208,0c0.786,0.754 -4.146,4.111 -3.117,5.185c0.259,0.27 3.785,0.949 4.354,1.177c0.105,0.042 0.221,0.219 0.139,0.338c-0.174,0.251 -3.725,-0.241 -4.501,1.315c-0.032,0.065 2.21,3.333 1.914,3.629c-0.247,0.247 -1.85,-0.929 -2.069,-1.039c-1.738,-0.868 -3.926,-2.696 -5.262,-4.085c-0.261,-0.271 -0.891,-1.316 -1.031,-1.316" style="fill:none;stroke:#000;stroke-width:1px;"/><path d="M174.937,139.345c0,-2.873 -2.212,-5.481 -2.978,-8.162c-0.249,-0.874 -0.335,-2.8 -0.969,-3.462c-0.103,-0.108 -0.352,1.42 0.762,1.792c1.148,0.383 2.624,1.101 3.531,2.008c0.165,0.165 0.347,0.606 0.347,0.606l0,-0.615c0,-0.371 -0.258,-3.144 0,-3.323c0.421,-0.293 0.568,1.144 0.606,1.238c0.33,0.826 0.752,1.544 1.246,2.285c0.21,0.315 0.556,0.764 0.831,1.039c0.095,0.095 0.208,0.48 0.208,0.346c0,-1.977 0.944,-2.504 1.731,-4.077c0.065,-0.131 0.569,-0.452 0.615,-0.408c0.585,0.562 -0.258,2.822 -0.554,3.316c-0.167,0.277 -0.138,1.284 -0.138,0.961c0,-0.881 3.924,-1.501 4.259,-0.831c0.505,1.01 -2.609,2.39 -3.185,2.822c-1.666,1.25 -6.44,5.153 -6.44,7.34" style="fill:none;stroke:#000;stroke-width:1px;"/><path d="M157.08,111.38c0,-1.733 -2.119,-2.642 -2.632,-1.1c-0.694,2.087 2.438,6.408 3.991,4.855c1.745,-1.746 1.825,-5.62 0.762,-7.755c-0.266,-0.533 -1.138,-0.666 -1.593,-0.969c-2.292,-1.528 -5.615,-1.097 -6.647,2.007c-0.29,0.873 0,2.279 0,3.186c0,8.602 10.241,12.314 14.125,4.777c0.52,-1.009 0.623,-2.707 0.623,-3.808c0,-1.234 0.387,-3.199 0,-4.362c-1.684,-5.065 -9.149,-6.302 -13.71,-6.302c-2.51,0 -7.963,0.352 -7.963,4.009" style="fill:none;stroke:#000;stroke-width:1px;"/><path d="M151.914,95.194c0,7.338 2.276,15.272 4.708,22.14c0.61,1.722 4.362,11.131 4.362,12.533" style="fill:none;stroke:#000;stroke-width:1px;"/><path d="M153.722,73.304c-1.166,0 -2.12,-1.498 -3.046,-2.077c-1.436,-0.898 -3.975,-1.687 -5.748,-1.038c-1.579,0.577 -0.907,3.644 -1.107,4.847c-0.154,0.924 -0.528,2.503 -0.208,3.461c0.533,1.598 6.892,4.882 8.863,4.224c3.147,-1.05 3.901,-10.455 0.155,-10.455" style="fill:none;stroke:#000;stroke-width:1px;"/><path d="M159.763,71.227c4.533,0 8.745,-1.587 13.156,-2.215c2.379,-0.339 4.757,-0.347 7.201,-0.347c5.79,0 8.24,1.709 8.24,6.994c0,1.556 -0.058,2.727 -1.247,3.739c-1.454,1.238 -5.022,1.259 -6.785,1.454c-5.343,0.592 -10.494,0.969 -15.995,0.969c-1.637,0 -5.228,0.658 -6.439,-0.554" style="fill:none;stroke:#000;stroke-width:1px;"/><path d="M187.842,78.29c1.079,0 2.431,1.758 3.323,2.354c3.33,2.223 11.473,6.7 14.192,1.262c2.021,-4.043 -0.318,-9.192 -4.428,-10.817c-1.376,-0.544 -2.36,-1.915 -4.085,-1.246c-0.634,0.245 -2.274,3.531 -1.463,3.531" style="fill:none;stroke:#000;stroke-width:1px;"/><path d="M172.047,61.533c0,8.525 3.229,15.819 6.439,23.526c1.134,2.722 2.367,6.176 4.501,8.309" style="fill:none;stroke:#000;stroke-width:1px;"/><path d="M168.271,63.203c0,6.054 2.2,11.808 3.186,17.726c0.58,3.486 -0.001,7.067 1.384,10.387c0.658,1.579 2.221,6.638 3.74,7.478" style="fill:none;stroke:#000;stroke-width:1px;"/><path d="M162.394,64.735c0,8.343 2.833,19.448 7.548,26.512" style="fill:none;stroke:#000;stroke-width:1px;"/><path d="M157.763,66.621c0,7.853 0.81,15.862 1.593,23.681c0.17,1.706 1.384,3.717 1.384,5.262" style="fill:none;stroke:#000;stroke-width:1px;"/><path d="M193.998,106.15c0,-1.643 -0.724,-3.51 -1.454,-4.97c-0.257,-0.514 -1.128,-1.556 -1.376,-1.038c-0.542,1.128 -0.286,5.161 0,6.301c0.381,1.526 2.321,1.297 3.393,1.731c0.982,0.399 2.446,2.159 2.769,3.116c0.263,0.777 0.241,2.707 0,3.523c-0.332,1.125 -1.663,1.733 -2.008,2.77c-0.669,2.013 -0.719,5.111 1.385,5.955c1.98,0.794 2.661,-4.266 1.991,-5.393c-1.799,-3.024 -6.701,-1.663 -9.348,-5.193c-0.772,-1.03 -1.522,-3.481 -1.522,-4.708l0,-1.455c0,-0.254 0,-1.015 0,-0.761c0,4.96 1.749,6.979 4.292,11.217c0.677,1.128 0.95,2.968 2.078,3.531c0.523,0.262 1.963,0 2.492,0" style="fill:none;stroke:#000;stroke-width:1px;"/><path d="M195.244,106.105c4.393,-4.392 6.836,-5.735 6.155,-13.217c-0.232,-2.545 -1.662,-5.245 -1.662,-7.755" style="fill:none;stroke:#000;stroke-width:1px;"/><path d="M200.715,109.437c6.186,0 13.762,-9.376 13.762,-15.025" style="fill:none;stroke:#000;stroke-width:1px;"/><path d="M200.491,112.666c1.685,0 4.429,-1.928 5.946,-2.769c2.179,-1.21 7.944,-1.523 10.317,-1.523c1.564,0 4.986,-0.758 4.986,1.523" style="fill:none;stroke:#000;stroke-width:1px;"/><path d="M199.166,117.859c2.183,0 4.65,-0.22 6.786,0.208c3.876,0.777 8.894,4.417 11.287,7.41c1.401,1.751 1.568,3.997 3.185,5.608" style="fill:none;stroke:#000;stroke-width:1px;"/><path d="M187.334,112.312c-5.303,0 -8.57,-2.424 -12.377,-6.231" style="fill:none;stroke:#000;stroke-width:1px;"/><path d="M188.052,115.134c-6.4,0 -12.641,0.623 -19.033,0.623" style="fill:none;stroke:#000;stroke-width:1px;"/><path d="M189.029,119.419c-4.489,0 -8.662,0.861 -12.948,2.147c-2.424,0.727 -5.038,2.008 -7.617,2.008" style="fill:none;stroke:#000;stroke-width:1px;"/><path d="M193.547,121.211c0,2.277 -1.595,4.154 -2.285,6.224c-1.299,3.896 -2.216,8.015 -2.216,12.117c0,1.101 1.201,5.47 2.207,5.47" style="fill:none;stroke:#000;stroke-width:1px;"/><path d="M140.302,161.656c0,-12.107 1.1,-23.318 1.1,-35.385c0,-1.93 1.11,-11.255 0.273,-12.511c-8.257,-12.394 -10.431,-25.812 -10.431,-41.071c0,-2.093 -1.138,-5.25 -0.137,-7.253c1.539,-3.078 5.112,-6.347 7.424,-8.66c0.699,-0.698 11.844,-1.178 13.06,-1.787c5.702,-2.857 39.763,-1.355 45.727,0.137c5.125,1.283 9.785,12.347 14.161,15.259c1.501,0.999 0.048,1.569 0.842,3.163c2.064,4.145 5.85,7.708 7.972,11.96c1.126,2.257 0.321,5.077 1.101,7.423c1.09,3.28 2.544,5.665 3.436,8.782c1.322,4.621 3.505,23.745 1.512,27.065c-0.762,1.271 -3.913,7.269 -4.262,8.662c-0.423,1.69 -0.969,6.056 -1.923,7.01c-0.789,0.789 -1.56,2.326 -2.339,3.574c-1.948,3.12 -8.721,6.269 -12.888,8.765c-1.696,1.016 -6.153,-0.689 -6.153,1.633c0,0.768 -0.002,-2.543 -0.688,-2.199c-5.535,2.772 -7.319,9.647 -11.823,14.159c-2.705,2.711 -7.256,4.523 -10.586,6.186c-0.637,0.319 -10.035,2.953 -10.035,1.117" style="fill:none;stroke:#000;stroke-width:1px;"/><path d="M148.765,201.238c-1.436,0 -8.047,-4.379 -8.668,-3.759c-0.062,0.063 -0.035,0.967 0,1.037c1.113,2.221 2.066,4.833 2.722,7.906c0.928,4.342 1.691,9.077 3.11,13.35c1.218,3.666 0.399,8.571 1.168,12.426c0.545,2.733 3.361,10.226 2.85,10.758c-0.645,0.674 -3.18,-2.09 -3.483,-2.333c-1.103,-0.882 -6.48,-2.655 -6.48,-4.277" style="fill:none;stroke:#000;stroke-width:1px;"/></g></svg>