<?xml version="1.0" encoding="UTF-8" standalone="no"?><!DOCTYPE svg PUBLIC "-//W3C//DTD SVG 1.1//EN" "http://www.w3.org/Graphics/SVG/1.1/DTD/svg11.dtd"><svg width="100%" height="100%" viewBox="0 0 691 835" version="1.1" xmlns="http://www.w3.org/2000/svg" xmlns:xlink="http://www.w3.org/1999/xlink" xml:space="preserve" xmlns:serif="http://www.serif.com/" style="fill-rule:evenodd;clip-rule:evenodd;stroke-linejoin:round;stroke-miterlimit:2;"><rect id="get-a-intermediary1" serif:id="get a intermediary1" x="0" y="0" width="690.09" height="834.922" style="fill:none;"/><g><path d="M239.046,249.23c-3.456,-10.368 -5.184,-26.496 -5.184,-48.384c0,-4.704 0.096,-8.88 0.288,-12.528c0.192,-4.416 0.864,-9.168 2.016,-14.256c0.48,-2.592 1.08,-4.848 1.8,-6.768c0.72,-1.92 1.704,-3.936 2.952,-6.048c2.208,-3.84 5.28,-6.528 9.216,-8.064c2.112,-0.768 4.32,-1.152 6.624,-1.152c2.88,0 4.32,0.816 4.32,2.448c0,1.152 -0.72,1.728 -2.16,1.728c-0.384,0 -1.056,-0.144 -2.016,-0.432l-2.016,-0.288c-3.168,0 -5.904,1.296 -8.208,3.888c-1.632,1.92 -3.216,5.232 -4.752,9.936c-1.056,3.84 -1.776,8.112 -2.16,12.816c-0.288,2.592 -0.576,6.816 -0.864,12.672l-0.144,9.504l0,7.92c0,9.312 0.672,17.808 2.016,25.488c0.96,4.8 2.088,8.784 3.384,11.952c1.296,3.168 3.048,5.76 5.256,7.776c2.4,2.208 4.992,3.312 7.776,3.312c5.088,0 9.168,-2.4 12.24,-7.2c0,-2.592 -0.192,-6 -0.576,-10.224c-0.288,-2.112 -0.672,-4.08 -1.152,-5.904c-0.576,-1.632 -1.248,-2.448 -2.016,-2.448l-2.736,0.288l-3.024,0.288c-2.208,0 -3.312,-0.816 -3.312,-2.448c0,-0.768 1.344,-1.488 4.032,-2.16c2.688,-0.672 4.944,-1.008 6.768,-1.008c1.536,0 2.664,0.552 3.384,1.656c0.72,1.104 1.08,2.568 1.08,4.392c0,2.112 0.48,6.384 1.44,12.816c0.96,5.376 1.44,9.648 1.44,12.816c0,1.536 -0.624,2.304 -1.872,2.304c-2.304,0 -3.456,-1.056 -3.456,-3.168l0.144,-0.432l0,-0.288c-5.472,3.168 -10.32,4.752 -14.544,4.752c-7.2,0 -12.528,-5.184 -15.984,-15.552Z" style="fill-rule:nonzero;stroke:#000;stroke-width:0.24px;"/><path d="M290.598,261.326l0,-1.872c0.096,-0.48 0.144,-1.056 0.144,-1.728l-0.576,-0.576c0.768,-2.016 1.152,-3.984 1.152,-5.904c0,-2.208 -0.144,-5.376 -0.432,-9.504l-0.288,-9.504c0,-4.8 0.144,-12 0.432,-21.6c0.384,-8.544 0.576,-15.792 0.576,-21.744l-0.288,-8.64c-0.192,-2.592 -0.288,-5.472 -0.288,-8.64c0,-1.44 0.336,-2.472 1.008,-3.096c0.672,-0.624 1.728,-0.936 3.168,-0.936c0.96,0 1.728,0.288 2.304,0.864c0.192,0.096 1.584,0.288 4.176,0.576c2.4,0.288 4.464,0.72 6.192,1.296c1.824,0.576 2.736,1.296 2.736,2.16c0,0.96 -0.912,1.92 -2.736,2.88c-5.472,-1.824 -9.36,-2.736 -11.664,-2.736l-0.72,0.864c0.096,0.864 0.144,2.928 0.144,6.192c0,4.128 -0.096,7.824 -0.288,11.088c-0.096,3.36 -0.144,7.104 -0.144,11.232c0,2.688 0.672,4.032 2.016,4.032l2.304,-0.144c0.768,-0.096 1.584,-0.144 2.448,-0.144c3.744,0 5.616,0.864 5.616,2.592c0,1.056 -0.24,1.944 -0.72,2.664c-0.48,0.72 -1.2,1.08 -2.16,1.08c-1.44,0 -2.544,-0.384 -3.312,-1.152l-4.608,-0.72l-0.72,0l-0.72,0.72l0,0.432c0.192,1.632 0.288,5.424 0.288,11.376c0,3.744 -0.048,7.152 -0.144,10.224l-0.144,10.224c0,3.744 0.144,7.584 0.432,11.52c0.096,2.208 0.576,3.672 1.44,4.392c0.864,0.72 2.448,1.08 4.752,1.08l2.592,-0.144c0.864,-0.096 1.824,-0.144 2.88,-0.144c2.784,0 4.176,0.624 4.176,1.872c0,1.728 -2.112,2.592 -6.336,2.592l-11.808,0c-1.728,0 -2.688,-1.008 -2.88,-3.024Z" style="fill-rule:nonzero;stroke:#000;stroke-width:0.24px;"/><path d="M337.11,260.462l-0.144,-5.328c-0.096,-1.536 -0.144,-3.264 -0.144,-5.184c0,-0.96 0.048,-1.776 0.144,-2.448l0.144,-2.592c0,-0.96 -0.192,-2.112 -0.576,-3.456c0,-6.432 -0.48,-18.384 -1.44,-35.856c-0.96,-16.896 -1.488,-28.368 -1.584,-34.416c-5.952,0 -9.936,-0.144 -11.952,-0.432c-1.92,-0.48 -2.88,-1.248 -2.88,-2.304c0.48,-1.056 1.392,-1.584 2.736,-1.584c2.88,0 7.056,0.192 12.528,0.576c4.992,0.48 9.168,0.72 12.528,0.72l3.024,0l3.024,-0.144c1.728,0 2.592,0.624 2.592,1.872c0,0.576 -0.312,1.032 -0.936,1.368c-0.624,0.336 -1.368,0.504 -2.232,0.504c-1.92,0 -3.936,-0.096 -6.048,-0.288l-6.192,-0.288c-0.384,0 -0.576,0.144 -0.576,0.432c-0.096,0.288 -0.144,1.2 -0.144,2.736c0,9.312 0.576,23.424 1.728,42.336c1.056,19.584 1.584,33.648 1.584,42.192c0,0.672 -0.408,1.296 -1.224,1.872c-0.816,0.576 -1.608,0.864 -2.376,0.864l-1.584,-1.152Z" style="fill-rule:nonzero;stroke:#000;stroke-width:0.24px;"/><path d="M420.63,263.27c-0.384,-0.336 -0.672,-1.224 -0.864,-2.664c-0.864,-7.008 -1.392,-11.376 -1.584,-13.104l-0.72,-5.76c-2.112,-0.48 -4.512,-0.72 -7.2,-0.72l-5.184,-0.288c-2.304,-0.288 -3.984,-0.432 -5.04,-0.432c-0.576,0 -0.912,0.24 -1.008,0.72c0,0.288 -0.048,0.432 -0.144,0.432l-0.288,2.88c-0.096,1.728 -0.624,5.184 -1.584,10.368c-0.48,2.592 -1.056,4.608 -1.728,6.048c-0.768,1.632 -1.488,2.448 -2.16,2.448c-0.576,0 -1.2,-0.264 -1.872,-0.792c-0.672,-0.528 -1.008,-1.08 -1.008,-1.656l0.144,-0.432l0.144,-0.432c1.728,-6.816 3.168,-13.584 4.32,-20.304l1.728,-8.928l1.728,-10.944c0,0 0.528,-3.168 1.584,-9.504c0.48,-2.592 1.344,-6.768 2.592,-12.528c1.344,-6.528 2.16,-10.992 2.448,-13.392c0.096,-0.288 0.288,-2.064 0.576,-5.328c0.384,-3.648 0.72,-6.336 1.008,-8.064c0.288,-2.496 0.576,-3.936 0.864,-4.32l1.008,0c0.288,0.096 0.624,0.144 1.008,0.144c1.152,0 2.016,-0.288 2.592,-0.864c0.672,0 1.272,0.216 1.8,0.648c0.528,0.432 0.792,0.936 0.792,1.512c0,4.608 0.336,9.888 1.008,15.84c0.384,3.072 0.672,5.616 0.864,7.632c1.056,12.384 3.744,35.616 8.064,69.696l0,0.432c0,0.96 -0.384,1.68 -1.152,2.16c-1.44,0 -2.352,-0.168 -2.736,-0.504Zm-3.888,-25.416c-0.96,-13.824 -2.784,-34.224 -5.472,-61.2l-7.776,38.448c-2.208,11.04 -3.312,18 -3.312,20.88c0,0.48 1.824,0.912 5.472,1.296c3.648,0.384 6.864,0.576 9.648,0.576l1.44,0Z" style="fill-rule:nonzero;stroke:#000;stroke-width:0.24px;"/></g><g id="intermediatry"><g><path d="M168.943,365.962c-0.32,0 -0.576,0.032 -0.768,0.096l-0.768,0c-1.408,0 -2.304,-0.32 -2.688,-0.96c0,-0.448 0.256,-0.832 0.768,-1.152l0.48,-0.48l2.784,0l0.384,-0.384l0.192,-0.864l0.096,-1.152c0,-3.904 -0.096,-7.392 -0.288,-10.464l-0.192,-3.552l-0.192,-7.008c0,-2.496 0.096,-6.24 0.288,-11.232l0.192,-11.136c0,-4.864 -0.16,-8.576 -0.48,-11.136c-0.576,-0.192 -1.536,-0.288 -2.88,-0.288l-1.056,0.096c-0.384,0.064 -0.8,0.096 -1.248,0.096c-1.216,0 -1.824,-0.544 -1.824,-1.632c0,-0.256 0.288,-0.512 0.864,-0.768c0.576,-0.256 1.056,-0.384 1.44,-0.384c2.432,0 4.864,0.128 7.296,0.384c1.472,0.064 2.944,0.352 4.416,0.864c1.152,0.384 1.728,0.928 1.728,1.632c0,0.128 -0.096,0.384 -0.288,0.768l-2.208,0.192c-0.448,-0.384 -1.376,-0.576 -2.784,-0.576l-0.48,0.288c0.192,0.576 0.288,2.272 0.288,5.088c0,4.224 -0.032,8.032 -0.096,11.424l-0.192,11.424c0,2.88 0.128,6.368 0.384,10.464c0.192,4.672 0.288,8.192 0.288,10.56l0,1.248c-0.064,0.448 -0.096,1.024 -0.096,1.728c0,1.472 0.096,2.368 0.288,2.688l-0.096,0.192c0,0.64 0.704,0.96 2.112,0.96c0.576,0 1.056,-0.032 1.44,-0.096l1.44,0c1.856,0 2.784,0.448 2.784,1.344c0,0.576 -0.192,1.04 -0.576,1.392c-0.384,0.352 -0.896,0.528 -1.536,0.528c-0.576,0 -1.088,-0.064 -1.536,-0.192c-0.512,-0.064 -1.056,-0.096 -1.632,-0.096c-0.384,0 -0.96,0.16 -1.728,0.48c-0.768,0.384 -1.344,0.576 -1.728,0.576c-1.472,0 -2.336,-0.32 -2.592,-0.96Z" style="fill-rule:nonzero;"/><path d="M212.479,366.73c-0.224,-0.384 -0.432,-0.96 -0.624,-1.728c-0.064,-0.512 -0.192,-0.96 -0.384,-1.344l0.096,-0.288c-0.512,-3.008 -1.6,-6.688 -3.264,-11.04l-1.728,-4.992c-0.128,-0.128 -0.736,-1.76 -1.824,-4.896l-0.768,-2.304c-5.76,-17.792 -9.376,-27.424 -10.848,-28.896c-0.512,1.728 -0.768,3.968 -0.768,6.72c0,1.472 0.032,2.752 0.096,3.84l0.096,3.744l-0.096,2.304c-0.064,0.704 -0.096,1.472 -0.096,2.304c0,1.408 0.064,2.624 0.192,3.648c0.128,2.048 0.192,3.072 0.192,3.072l-0.288,0c0,10.688 0.224,16.576 0.672,17.664l0,8.64c0.256,0.512 0.384,1.184 0.384,2.016c0,0.512 -0.176,0.96 -0.528,1.344c-0.352,0.384 -0.784,0.576 -1.296,0.576c-1.344,0 -2.016,-1.728 -2.016,-5.184l0.192,-3.072c0.128,-0.96 0.192,-2.016 0.192,-3.168c0,-3.072 -0.096,-7.68 -0.288,-13.824c-0.192,-6.144 -0.288,-10.752 -0.288,-13.824c0,-1.856 0.096,-4.704 0.288,-8.544c0.192,-3.776 0.288,-6.592 0.288,-8.448l0,-1.248c0,-3.136 0.576,-5.184 1.728,-6.144l0.288,0.288l0.96,-0.192c0.256,0.064 0.544,0.256 0.864,0.576c0.256,0.256 0.384,0.544 0.384,0.864l0.192,0.576c0,0.128 0.016,0.24 0.048,0.336c0.032,0.096 0.048,0.144 0.048,0.144c1.024,4.544 3.328,10.912 6.912,19.104c3.648,8.64 5.92,14.368 6.816,17.184c0.64,2.24 1.152,4.224 1.536,5.952c1.216,5.44 2.656,9.632 4.32,12.576l0.192,-0.288c1.472,-14.208 2.208,-31.648 2.208,-52.32l-0.096,-1.152c-0.064,-0.32 -0.096,-0.736 -0.096,-1.248c0,-1.344 0.448,-2.016 1.344,-2.016c0.576,0 1.072,0.288 1.488,0.864c0.416,0.576 0.624,1.216 0.624,1.92l0,6.432l-0.48,0.768c0,6.08 -0.352,16.064 -1.056,29.952c-0.704,13.888 -1.376,21.44 -2.016,22.656l-1.632,0.384l0,0.096l-0.096,-0.096l-0.96,0.288c-0.512,0 -0.88,-0.192 -1.104,-0.576Z" style="fill-rule:nonzero;"/><path d="M239.599,365.578l-0.096,-3.552c-0.064,-1.024 -0.096,-2.176 -0.096,-3.456c0,-0.64 0.032,-1.184 0.096,-1.632l0.096,-1.728c0,-0.64 -0.128,-1.408 -0.384,-2.304c0,-4.288 -0.32,-12.256 -0.96,-23.904c-0.64,-11.264 -0.992,-18.912 -1.056,-22.944c-3.968,0 -6.624,-0.096 -7.968,-0.288c-1.28,-0.32 -1.92,-0.832 -1.92,-1.536c0.32,-0.704 0.928,-1.056 1.824,-1.056c1.92,0 4.704,0.128 8.352,0.384c3.328,0.32 6.112,0.48 8.352,0.48l2.016,0l2.016,-0.096c1.152,0 1.728,0.416 1.728,1.248c0,0.384 -0.208,0.688 -0.624,0.912c-0.416,0.224 -0.912,0.336 -1.488,0.336c-1.28,0 -2.624,-0.064 -4.032,-0.192l-4.128,-0.192c-0.256,0 -0.384,0.096 -0.384,0.288c-0.064,0.192 -0.096,0.8 -0.096,1.824c0,6.208 0.384,15.616 1.152,28.224c0.704,13.056 1.056,22.432 1.056,28.128c0,0.448 -0.272,0.864 -0.816,1.248c-0.544,0.384 -1.072,0.576 -1.584,0.576l-1.056,-0.768Z" style="fill-rule:nonzero;"/><path d="M261.679,366.154l0,-1.248c0.064,-0.32 0.096,-0.704 0.096,-1.152l-0.384,-0.384c0.512,-1.344 0.768,-2.656 0.768,-3.936c0,-1.472 -0.096,-3.584 -0.288,-6.336l-0.192,-6.336c0,-3.2 0.096,-8 0.288,-14.4c0.256,-5.696 0.384,-10.528 0.384,-14.496l-0.192,-5.76c-0.128,-1.728 -0.192,-3.648 -0.192,-5.76c0,-0.96 0.224,-1.648 0.672,-2.064c0.448,-0.416 1.152,-0.624 2.112,-0.624c0.64,0 1.152,0.192 1.536,0.576c0.128,0.064 1.056,0.192 2.784,0.384c1.6,0.192 2.976,0.48 4.128,0.864c1.216,0.384 1.824,0.864 1.824,1.44c0,0.64 -0.608,1.28 -1.824,1.92c-3.648,-1.216 -6.24,-1.824 -7.776,-1.824l-0.48,0.576c0.064,0.576 0.096,1.952 0.096,4.128c0,2.752 -0.064,5.216 -0.192,7.392c-0.064,2.24 -0.096,4.736 -0.096,7.488c0,1.792 0.448,2.688 1.344,2.688l1.536,-0.096c0.512,-0.064 1.056,-0.096 1.632,-0.096c2.496,0 3.744,0.576 3.744,1.728c0,0.704 -0.16,1.296 -0.48,1.776c-0.32,0.48 -0.8,0.72 -1.44,0.72c-0.96,0 -1.696,-0.256 -2.208,-0.768l-3.072,-0.48l-0.48,0l-0.48,0.48l0,0.288c0.128,1.088 0.192,3.616 0.192,7.584c0,2.496 -0.032,4.768 -0.096,6.816l-0.096,6.816c0,2.496 0.096,5.056 0.288,7.68c0.064,1.472 0.384,2.448 0.96,2.928c0.576,0.48 1.632,0.72 3.168,0.72l1.728,-0.096c0.576,-0.064 1.216,-0.096 1.92,-0.096c1.856,0 2.784,0.416 2.784,1.248c0,1.152 -1.408,1.728 -4.224,1.728l-7.872,0c-1.152,0 -1.792,-0.672 -1.92,-2.016Z" style="fill-rule:nonzero;"/><path d="M301.039,368.074c-0.768,-0.832 -1.6,-3.04 -2.496,-6.624c-0.896,-3.584 -1.728,-7.616 -2.496,-12.096c-0.512,-3.648 -1.248,-7.264 -2.208,-10.848c-0.768,-3.2 -1.504,-4.8 -2.208,-4.8l-0.288,0c-1.408,0 -2.112,0.448 -2.112,1.344c0,4.608 0.256,11.616 0.768,21.024c0.256,5.76 0.544,9.12 0.864,10.08l-0.768,1.632l-1.344,0l-0.768,-0.768c-1.024,-29.568 -1.536,-49.728 -1.536,-60.48c0,-0.704 0.048,-1.28 0.144,-1.728c0.096,-0.448 0.304,-0.864 0.624,-1.248c0.256,-0.448 0.704,-0.672 1.344,-0.672c3.264,0 5.888,0.8 7.872,2.4c1.984,1.6 2.976,3.904 2.976,6.912l0,7.008c0,1.216 -0.4,2.848 -1.2,4.896c-0.8,2.048 -1.68,3.936 -2.64,5.664l-1.248,2.4c0.704,3.264 2.096,9.136 4.176,17.616c2.08,8.48 3.216,12.976 3.408,13.488c0.064,0.064 0.144,0.224 0.24,0.48c0.096,0.256 0.304,0.64 0.624,1.152c0.448,0.896 0.672,1.664 0.672,2.304c0,0.896 -0.352,1.344 -1.056,1.344l-1.344,-0.48Zm-8.064,-38.592c0.96,-1.216 1.728,-2.784 2.304,-4.704c1.024,-3.904 1.536,-7.008 1.536,-9.312c0,-1.472 -0.08,-2.688 -0.24,-3.648c-0.16,-0.96 -0.432,-1.984 -0.816,-3.072c-0.768,-2.24 -2.592,-3.36 -5.472,-3.36c-0.32,0 -0.576,0.272 -0.768,0.816c-0.192,0.544 -0.288,1.104 -0.288,1.68c0,4.288 0.064,8.16 0.192,11.616c0.064,3.456 0.096,7.328 0.096,11.616l0.192,0.192c1.216,0 2.304,-0.608 3.264,-1.824Z" style="fill-rule:nonzero;"/><path d="M350.191,365.77l0,-6.336c0,-9.216 -0.192,-16.416 -0.576,-21.6l-0.288,-3.552c-0.256,-1.6 -0.384,-3.008 -0.384,-4.224c0,-2.176 0.064,-4.16 0.192,-5.952l0.192,-5.952c0,-1.984 -0.128,-3.488 -0.384,-4.512c-1.28,0.896 -5.152,14.368 -11.616,40.416l-0.096,1.44c-0.192,1.6 -0.448,2.88 -0.768,3.84c-0.192,0.704 -0.464,1.248 -0.816,1.632c-0.352,0.384 -0.752,0.576 -1.2,0.576c-1.024,0 -1.76,-0.256 -2.208,-0.768c-0.448,-0.512 -0.672,-1.312 -0.672,-2.4c0,-1.728 -0.816,-6.208 -2.448,-13.44c-1.632,-7.232 -3.392,-14.176 -5.28,-20.832c-1.888,-6.656 -3.184,-10.336 -3.888,-11.04c-0.064,2.24 -0.32,7.52 -0.768,15.84c-0.896,14.72 -1.344,26.304 -1.344,34.752l0.096,3.84c-0.256,0.832 -0.928,1.248 -2.016,1.248c-0.192,0 -0.512,-0.176 -0.96,-0.528c-0.448,-0.352 -0.672,-0.624 -0.672,-0.816c0,-5.76 0.512,-15.872 1.536,-30.336c0.96,-13.44 1.44,-23.52 1.44,-30.24c0,-0.32 -0.064,-0.64 -0.192,-0.96c-0.192,-0.384 -0.288,-0.672 -0.288,-0.864c0,-0.96 0.832,-1.44 2.496,-1.44c1.088,0 1.728,0.48 1.92,1.44c0.256,1.28 0.384,2.24 0.384,2.88l0.096,1.152c0.32,1.664 1.248,4.224 2.784,7.68c1.216,2.752 2.144,5.152 2.784,7.2c0.384,1.536 0.736,2.784 1.056,3.744c1.024,3.712 1.696,6.464 2.016,8.256l1.248,2.496c0.192,0.96 0.576,2.528 1.152,4.704c0.576,2.432 0.992,4.416 1.248,5.952c0.256,1.536 0.384,3.008 0.384,4.416c0.704,-1.088 2.704,-7.632 6,-19.632c3.296,-12 5.232,-19.664 5.808,-22.992c0.064,-0.128 0.112,-0.304 0.144,-0.528c0.032,-0.224 0.08,-0.528 0.144,-0.912c0.128,-0.832 0.416,-2.08 0.864,-3.744c0.512,-1.28 1.28,-1.92 2.304,-1.92c0.448,0 0.96,0.192 1.536,0.576c0.576,0.384 0.864,0.768 0.864,1.152c0,26.688 0.416,40.8 1.248,42.336l0,4.992c-0.064,1.472 -0.096,3.168 -0.096,5.088c0,4.096 0.224,7.168 0.672,9.216c0.064,0.064 0.112,0.16 0.144,0.288c0.032,0.128 0.08,0.288 0.144,0.48c0.064,0.256 0.096,0.544 0.096,0.864c0,0.704 -0.208,1.408 -0.624,2.112c-0.416,0.704 -0.912,1.056 -1.488,1.056c-1.28,0 -1.92,-2.048 -1.92,-6.144Zm-1.248,-52.704l-0.096,0l-0.192,0.096l0.288,0.096l0,-0.192Z" style="fill-rule:nonzero;"/><path d="M368.527,366.154l0,-1.248c0.064,-0.32 0.096,-0.704 0.096,-1.152l-0.384,-0.384c0.512,-1.344 0.768,-2.656 0.768,-3.936c0,-1.472 -0.096,-3.584 -0.288,-6.336l-0.192,-6.336c0,-3.2 0.096,-8 0.288,-14.4c0.256,-5.696 0.384,-10.528 0.384,-14.496l-0.192,-5.76c-0.128,-1.728 -0.192,-3.648 -0.192,-5.76c0,-0.96 0.224,-1.648 0.672,-2.064c0.448,-0.416 1.152,-0.624 2.112,-0.624c0.64,0 1.152,0.192 1.536,0.576c0.128,0.064 1.056,0.192 2.784,0.384c1.6,0.192 2.976,0.48 4.128,0.864c1.216,0.384 1.824,0.864 1.824,1.44c0,0.64 -0.608,1.28 -1.824,1.92c-3.648,-1.216 -6.24,-1.824 -7.776,-1.824l-0.48,0.576c0.064,0.576 0.096,1.952 0.096,4.128c0,2.752 -0.064,5.216 -0.192,7.392c-0.064,2.24 -0.096,4.736 -0.096,7.488c0,1.792 0.448,2.688 1.344,2.688l1.536,-0.096c0.512,-0.064 1.056,-0.096 1.632,-0.096c2.496,0 3.744,0.576 3.744,1.728c0,0.704 -0.16,1.296 -0.48,1.776c-0.32,0.48 -0.8,0.72 -1.44,0.72c-0.96,0 -1.696,-0.256 -2.208,-0.768l-3.072,-0.48l-0.48,0l-0.48,0.48l0,0.288c0.128,1.088 0.192,3.616 0.192,7.584c0,2.496 -0.032,4.768 -0.096,6.816l-0.096,6.816c0,2.496 0.096,5.056 0.288,7.68c0.064,1.472 0.384,2.448 0.96,2.928c0.576,0.48 1.632,0.72 3.168,0.72l1.728,-0.096c0.576,-0.064 1.216,-0.096 1.92,-0.096c1.856,0 2.784,0.416 2.784,1.248c0,1.152 -1.408,1.728 -4.224,1.728l-7.872,0c-1.152,0 -1.792,-0.672 -1.92,-2.016Z" style="fill-rule:nonzero;"/><path d="M394.255,364.81c-0.256,-4.416 -0.384,-9.984 -0.384,-16.704c0,-4.224 0.032,-8 0.096,-11.328l0.096,-11.328c0,-4.864 -0.128,-10.88 -0.384,-18.048c-0.576,-0.512 -0.864,-1.152 -0.864,-1.92c0,-0.448 0.272,-0.912 0.816,-1.392c0.544,-0.48 1.04,-0.72 1.488,-0.72c0.512,0 0.992,0.256 1.44,0.768l1.056,0.864c0.384,0.192 1.12,0.384 2.208,0.576c1.088,0.192 1.856,0.384 2.304,0.576c0.96,0.512 2.24,1.504 3.84,2.976c1.536,1.536 2.592,2.496 3.168,2.88l-0.096,0.192c0.064,0.384 0.544,1.216 1.44,2.496c0.704,0.96 1.28,1.856 1.728,2.688c1.024,2.944 1.536,6.752 1.536,11.424c0,0.832 -0.032,1.568 -0.096,2.208l0,3.072l-0.096,0.96c0,1.216 0.192,2.176 0.576,2.88c-0.384,2.048 -0.864,5.92 -1.44,11.616c-0.192,1.664 -0.512,3.424 -0.96,5.28c-0.448,1.856 -0.992,3.392 -1.632,4.608c-1.664,3.136 -4.448,5.792 -8.352,7.968l-6.72,0c-0.512,0 -0.768,-0.864 -0.768,-2.592Zm7.104,-0.192c0.448,-0.512 0.864,-0.928 1.248,-1.248c0,0 0.224,-0.16 0.672,-0.48l0.768,-0.672c4.48,-4.032 6.72,-11.712 6.72,-23.04l0,-1.824c-0.064,-0.512 -0.096,-1.056 -0.096,-1.632l-0.384,-9.696c-0.192,-3.712 -1.312,-7.552 -3.36,-11.52c-0.96,-1.984 -2.256,-3.6 -3.888,-4.848c-1.632,-1.248 -3.344,-1.872 -5.136,-1.872c-0.768,0 -1.152,5.92 -1.152,17.76c0,13.696 0.384,25.632 1.152,35.808l-0.096,1.824l0.384,0.192l0.192,1.248l2.976,0Z" style="fill-rule:nonzero;"/><path d="M429.199,365.962c-0.32,0 -0.576,0.032 -0.768,0.096l-0.768,0c-1.408,0 -2.304,-0.32 -2.688,-0.96c0,-0.448 0.256,-0.832 0.768,-1.152l0.48,-0.48l2.784,0l0.384,-0.384l0.192,-0.864l0.096,-1.152c0,-3.904 -0.096,-7.392 -0.288,-10.464l-0.192,-3.552l-0.192,-7.008c0,-2.496 0.096,-6.24 0.288,-11.232l0.192,-11.136c0,-4.864 -0.16,-8.576 -0.48,-11.136c-0.576,-0.192 -1.536,-0.288 -2.88,-0.288l-1.056,0.096c-0.384,0.064 -0.8,0.096 -1.248,0.096c-1.216,0 -1.824,-0.544 -1.824,-1.632c0,-0.256 0.288,-0.512 0.864,-0.768c0.576,-0.256 1.056,-0.384 1.44,-0.384c2.432,0 4.864,0.128 7.296,0.384c1.472,0.064 2.944,0.352 4.416,0.864c1.152,0.384 1.728,0.928 1.728,1.632c0,0.128 -0.096,0.384 -0.288,0.768l-2.208,0.192c-0.448,-0.384 -1.376,-0.576 -2.784,-0.576l-0.48,0.288c0.192,0.576 0.288,2.272 0.288,5.088c0,4.224 -0.032,8.032 -0.096,11.424l-0.192,11.424c0,2.88 0.128,6.368 0.384,10.464c0.192,4.672 0.288,8.192 0.288,10.56l0,1.248c-0.064,0.448 -0.096,1.024 -0.096,1.728c0,1.472 0.096,2.368 0.288,2.688l-0.096,0.192c0,0.64 0.704,0.96 2.112,0.96c0.576,0 1.056,-0.032 1.44,-0.096l1.44,0c1.856,0 2.784,0.448 2.784,1.344c0,0.576 -0.192,1.04 -0.576,1.392c-0.384,0.352 -0.896,0.528 -1.536,0.528c-0.576,0 -1.088,-0.064 -1.536,-0.192c-0.512,-0.064 -1.056,-0.096 -1.632,-0.096c-0.384,0 -0.96,0.16 -1.728,0.48c-0.768,0.384 -1.344,0.576 -1.728,0.576c-1.472,0 -2.336,-0.32 -2.592,-0.96Z" style="fill-rule:nonzero;"/><path d="M466.447,367.45c-0.256,-0.224 -0.448,-0.816 -0.576,-1.776c-0.576,-4.672 -0.928,-7.584 -1.056,-8.736l-0.48,-3.84c-1.408,-0.32 -3.008,-0.48 -4.8,-0.48l-3.456,-0.192c-1.536,-0.192 -2.656,-0.288 -3.36,-0.288c-0.384,0 -0.608,0.16 -0.672,0.48c0,0.192 -0.032,0.288 -0.096,0.288l-0.192,1.92c-0.064,1.152 -0.416,3.456 -1.056,6.912c-0.32,1.728 -0.704,3.072 -1.152,4.032c-0.512,1.088 -0.992,1.632 -1.44,1.632c-0.384,0 -0.8,-0.176 -1.248,-0.528c-0.448,-0.352 -0.672,-0.72 -0.672,-1.104l0.192,-0.576c1.152,-4.544 2.112,-9.056 2.88,-13.536l1.152,-5.952l1.152,-7.296c0,0 0.352,-2.112 1.056,-6.336c0.32,-1.728 0.896,-4.512 1.728,-8.352c0.896,-4.352 1.44,-7.328 1.632,-8.928c0.064,-0.192 0.192,-1.376 0.384,-3.552c0.256,-2.432 0.48,-4.224 0.672,-5.376c0.192,-1.664 0.384,-2.624 0.576,-2.88l0.672,0c0.192,0.064 0.416,0.096 0.672,0.096c0.768,0 1.344,-0.192 1.728,-0.576c0.448,0 0.848,0.144 1.2,0.432c0.352,0.288 0.528,0.624 0.528,1.008c0,3.072 0.224,6.592 0.672,10.56c0.256,2.048 0.448,3.744 0.576,5.088c0.704,8.256 2.496,23.744 5.376,46.464l0,0.288c0,0.64 -0.256,1.12 -0.768,1.44c-0.96,0 -1.568,-0.112 -1.824,-0.336Zm-2.592,-16.944c-0.64,-9.216 -1.856,-22.816 -3.648,-40.8l-5.184,25.632c-1.472,7.36 -2.208,12 -2.208,13.92c0,0.32 1.216,0.608 3.648,0.864c2.432,0.256 4.576,0.384 6.432,0.384l0.96,0Z" style="fill-rule:nonzero;"/><path d="M494.095,368.074c-0.768,-0.832 -1.6,-3.04 -2.496,-6.624c-0.896,-3.584 -1.728,-7.616 -2.496,-12.096c-0.512,-3.648 -1.248,-7.264 -2.208,-10.848c-0.768,-3.2 -1.504,-4.8 -2.208,-4.8l-0.288,0c-1.408,0 -2.112,0.448 -2.112,1.344c0,4.608 0.256,11.616 0.768,21.024c0.256,5.76 0.544,9.12 0.864,10.08l-0.768,1.632l-1.344,0l-0.768,-0.768c-1.024,-29.568 -1.536,-49.728 -1.536,-60.48c0,-0.704 0.048,-1.28 0.144,-1.728c0.096,-0.448 0.304,-0.864 0.624,-1.248c0.256,-0.448 0.704,-0.672 1.344,-0.672c3.264,0 5.888,0.8 7.872,2.4c1.984,1.6 2.976,3.904 2.976,6.912l0,7.008c0,1.216 -0.4,2.848 -1.2,4.896c-0.8,2.048 -1.68,3.936 -2.64,5.664l-1.248,2.4c0.704,3.264 2.096,9.136 4.176,17.616c2.08,8.48 3.216,12.976 3.408,13.488c0.064,0.064 0.144,0.224 0.24,0.48c0.096,0.256 0.304,0.64 0.624,1.152c0.448,0.896 0.672,1.664 0.672,2.304c0,0.896 -0.352,1.344 -1.056,1.344l-1.344,-0.48Zm-8.064,-38.592c0.96,-1.216 1.728,-2.784 2.304,-4.704c1.024,-3.904 1.536,-7.008 1.536,-9.312c0,-1.472 -0.08,-2.688 -0.24,-3.648c-0.16,-0.96 -0.432,-1.984 -0.816,-3.072c-0.768,-2.24 -2.592,-3.36 -5.472,-3.36c-0.32,0 -0.576,0.272 -0.768,0.816c-0.192,0.544 -0.288,1.104 -0.288,1.68c0,4.288 0.064,8.16 0.192,11.616c0.064,3.456 0.096,7.328 0.096,11.616l0.192,0.192c1.216,0 2.304,-0.608 3.264,-1.824Z" style="fill-rule:nonzero;"/><path d="M512.815,367.978c-0.32,-0.256 -0.512,-0.48 -0.576,-0.672c0.576,-1.536 0.864,-7.136 0.864,-16.8c0,-1.856 -0.096,-4.512 -0.288,-7.968l-0.48,-6.816l-0.576,-1.248l0.288,-1.152c-0.384,-0.896 -0.96,-2.4 -1.728,-4.512c-0.768,-2.112 -1.536,-4.256 -2.304,-6.432c-2.304,-6.08 -3.808,-10.464 -4.512,-13.152c-0.384,-1.28 -0.672,-2.464 -0.864,-3.552l1.344,-1.056c0.64,0.128 1.568,2.176 2.784,6.144c0.96,2.816 1.824,5.6 2.592,8.352l1.152,3.648c1.152,3.968 1.984,6.016 2.496,6.144l0.384,-1.728l-0.192,-0.48c0.512,-0.64 1.152,-2.912 1.92,-6.816c0.832,-4.48 1.632,-8.256 2.4,-11.328c0.832,-3.584 1.664,-5.376 2.496,-5.376c0.32,0 0.608,0.096 0.864,0.288c0.256,0.192 0.384,0.416 0.384,0.672c0,0.96 -0.96,4.736 -2.88,11.328c-0.96,3.136 -1.76,6.08 -2.4,8.832c-0.768,3.264 -1.152,6.176 -1.152,8.736c0.32,0.64 0.48,1.184 0.48,1.632c0,0.32 -0.096,0.768 -0.288,1.344c-0.192,0.576 -0.288,1.056 -0.288,1.44c0,0.32 0.128,1.76 0.384,4.32c0.256,1.728 0.384,3.2 0.384,4.416c0,2.816 0.032,5.344 0.096,7.584l0,8.064c0,4.352 -0.672,6.528 -2.016,6.528c-0.192,0 -0.448,-0.128 -0.768,-0.384Z" style="fill-rule:nonzero;"/></g><path d="M322.515,149.313c0,-24.329 -32.538,-47.405 -32.538,-72.307" style="fill:none;stroke:#000;stroke-width:2px;stroke-linecap:round;stroke-miterlimit:1.5;"/><path d="M208.698,186.109c-30.574,0 -62.151,-7.194 -83.883,-28.926" style="fill:none;stroke:#000;stroke-width:2px;stroke-linecap:round;stroke-miterlimit:1.5;"/><path d="M163.416,287.31c-7.755,0 -50.531,1.972 -50.531,-8.59" style="fill:none;stroke:#000;stroke-width:2px;stroke-linecap:round;stroke-miterlimit:1.5;"/><path d="M424.111,142.403c0,-10.937 3.025,-58.487 15.911,-58.487" style="fill:none;stroke:#000;stroke-width:2px;stroke-linecap:round;stroke-miterlimit:1.5;"/><path d="M508.104,232.744c0,-12.18 74.826,-108.375 81.63,-108.375" style="fill:none;stroke:#000;stroke-width:2px;stroke-linecap:round;stroke-miterlimit:1.5;"/><path d="M557.426,327.722l87.404,0" style="fill:none;stroke:#000;stroke-width:2px;stroke-linecap:round;stroke-miterlimit:1.5;"/><path d="M496.686,399.716c0,19.496 11.418,37.423 11.418,56.918" style="fill:none;stroke:#000;stroke-width:2px;stroke-linecap:round;stroke-miterlimit:1.5;"/><path d="M405.018,384.037c0,20.672 1.107,41.277 -4.335,61.464c-2.352,8.723 -7.232,16.631 -7.232,25.306" style="fill:none;stroke:#000;stroke-width:2px;stroke-linecap:round;stroke-miterlimit:1.5;"/><path d="M193.148,378.245c-12.659,0 -53.881,52.442 -66.524,65.084" style="fill:none;stroke:#000;stroke-width:2px;stroke-linecap:round;stroke-miterlimit:1.5;"/><path d="M275.957,379.319c0,19.349 7.869,35.733 12.299,53.427c10.501,41.943 9.395,88.403 9.395,131.6" style="fill:none;stroke:#000;stroke-width:2px;stroke-linecap:round;stroke-miterlimit:1.5;"/><path d="M277.576,549.248c16.796,0 18.717,13.304 18.717,29.65c0,1.683 2.771,11.522 6.337,7.956c8.76,-8.76 15.028,-45.472 34.709,-45.472" style="fill:none;stroke:#000;stroke-width:2px;stroke-linecap:round;stroke-miterlimit:1.5;"/><path d="M259.106,614.418c0,-8.88 8.471,-19.804 3.256,-30.214c-3.328,-6.643 -15.152,-13.394 -20.214,-15.921c-2.379,-1.187 -2.678,-5.281 -3.981,-6.149c-2.003,-1.336 -20.666,-3.244 -23.792,-1.083c-2.537,1.755 -6.082,8.55 -7.956,12.299c-9.474,18.948 -24.346,32.802 -9.365,55.19c1.171,1.749 19.065,0 21.619,0" style="fill:none;stroke:#000;stroke-width:2px;stroke-linecap:round;stroke-miterlimit:1.5;"/><path d="M259.774,617.238c6.379,0 15.808,-4.123 21.663,-2.169c1.594,0.532 9.38,7.131 11.444,5.067c4.586,-4.586 13.622,-17.513 20.219,-20.218c6.225,-2.553 67.404,-19.752 71.095,-15.917c4.912,5.103 -2.048,24.459 -7.957,26.828c-7.687,3.081 -15.665,2.924 -23.157,5.425c-6.201,2.069 -0.733,12.91 -4.338,16.515c-5.648,5.648 -22.427,3.83 -26.73,7.956c-0.34,0.326 1.9,2.222 1.042,3.936c-1.067,2.129 -3.151,3.15 -4.343,4.342c-2.765,2.765 -3.53,24.396 -5.787,30.027c-2.21,5.512 1.884,13.53 0,19.177c-3.002,8.993 -4.298,22.301 -4.298,31.703" style="fill:none;stroke:#000;stroke-width:2px;stroke-linecap:round;stroke-miterlimit:1.5;"/><path d="M315.456,721.994c0,-3.932 27.641,-38.304 29.986,-38.304" style="fill:none;stroke:#000;stroke-width:2px;stroke-linecap:round;stroke-miterlimit:1.5;"/><path d="M340.013,668.135c0,-7.859 4.513,-16.318 7.236,-23.112c0.243,-0.605 1.945,-2.736 2.536,-2.169c1.807,1.732 5.212,10.486 6.874,12.978c0.808,1.213 0.72,3.51 0.72,5.254c0,1.042 0,4.168 0,3.126c0,-12.773 25.365,-33.447 17.236,-9.088c-1.352,4.049 -0.712,7.948 -3.981,11.216c-0.936,0.936 1.872,-1.872 2.808,-2.808c1.602,-1.601 13.552,-10.122 15.559,-7.236c1.574,2.263 -16.132,15.725 -18.814,18.408c-1.722,1.721 -1.077,2.128 -3.211,2.128" style="fill:none;stroke:#000;stroke-width:2px;stroke-linecap:round;stroke-miterlimit:1.5;"/><path d="M221.493,705.325c0,-2.638 -24.984,-16.614 -29.302,-20.939c-2.728,-2.734 -6.876,-20.583 -9.043,-18.408" style="fill:none;stroke:#000;stroke-width:2px;stroke-linecap:round;stroke-miterlimit:1.5;"/><path d="M205.577,656.845c-9.911,0 -13.024,-26.726 -13.024,-26.726l0,3.211c0,7.624 -2.563,6.532 -5.787,9.768c-4.003,4.018 -6.023,-1.9 -6.023,-6.512c0,-1.085 0,-4.341 0,-3.256c0,3.655 1.609,12.283 0,15.514c-0.854,1.715 -3.485,7.147 -5.698,7.147c-7.817,0 -8.98,-2.198 -14.834,-5.063c-0.669,-0.327 -1.912,-3.245 -1.042,-3.85c1.323,-0.92 2.175,4.643 2.487,5.425c1.779,4.462 3.467,16.527 8.241,18.915c2.312,1.156 11.298,10.839 11.298,12.561" style="fill:none;stroke:#000;stroke-width:2px;stroke-linecap:round;stroke-miterlimit:1.5;"/><path d="M226.023,636.033c0,45.75 -0.72,91.467 -0.72,137.387" style="fill:none;stroke:#000;stroke-width:2px;stroke-linecap:round;stroke-miterlimit:1.5;"/><path d="M297.525,748.053l0,56.033" style="fill:none;stroke:#000;stroke-width:2px;stroke-linecap:round;stroke-miterlimit:1.5;"/><path d="M333.803,669.055c-12.866,0 -22.934,4.015 -35.046,7.035c-1.89,0.471 -4.939,2.558 -6.396,2.558" style="fill:none;stroke:#000;stroke-width:2px;stroke-linecap:round;stroke-miterlimit:1.5;"/><path d="M278.014,649.637c-0.966,0 -4.379,4.549 -5.516,5.117c-2.645,1.322 -2.685,7.347 -3.438,9.992c-0.934,3.281 -0.854,15.613 0.32,18.548c0.41,1.025 2.051,1.225 2.639,1.519c2.482,1.241 4.467,4.05 7.994,2.878c8.297,-2.759 6.692,-17.931 5.596,-24.524c-0.443,-2.665 0.353,-7.312 -1.119,-9.513c-1.882,-2.812 -3.381,-1.612 -6.217,-2.558c-0.295,-0.099 -2.478,-1.688 -2.478,-0.321" style="fill:none;stroke:#000;stroke-width:2px;stroke-linecap:round;stroke-miterlimit:1.5;"/><path d="M241.508,648.777c-0.795,0 -5.792,5.021 -6.626,5.996c-1.376,1.608 -0.941,3.618 -1.678,5.756c-2.286,6.628 -2.676,15.197 -0.96,21.984c0.399,1.576 -0.393,3.451 0,5.028c0.892,3.573 3.765,3.721 6.715,5.196c0.671,0.335 2.433,1.583 3.358,1.12c1.078,-0.541 1.242,-1.549 2.318,-2.319c1.645,-1.176 6.749,-5.937 7.276,-7.515c2.737,-8.2 4.871,-19.988 0.879,-27.971c-0.505,-1.01 -4.36,-6.623 -5.117,-6.876c-1.148,-0.383 -8.154,-0.177 -8.154,1.35" style="fill:none;stroke:#000;stroke-width:2px;stroke-linecap:round;stroke-miterlimit:1.5;"/><path d="M246.075,669.144c-3.67,0 -4.105,7.715 -1.829,8.855c2.813,1.409 6.441,-8.319 1.038,-9.274c-1.485,-0.262 -1.503,0.294 -2.078,1.199c-2.008,3.162 -1.699,4.197 0.88,6.776c2.283,2.284 3.673,-4.075 3.028,-4.397c-0.391,-0.195 -3.237,-1.7 -3.678,-1.039c-0.187,0.28 -0.606,3.072 -0.24,3.438c1.896,1.896 3.718,-1.188 3.118,-3.038c-0.098,-0.302 -1.932,-0.435 -2.068,-0.23c-0.331,0.496 0,2.142 0,2.798" style="fill:none;stroke:#000;stroke-width:2px;stroke-linecap:round;stroke-miterlimit:1.5;"/><path d="M254.619,672.783c0,1.096 2.306,1.954 3.198,2.548c2.322,1.551 7.794,4.021 10.712,2.559c0.407,-0.204 0.683,-0.935 0.96,-1.12c0.315,-0.21 1.759,-1.015 1.759,-1.198" style="fill:none;stroke:#000;stroke-width:2px;stroke-linecap:round;stroke-miterlimit:1.5;"/><path d="M278.743,669.905c0,1.032 -1.05,1.895 -1.439,2.868c-1.009,2.522 3.938,0.91 2.059,-0.969c-1.627,-1.627 -2.976,3.622 -1.608,4.308c1.698,0.851 2.397,-4.48 1.839,-5.596c-1.086,-2.171 -3.038,2.627 -3.038,3.358" style="fill:none;stroke:#000;stroke-width:2px;stroke-linecap:round;stroke-miterlimit:1.5;"/></g></svg>