<?xml version="1.0" encoding="UTF-8" standalone="no"?><!DOCTYPE svg PUBLIC "-//W3C//DTD SVG 1.1//EN" "http://www.w3.org/Graphics/SVG/1.1/DTD/svg11.dtd"><svg width="100%" height="100%" viewBox="0 0 585 841" version="1.1" xmlns="http://www.w3.org/2000/svg" xmlns:xlink="http://www.w3.org/1999/xlink" xml:space="preserve" xmlns:serif="http://www.serif.com/" style="fill-rule:evenodd;clip-rule:evenodd;stroke-linecap:round;stroke-linejoin:round;stroke-miterlimit:1.5;"><rect id="ab2inter" x="0" y="0" width="584.587" height="840.491" style="fill:none;"/><g><g id="birthmom"><path d="M278.81,483.123c0,-5.481 3.482,-11.171 4.398,-16.66c1.211,-7.256 -1.17,-15.499 0.605,-22.594c1.774,-7.087 3.523,-13.844 5.309,-21.076c0.164,-0.666 2.454,-2.527 3.014,-3.506c2.549,-4.461 4.448,-9.815 6.671,-14.253c3.948,-7.882 8.809,-15.674 13.799,-22.746c2.122,-3.006 3.504,-6.828 4.851,-9.533c0.313,-0.628 0,-2.105 0,-2.105c0,0 -0.643,0.206 -0.873,0.437c-1.242,1.241 -4.342,4.007 -2.559,7.587c3.292,6.608 2.122,17.947 2.122,25.473c0,23.622 1.668,47.353 1.668,70.964" style="fill:none;stroke:#000;stroke-width:2px;"/><path d="M297.098,490.76c0,-4.349 1.824,-6.38 2.577,-10.143c1.694,-8.462 -1.704,-19.343 4.397,-26.667c0.363,-0.435 2.596,1.854 3.166,2.425c4.469,4.477 5.61,14.248 5.61,21.684" style="fill:none;stroke:#000;stroke-width:2px;"/><path d="M338.474,487.022c-5.65,0 -4.381,-10.631 -3.906,-13.949c1.878,-13.135 13.64,-20.675 17.134,-32.904c1.243,-4.351 2.427,-8.5 2.427,-13.325c0,-1.145 -0.082,4.127 -0.892,3.317c-0.977,-0.977 -0.257,-7.303 0.42,-8.659c1.316,-2.633 3.527,-4.671 4.735,-7.091c2.976,-5.965 3.787,-13.495 5.913,-19.865c1.155,-3.459 3.684,-18.31 7.26,-18.31c0.673,0 -1.326,0.434 -1.801,0.909c-0.782,0.782 -0.704,4.136 -0.454,5.138c0.487,1.952 1.28,2.884 2.105,4.53c1.711,3.415 1.33,8.793 2.274,12.567c2.538,10.145 4.438,21.593 9.098,30.914c1.251,2.503 -0.386,6.784 0.302,9.536c1.211,4.839 2.165,10.594 2.881,15.617c1.087,7.631 0.911,15.369 0.911,23.2c0,0.593 0.391,1.346 0.89,1.346" style="fill:none;stroke:#000;stroke-width:2px;"/><path d="M351.737,485.698c0,-4.056 4.198,-7.895 6.418,-11.066c4.282,-6.116 8.557,-12.59 11.427,-19.538c0.318,-0.769 2.795,-5.339 2.821,-5.995c0.01,-0.251 -0.322,0.394 -0.415,0.626c-0.272,0.683 -0.303,1.592 -0.211,2.328c0.214,1.707 1.14,3.672 1.622,5.36c0.933,3.264 2.546,6.459 3.104,9.805c0.258,1.545 0.097,4.823 1.261,5.987" style="fill:none;stroke:#000;stroke-width:2px;"/><path d="M438.565,422.341c0,2.016 -3.345,4.975 -4.444,6.348c-3.579,4.475 -7.558,8.375 -10.721,13.119c-0.161,0.242 -3.808,4.744 -3.808,4.797" style="fill:none;stroke:#000;stroke-width:2px;"/><path d="M311.499,541.008c-2.349,0 -6.733,-6.133 -8.958,-7.618c-1.8,-1.201 -4.362,-3.789 -6.419,-4.302c-0.855,-0.214 -2.525,0.146 -3.235,-0.212c-2.989,-1.508 -5.748,-3.578 -8.747,-5.079c-3.208,-1.605 -7.409,-3.022 -9.945,-5.572" style="fill:none;stroke:#000;stroke-width:2px;"/><path d="M303.757,542.709c-5.269,0 -10.331,1.26 -15.588,1.552c-2.685,0.149 -5.421,0 -8.112,0c-1.164,0 -6.489,0.787 -6.489,1.27" style="fill:none;stroke:#000;stroke-width:2px;"/><path d="M388.125,523.47c-2.487,0 -5.184,-0.279 -7.609,0.423c-3.759,1.087 -5.967,3.575 -9.241,5.291c-4.838,2.536 -9.497,6.018 -14.106,9.028c-2.555,1.668 -5.079,3.385 -7.618,5.078c-0.424,0.283 -2.822,1.401 -2.822,2.116" style="fill:none;stroke:#000;stroke-width:2px;"/><path d="M389.544,530.162c-6.757,0 -13.62,-0.317 -20.314,0.353c-5.729,0.574 -11.294,2.962 -17.069,2.962" style="fill:none;stroke:#000;stroke-width:2px;"/><path d="M319.018,517.906c-2.672,-1.336 -4.831,-3.854 -7.318,-5.422c-3.558,-2.243 -13.064,-0.439 -16.717,0.776c-1.363,0.453 -1.884,2.208 -2.61,3.244c-1.125,1.607 -4.801,6.862 -5.291,8.817c-0.265,1.059 0.951,2.349 0.212,3.368c-1.811,2.501 -6.076,8.506 -6.771,11.286c-0.601,2.401 -0.211,5.27 -0.211,7.759c0,2.614 -0.519,5.831 0.107,8.339c0.548,2.193 1.894,4.496 2.925,6.473c0.359,0.687 0.333,1.633 0.635,2.232c2.792,5.531 9.498,9.087 14.883,11.779c1.082,0.541 5.866,0 7.194,0c2.718,0 5.954,0.42 8.484,-0.846c1.44,-0.721 2.823,-3.176 3.95,-4.303c6.181,-6.181 8.93,-12.73 11.074,-21.301c0.861,-3.44 0,-9.453 0,-12.97c0,-4.599 -0.565,-9.592 -1.834,-14.037c-0.333,-1.164 -0.762,-4.02 -2.115,-4.02" style="fill:none;stroke:#000;stroke-width:2px;"/><path d="M375.341,511.321c-3.841,0 -8.792,-0.807 -12.397,0.635c-0.935,0.374 -1.695,1.542 -2.398,2.257c-3.587,3.646 -3.702,3.93 -5.714,8.958c-0.528,1.321 -1.131,3.261 -1.904,4.443c-0.107,0.164 -0.414,-0.609 -0.414,-0.414c0,5.124 -1.2,10.008 -1.2,15.148c0,7.577 1.244,11.893 4.797,18.339c0.821,1.49 1.558,3.409 3.244,4.083c2.175,0.87 9.425,-0.343 12.061,-0.636c4.836,-0.538 9.258,-1.833 13.597,-4.003c0.192,-0.096 0.053,0.762 0.203,0.61c4.665,-4.713 7.091,-11.499 6.136,-18.199c-0.184,-1.295 -1.03,-2.459 -1.199,-3.808c-0.694,-5.549 -4.053,-11.227 -8.393,-14.928c-0.837,-0.714 -3.384,-3.457 -4.374,-3.457" style="fill:none;stroke:#000;stroke-width:2px;"/><path d="M335.853,584.882c0,3.783 -3.61,6.708 -1.975,10.791c0.133,0.33 0.369,1.248 0.776,1.411c1.746,0.695 1.595,-2.262 1.764,-3.104c0.635,-3.175 3.333,-6.448 -0.175,-6.448c-0.443,0 -0.523,1.318 -0.601,1.511c-0.409,0.997 -2.648,9.648 0.155,8.246c0.591,-0.296 0.921,-1.909 0.974,-2.462c0.181,-1.9 0.954,-10.073 -2.822,-8.817c-3.136,1.043 -1.676,9.976 -1.069,12.102c0.182,0.635 0.218,2.842 0.928,3.133c1.186,0.487 1.815,-2.166 2.107,-2.751c1.369,-2.74 3.315,-5.659 3.315,-8.817c0,-1.25 -0.015,-3.244 -1.763,-3.244" style="fill:none;stroke:#000;stroke-width:2px;"/><path d="M380.061,541.299c0,2.169 -3.21,9.178 0.706,10.298c0.699,0.2 1.099,-2.273 1.199,-2.609c0.908,-3.027 1.327,-3.837 -1.34,-5.361c-0.341,-0.195 -1.611,-0.806 -2.045,-0.493c-0.373,0.268 -0.506,0.882 -0.635,1.269c-0.729,2.188 1.363,2.085 3.103,3.245c0.252,0.167 1.921,1.432 2.327,1.269c0.594,-0.238 0.776,-2.792 0.776,-3.315c0,-2.366 0.519,-4.584 -2.116,-5.572c-7.42,-2.783 -6.687,8.274 -2.821,9.381c1.444,0.413 6.574,-2.657 5.643,-4.232c-1.134,-1.918 -3.862,-3.633 -5.713,-4.867c-0.451,-0.3 -1.677,0.254 -1.905,0.635c-0.935,1.565 0.735,6.537 2.186,7.265c1.284,0.643 3.774,-1.556 3.104,-2.892c-0.456,-0.912 -4.465,-0.325 -4.373,-0.141c0.149,0.298 1.087,0.453 1.411,0.775" style="fill:none;stroke:#000;stroke-width:2px;"/><path d="M320,548.432c-0.748,0 -2.081,-0.609 -2.892,-0.212c-0.599,0.293 -0.129,2.873 -0.062,3.377c0.338,2.535 0.437,3.484 3.033,3.809c0.47,0.059 1.824,0.531 2.328,0.212c2.47,-1.566 -3.369,-9.181 -5.925,-4.585c-0.6,1.078 1.39,4.238 2.539,3.95c0.522,-0.131 2.534,-3.133 1.622,-3.738c-1.659,-1.1 -1.929,2.513 -0.149,1.622c0.421,-0.211 0.954,-0.567 1.269,-0.917c1.635,-1.817 -1.211,-3.553 -2.398,-4.444c-0.238,-0.178 -1.567,-0.901 -1.904,-0.564c-2.116,2.116 -1.064,5.937 0.564,8.165c0.813,1.112 2.683,2.959 4.373,2.116c1.161,-0.579 0.474,-3.06 0.635,-4.02c0.164,-0.987 1.643,-3.789 0.987,-4.726c-0.855,-1.224 -5.456,-1.252 -6.63,-0.917c-1.048,0.299 -2.28,1.224 -2.963,1.905c-0.434,0.432 0.364,2.638 0.424,2.891c0.605,2.542 1.549,3.009 3.597,4.374c0.396,0.264 1.99,1.145 2.539,0.705c1.206,-0.967 2.346,-8.958 -0.705,-8.958" style="fill:none;stroke:#000;stroke-width:2px;"/><path d="M371.908,605.964c-6.34,0 -12.313,1.253 -18.491,1.253c-0.524,0 -0.695,-0.215 -0.695,0.418" style="fill:none;stroke:#000;stroke-width:2px;"/><path d="M306.277,613.445c-5.348,0 -12.024,-0.986 -17.066,0.697c-0.535,0.178 -0.834,-0.233 -0.834,0.401" style="fill:none;stroke:#000;stroke-width:2px;"/><path d="M260.127,603.131c0,-4.906 -10.811,-17.184 -13.496,-22.942c-1.424,-3.053 -5.247,-15.726 -7.098,-15.726" style="fill:none;stroke:#000;stroke-width:2px;"/><path d="M248.439,548.355c0,-0.828 -6.205,-19.112 -6.959,-20.995c-1.01,-2.527 -1.512,-11.212 -3.06,-10.299c-1.63,0.961 -1.823,6.105 -2.905,7.916c-1.756,2.937 -5.353,8.346 -8.071,10.158c-0.863,0.575 -1.589,-3.451 -2.071,-4.175c-1.527,-2.291 -7.931,-5.724 -10.559,-3.896c-1.925,1.338 -6.414,22.096 -6.68,24.492c-0.074,0.675 0.658,7.374 0,7.775c-3.818,2.331 -12.5,-1.534 -15.708,-3.062c-1.346,-0.641 -2.368,-2.226 -3.757,-2.644c-0.448,-0.134 -6.78,-0.765 -6.262,-1.947c0.12,-0.274 4.413,6.355 4.576,6.68c1.796,3.591 3.854,6.807 6.261,10.018c8.061,10.749 17.005,21.291 31.294,21.291" style="fill:none;stroke:#000;stroke-width:2px;"/><path d="M235.253,589.127c11.03,11.03 18.255,26.931 25.17,40.757c2.637,5.272 5.181,15.909 9.184,19.897" style="fill:none;stroke:#000;stroke-width:2px;"/><path d="M364.61,672.417c6.047,0 12.045,0.023 17.95,-1.529c5.905,-1.553 11.455,-4.179 17.534,-4.733c5.781,-0.526 11.633,0.601 17.395,-0.416c7.79,-1.375 15.143,-5.15 22.944,-5.15" style="fill:none;stroke:#000;stroke-width:2px;"/><path d="M429.367,656.415c0,-2.725 -0.143,-5.314 0.834,-7.916c2.936,-7.817 19.603,-27.644 27.971,-28.526c8.012,-0.844 12.367,17.777 11.811,23.362c-0.458,4.599 -10.589,10.187 -12.384,15.585c-0.893,2.685 6.648,16.003 2.243,16.003" style="fill:none;stroke:#000;stroke-width:2px;"/><path d="M469.166,649.161c6.305,0 12.594,-2.219 17.933,1.115c2.908,1.816 4.439,6.361 5.427,9.322c4.157,12.456 -3.164,23.976 -14.611,29.362c-3.981,1.873 -26.996,5.119 -26.996,0.451" style="fill:none;stroke:#000;stroke-width:2px;"/><path d="M436.202,682.47c-12.75,0 -26.198,2.089 -38.808,4.314c-7.017,1.238 -13.641,2.923 -20.734,2.923" style="fill:none;stroke:#000;stroke-width:2px;"/><path d="M273.765,673.655c0,7.213 -2.539,14.292 -3.201,21.57c-0.594,6.519 -1.047,13.004 -1.949,19.342c-0.25,1.755 -1.53,13.204 -0.695,14.038c0.978,0.979 5.041,1.592 6.523,2.087c1.402,0.468 2.907,1.897 4.314,2.367c10.548,3.52 32.747,4.551 43.695,3.06c3.105,-0.423 6.083,-2.2 9.184,-2.644c1.675,-0.239 3.182,0.187 4.87,-0.278c4.078,-1.125 6.629,-3.339 10.994,-3.339" style="fill:none;stroke:#000;stroke-width:2px;"/><path d="M264.146,744.085c0,7.767 -2.43,33.149 6.54,36.737c19.487,7.795 40.617,-11.823 40.617,-31.122" style="fill:none;stroke:#000;stroke-width:2px;"/><path d="M343.153,746.744c0,10.382 3.614,23.209 12.551,29.082c1.907,1.253 4.896,1.067 7,1.379c2.689,0.4 4.794,1.297 7.12,0c4.526,-2.522 9.096,-4.271 11.826,-9.276c3.08,-5.646 5.02,-16.667 4.104,-23.315c-0.283,-2.056 -1.932,-3.783 -1.932,-5.766" style="fill:none;stroke:#000;stroke-width:2px;"/></g></g><g><g><path d="M49.712,116.837c0,-36.61 29.722,-66.333 66.332,-66.333l132.666,0c36.61,0 66.332,29.723 66.332,66.333l0,235.61c0,36.61 -29.722,66.333 -66.332,66.333l-19.9,0l33.166,157.832l-72.966,-157.832l-72.966,0c-36.61,0 -66.332,-29.723 -66.332,-66.333l0,-235.61Z" style="fill:#fff;stroke:#000;stroke-width:2px;"/></g><g><path d="M90.526,124.161l-0.064,-0.128l0,-15.36l0.128,-5.44l0,-5.504c0,-1.92 -0.064,-3.606 -0.192,-5.056l-0.128,-1.728l-0.128,-3.264c0,-0.427 0.224,-0.822 0.672,-1.184c0.448,-0.363 0.885,-0.544 1.312,-0.544c0.554,0 0.832,0.277 0.832,0.832c0,3.754 -0.214,8.853 -0.64,15.296c-0.47,7.125 -0.704,12.224 -0.704,15.296l0.064,1.28l0,1.536c0,1.792 -0.171,3.05 -0.512,3.776l0.192,0.32l-0.832,0l0,-0.128Zm0,10.688l-0.832,-0.384c-0.214,-0.128 -0.555,-0.576 -1.024,-1.344c0,-0.427 0.213,-0.864 0.64,-1.312c0.426,-0.448 0.853,-0.672 1.28,-0.672c0.597,0 1.066,0.224 1.408,0.672c0.341,0.448 0.512,1.013 0.512,1.696c0,1.066 -0.534,1.621 -1.6,1.664c-0.086,-0.214 -0.214,-0.32 -0.384,-0.32Z" style="fill-rule:nonzero;"/><path d="M106.782,124.161l-0.064,-0.128l0,-15.36l0.128,-5.44l0,-5.504c0,-1.92 -0.064,-3.606 -0.192,-5.056l-0.128,-1.728l-0.128,-3.264c0,-0.427 0.224,-0.822 0.672,-1.184c0.448,-0.363 0.885,-0.544 1.312,-0.544c0.554,0 0.832,0.277 0.832,0.832c0,3.754 -0.214,8.853 -0.64,15.296c-0.47,7.125 -0.704,12.224 -0.704,15.296l0.064,1.28l0,1.536c0,1.792 -0.171,3.05 -0.512,3.776l0.192,0.32l-0.832,0l0,-0.128Zm0,10.688l-0.832,-0.384c-0.214,-0.128 -0.555,-0.576 -1.024,-1.344c0,-0.427 0.213,-0.864 0.64,-1.312c0.426,-0.448 0.853,-0.672 1.28,-0.672c0.597,0 1.066,0.224 1.408,0.672c0.341,0.448 0.512,1.013 0.512,1.696c0,1.066 -0.534,1.621 -1.6,1.664c-0.086,-0.214 -0.214,-0.32 -0.384,-0.32Z" style="fill-rule:nonzero;"/><path d="M123.038,124.161l-0.064,-0.128l0,-15.36l0.128,-5.44l0,-5.504c0,-1.92 -0.064,-3.606 -0.192,-5.056l-0.128,-1.728l-0.128,-3.264c0,-0.427 0.224,-0.822 0.672,-1.184c0.448,-0.363 0.885,-0.544 1.312,-0.544c0.554,0 0.832,0.277 0.832,0.832c0,3.754 -0.214,8.853 -0.64,15.296c-0.47,7.125 -0.704,12.224 -0.704,15.296l0.064,1.28l0,1.536c0,1.792 -0.171,3.05 -0.512,3.776l0.192,0.32l-0.832,0l0,-0.128Zm0,10.688l-0.832,-0.384c-0.214,-0.128 -0.555,-0.576 -1.024,-1.344c0,-0.427 0.213,-0.864 0.64,-1.312c0.426,-0.448 0.853,-0.672 1.28,-0.672c0.597,0 1.066,0.224 1.408,0.672c0.341,0.448 0.512,1.013 0.512,1.696c0,1.066 -0.534,1.621 -1.6,1.664c-0.086,-0.214 -0.214,-0.32 -0.384,-0.32Z" style="fill-rule:nonzero;"/><path d="M136.894,135.937c-0.235,-0.128 -0.352,-0.278 -0.352,-0.448c0,-1.707 0.256,-4.864 0.768,-9.472c0.512,-4.608 1.024,-8.086 1.536,-10.432l-1.344,0.128c-0.768,0.085 -1.238,0.128 -1.408,0.128c-1.28,0 -1.92,-0.448 -1.92,-1.344c0,-0.427 0.725,-0.64 2.176,-0.64l1.344,0c0.725,0 1.152,-0.022 1.28,-0.064c0.128,-0.256 0.352,-1.792 0.672,-4.608c0.32,-2.816 0.48,-4.544 0.48,-5.184c-0.384,0 -0.726,0.021 -1.024,0.064l-1.088,0.064c-1.622,0 -2.475,-0.384 -2.56,-1.152l0.512,-0.576l1.344,0c1.578,0 2.56,-0.064 2.944,-0.192l0.576,-4.16c0.597,-3.84 0.896,-6.912 0.896,-9.216l0,-0.64l-0.064,-0.64c0,-0.939 0.32,-1.408 0.96,-1.408l0.448,0.896c0,1.664 -0.192,4.138 -0.576,7.424c-0.342,2.901 -0.512,5.376 -0.512,7.424c0.512,0.17 1.408,0.256 2.688,0.256l0.832,0c1.536,0 2.666,-0.15 3.392,-0.448c1.28,-5.974 2.09,-10.987 2.432,-15.04c0.256,-0.342 0.554,-0.512 0.896,-0.512c0.384,0 0.64,0.213 0.768,0.64c0,1.621 -0.384,4.032 -1.152,7.232c-0.768,3.2 -1.152,5.653 -1.152,7.36l0.128,0.32l2.368,0l0.832,0.896c-0.256,0.682 -0.534,1.024 -0.832,1.024c-0.47,0 -0.918,-0.022 -1.344,-0.064l-1.344,-0.064c-0.64,2.56 -0.96,5.781 -0.96,9.664l0.384,0.128l0.512,-0.064l0.64,0c1.194,0 1.792,0.405 1.792,1.216c0,0.298 -0.342,0.576 -1.024,0.832l-2.496,0c-0.043,0.853 -0.342,3.818 -0.896,8.896c-0.598,5.034 -0.896,8.746 -0.896,11.136l-0.704,0.832c-0.768,0 -1.152,-0.214 -1.152,-0.64c0,-0.64 0.149,-1.963 0.448,-3.968c0.256,-1.792 0.384,-3.136 0.384,-4.032c0,-1.024 0.213,-3.03 0.64,-6.016c0.384,-2.646 0.576,-4.63 0.576,-5.952c-1.152,-0.128 -2.88,-0.192 -5.184,-0.192c-0.896,0 -1.643,0.085 -2.24,0.256c-0.512,4.693 -0.726,6.677 -0.64,5.952l-0.192,1.92c-0.299,3.669 -0.619,6.72 -0.96,9.152c-0.171,1.237 -0.331,2.133 -0.48,2.688c-0.15,0.554 -0.31,0.832 -0.48,0.832c-0.214,0 -0.438,-0.064 -0.672,-0.192Zm10.72,-22.528l0.704,-3.712c0.213,-1.408 0.341,-2.624 0.384,-3.648c0.042,-0.427 0.064,-1.024 0.064,-1.792c0,-0.427 -1.643,-0.64 -4.928,-0.64c-0.982,0 -1.686,0.128 -2.112,0.384c-0.214,0.469 -0.448,1.877 -0.704,4.224c-0.256,2.346 -0.384,4.032 -0.384,5.056l0,0.128l0.064,0.128l1.024,0.128c2.218,0 4.181,-0.086 5.888,-0.256Z" style="fill-rule:nonzero;"/><path d="M163.358,129.345c0,-0.47 -0.171,-1.046 -0.512,-1.728c-0.214,-0.512 -0.32,-0.79 -0.32,-0.832c-0.427,-1.195 -0.886,-4.352 -1.376,-9.472c-0.491,-5.12 -0.736,-8.875 -0.736,-11.264c0,-5.846 0.362,-10.582 1.088,-14.208c0.341,-1.707 0.672,-3.072 0.992,-4.096c0.32,-1.024 0.736,-1.984 1.248,-2.88c0.554,-0.982 1.205,-1.75 1.952,-2.304c0.746,-0.555 1.696,-1.003 2.848,-1.344c1.28,-0.299 2.602,-0.448 3.968,-0.448c1.365,0 2.656,0.213 3.872,0.64c1.216,0.426 2.25,0.981 3.104,1.664c0.725,0.597 1.45,1.461 2.176,2.592c0.725,1.13 1.301,2.25 1.728,3.36c0.341,0.853 0.704,2.058 1.088,3.616c0.384,1.557 0.661,2.848 0.832,3.872c0.042,0.341 0.117,0.81 0.224,1.408c0.106,0.597 0.224,1.408 0.352,2.432l0.192,1.024c0.64,4.608 0.96,7.424 0.96,8.448c0,7.04 -1.579,10.56 -4.736,10.56c-0.64,0 -1.259,-0.235 -1.856,-0.704c-0.555,-0.427 -1.024,-0.726 -1.408,-0.896c-0.555,1.322 -1.419,2.432 -2.592,3.328c-1.174,0.896 -2.4,1.344 -3.68,1.344c-0.811,0 -1.547,-0.192 -2.208,-0.576c-0.662,-0.384 -1.206,-0.875 -1.632,-1.472c-0.811,-1.067 -1.451,-2.688 -1.92,-4.864c-0.299,-1.579 -0.491,-3.478 -0.576,-5.696c-0.043,-0.512 -0.064,-1.387 -0.064,-2.624l0,-1.6c0,-1.707 0.085,-3.52 0.256,-5.44c0.17,-1.792 0.533,-3.499 1.088,-5.12c0.341,-0.854 0.736,-1.536 1.184,-2.048c0.448,-0.512 1.013,-0.918 1.696,-1.216c0.682,-0.342 1.45,-0.512 2.304,-0.512c1.664,0 3.05,0.618 4.16,1.856c0.213,0.256 0.469,1.088 0.768,2.496c0.341,1.92 0.853,5.589 1.536,11.008l0.576,5.568c0.17,1.92 0.298,3.05 0.384,3.392l0.704,0.32c0.512,1.066 0.96,1.6 1.344,1.6c1.664,0 2.496,-3.03 2.496,-9.088c0,-6.912 -1.195,-13.526 -3.584,-19.84c-0.982,-2.518 -2.155,-4.31 -3.52,-5.376c-1.366,-1.067 -3.222,-1.6 -5.568,-1.6c-2.048,0 -3.712,0.426 -4.992,1.28c-1.024,0.682 -1.878,1.834 -2.56,3.456c-0.512,1.322 -0.854,2.944 -1.024,4.864l-0.192,2.688l-0.064,0.96l-0.064,1.152c0,0.256 -0.022,0.576 -0.064,0.96c-0.043,0.384 -0.107,0.746 -0.192,1.088c-0.043,0.17 -0.107,0.458 -0.192,0.864c-0.086,0.405 -0.192,0.757 -0.32,1.056l0.128,2.496c0,0.853 -0.086,1.536 -0.256,2.048c0.085,0.256 0.128,0.533 0.128,0.832c0,2.048 0.085,3.797 0.256,5.248l0.32,2.944c0.298,2.517 0.49,4.736 0.576,6.656c0.128,1.962 0.256,3.338 0.384,4.128c0.128,0.789 0.426,1.824 0.896,3.104c0.64,1.664 1.536,3.232 2.688,4.704c1.152,1.472 2.346,2.208 3.584,2.208c2.304,0 4.33,-0.395 6.08,-1.184c1.749,-0.79 3.52,-2.08 5.312,-3.872c0.81,-0.811 1.28,-1.216 1.408,-1.216l0.576,0.576c-0.299,1.024 -0.971,2.016 -2.016,2.976c-1.046,0.96 -2.251,1.738 -3.616,2.336c-1.366,0.597 -2.71,1.056 -4.032,1.376c-1.323,0.32 -2.475,0.48 -3.456,0.48c-3.115,0 -5.824,-2.496 -8.128,-7.488Zm11.936,-8.896c0.704,-0.768 1.29,-1.707 1.76,-2.816c0.469,-1.11 0.704,-2.07 0.704,-2.88l0,-6.144l-0.128,-1.28l-0.128,-1.344c-0.086,-0.299 -0.128,-0.555 -0.128,-0.768c0,-0.214 -0.022,-0.384 -0.064,-0.512c-0.128,-1.323 -0.278,-2.176 -0.448,-2.56c0,0.042 -0.086,-0.406 -0.256,-1.344c-0.128,-0.768 -0.214,-1.195 -0.256,-1.28l-0.192,-1.28c-0.043,-0.299 -0.107,-0.662 -0.192,-1.088c-0.086,-0.427 -0.214,-0.875 -0.384,-1.344c-0.171,-0.427 -0.363,-0.747 -0.576,-0.96c-0.214,-0.214 -0.491,-0.406 -0.832,-0.576c-0.512,-0.171 -0.939,-0.256 -1.28,-0.256c-0.683,0 -1.291,0.224 -1.824,0.672c-0.534,0.448 -0.928,1.013 -1.184,1.696c-0.256,0.597 -0.459,1.376 -0.608,2.336c-0.15,0.96 -0.246,1.845 -0.288,2.656l0,10.688c0,1.408 0.032,2.549 0.096,3.424c0.064,0.874 0.224,1.802 0.48,2.784c0.512,2.218 1.728,3.328 3.648,3.328c0.682,0 1.376,-0.384 2.08,-1.152Z" style="fill-rule:nonzero;"/><path d="M192.67,97.473l0,-0.256c0,-1.579 0.341,-3.712 1.024,-6.4c0.298,-1.451 0.768,-2.646 1.408,-3.584c0.64,-0.939 1.344,-1.408 2.112,-1.408l0.128,0c2.09,0 3.52,0.789 4.288,2.368c1.322,2.218 1.984,5.525 1.984,9.92l-0.128,0.192c0,0.554 0.021,1.045 0.064,1.472l0.064,1.472c0,0.725 -0.022,1.482 -0.064,2.272c-0.043,0.789 -0.171,1.674 -0.384,2.656c-0.256,1.152 -0.566,2.09 -0.928,2.816c-0.363,0.725 -0.886,1.365 -1.568,1.92c-0.726,0.554 -1.6,0.832 -2.624,0.832c-3.584,0 -5.376,-4.758 -5.376,-14.272Zm8.832,35.904c0,-0.854 0.096,-1.824 0.288,-2.912c0.192,-1.088 0.544,-2.656 1.056,-4.704c0.128,-0.427 0.426,-1.6 0.896,-3.52c2.73,-12.118 5.397,-23.168 8,-33.152l0.128,-0.384c0.042,-0.256 0.106,-0.523 0.192,-0.8c0.085,-0.278 0.149,-0.48 0.192,-0.608l0.32,-0.64c0.085,-0.128 0.17,-0.192 0.256,-0.192c0.256,0 0.48,0.074 0.672,0.224c0.192,0.149 0.288,0.352 0.288,0.608c0,0.213 -0.086,0.725 -0.256,1.536l-0.64,2.752c-0.171,0.938 -0.299,1.472 -0.384,1.6l-7.232,31.808l-1.28,5.568l-0.192,0.896c-0.086,0.64 -0.256,1.301 -0.512,1.984c-0.256,0.64 -0.64,1.002 -1.152,1.088c-0.427,-0.299 -0.64,-0.683 -0.64,-1.152Zm-1.28,-24.32c0.64,-0.683 1.088,-1.622 1.344,-2.816c0.384,-1.963 0.576,-3.755 0.576,-5.376c0,-1.152 -0.086,-2.475 -0.256,-3.968c-0.171,-2.304 -0.256,-3.648 -0.256,-4.032l-0.128,-0.576c0,-1.28 -0.395,-2.39 -1.184,-3.328c-0.79,-0.939 -1.76,-1.408 -2.912,-1.408c-0.427,0 -0.811,0.245 -1.152,0.736c-0.342,0.49 -0.598,1.12 -0.768,1.888c-0.384,1.493 -0.64,2.944 -0.768,4.352c-0.043,0.341 -0.075,0.618 -0.096,0.832c-0.022,0.213 -0.054,0.384 -0.096,0.512c0,0.298 -0.043,0.576 -0.128,0.832l-0.128,0.832c0,0.597 0.021,1.173 0.064,1.728l0.064,1.792c0,1.365 0.192,3.029 0.576,4.992c0.256,1.194 0.64,2.165 1.152,2.912c0.512,0.746 1.109,1.12 1.792,1.12c0.896,0 1.664,-0.342 2.304,-1.024Zm13.472,23.2c-0.619,-0.832 -1.099,-1.91 -1.44,-3.232c-0.64,-2.432 -0.96,-4.31 -0.96,-5.632l0,-0.256c0,-9.515 1.792,-14.272 5.376,-14.272c0.938,0 1.781,0.266 2.528,0.8c0.746,0.533 1.312,1.205 1.696,2.016c0.341,0.725 0.629,1.61 0.864,2.656c0.234,1.045 0.373,1.973 0.416,2.784l0.064,2.24l-0.128,2.944l0.128,0.192c0,2.432 -0.363,4.736 -1.088,6.912c-0.427,1.237 -1.099,2.229 -2.016,2.976c-0.918,0.746 -2.016,1.12 -3.296,1.12c-0.811,0 -1.526,-0.416 -2.144,-1.248Zm5.088,-2.016c0.597,-0.726 1.045,-1.728 1.344,-3.008c0.213,-0.768 0.362,-1.984 0.448,-3.648l0,-3.904c0,-1.494 -0.107,-2.859 -0.32,-4.096c-0.214,-1.067 -0.448,-1.92 -0.704,-2.56c-0.256,-0.64 -0.64,-1.174 -1.152,-1.6c-0.512,-0.512 -1.152,-0.768 -1.92,-0.768c-0.683,0 -1.27,0.362 -1.76,1.088c-0.491,0.725 -0.864,1.664 -1.12,2.816c-0.384,1.962 -0.576,3.605 -0.576,4.928l-0.064,1.728c-0.043,0.512 -0.064,1.066 -0.064,1.664c0,0.298 0.042,0.576 0.128,0.832l0.128,0.832c0,0.17 0.085,0.661 0.256,1.472c0.17,1.109 0.33,1.973 0.48,2.592c0.149,0.618 0.394,1.226 0.736,1.824c0.384,0.64 0.832,0.96 1.344,0.96c1.194,0 2.133,-0.384 2.816,-1.152Z" style="fill-rule:nonzero;"/><path d="M86.366,176.001l0,-2.24c0,-11.904 1.536,-17.856 4.608,-17.856c0.213,0 0.512,0.064 0.896,0.192c1.365,0.469 2.709,0.768 4.032,0.896c0.81,0.17 1.621,1.002 2.432,2.496c0.896,1.536 1.568,3.562 2.016,6.08c0.448,2.517 0.672,5.098 0.672,7.744l-0.128,0.32c0,1.408 0.021,2.666 0.064,3.776l0.064,3.84c0,2.176 -0.086,4.138 -0.256,5.888c-0.256,2.645 -0.683,4.928 -1.28,6.848c-0.384,1.152 -0.822,2.112 -1.312,2.88c-0.491,0.768 -1.099,1.408 -1.824,1.92c-0.683,0.512 -1.515,0.768 -2.496,0.768c-4.992,0 -7.488,-7.851 -7.488,-23.552Zm10.944,18.176c0.81,-2.39 1.301,-4.822 1.472,-7.296c0.17,-2.56 0.256,-4.608 0.256,-6.144c0,-1.707 -0.128,-4.224 -0.384,-7.552c-0.214,-3.712 -0.32,-6.23 -0.32,-7.552l-0.256,-0.512l0.128,-0.32c0,-1.878 -0.523,-3.499 -1.568,-4.864c-1.046,-1.366 -2.315,-2.048 -3.808,-2.048c-1.963,0 -3.136,0.938 -3.52,2.816c-0.086,0.64 -0.171,1.557 -0.256,2.752c0,3.157 -0.128,5.312 -0.384,6.464c0,0.64 -0.064,1.642 -0.192,3.008l-0.128,3.008c0,0.938 0.021,1.77 0.064,2.496l0.064,2.56c0,2.005 0.17,4.309 0.512,6.912c0.256,1.92 0.554,3.541 0.896,4.864c0.341,1.322 0.832,2.453 1.472,3.392c0.64,1.024 1.386,1.536 2.24,1.536c1.664,0 2.901,-1.174 3.712,-3.52Z" style="fill-rule:nonzero;"/><path d="M109.406,198.273c0.426,-3.883 0.64,-9.067 0.64,-15.552c0,-2.859 0.128,-7.168 0.384,-12.928c0.298,-5.334 0.448,-9.622 0.448,-12.864c0,-0.384 0.181,-0.683 0.544,-0.896c0.362,-0.214 0.778,-0.32 1.248,-0.32c1.493,0 3.136,0.17 4.928,0.512c1.792,0.341 2.688,0.789 2.688,1.344c0,0.725 -0.747,1.088 -2.24,1.088c-0.939,-0.427 -2.134,-0.64 -3.584,-0.64l-0.768,0.064c-0.128,0.042 -0.224,0.106 -0.288,0.192c-0.064,0.085 -0.118,0.213 -0.16,0.384c-0.086,0.341 -0.171,0.576 -0.256,0.704c0,1.92 -0.086,4.181 -0.256,6.784c-0.214,2.517 -0.32,4.757 -0.32,6.72l0,2.24c0,0.17 0.341,0.234 1.024,0.192c2.176,0 3.264,0.341 3.264,1.024c0,0.341 -0.16,0.629 -0.48,0.864c-0.32,0.234 -0.672,0.352 -1.056,0.352c-0.256,0 -0.619,-0.064 -1.088,-0.192c-0.427,-0.128 -0.79,-0.192 -1.088,-0.192c-0.768,0 -1.152,1.045 -1.152,3.136l0,7.232c0,1.024 0.064,2.538 0.192,4.544c0.128,2.048 0.192,3.584 0.192,4.608c0,1.706 -0.512,2.56 -1.536,2.56l-1.28,-0.96Zm14.912,0c0.426,-3.883 0.64,-9.067 0.64,-15.552c0,-2.859 0.128,-7.168 0.384,-12.928c0.298,-5.334 0.448,-9.622 0.448,-12.864c0,-0.384 0.181,-0.683 0.544,-0.896c0.362,-0.214 0.778,-0.32 1.248,-0.32c1.493,0 3.136,0.17 4.928,0.512c1.792,0.341 2.688,0.789 2.688,1.344c0,0.725 -0.747,1.088 -2.24,1.088c-0.939,-0.427 -2.134,-0.64 -3.584,-0.64l-0.768,0.064c-0.128,0.042 -0.224,0.106 -0.288,0.192c-0.064,0.085 -0.118,0.213 -0.16,0.384c-0.086,0.341 -0.171,0.576 -0.256,0.704c0,1.92 -0.086,4.181 -0.256,6.784c-0.214,2.517 -0.32,4.757 -0.32,6.72l0,2.24c0,0.17 0.341,0.234 1.024,0.192c2.176,0 3.264,0.341 3.264,1.024c0,0.341 -0.16,0.629 -0.48,0.864c-0.32,0.234 -0.672,0.352 -1.056,0.352c-0.256,0 -0.619,-0.064 -1.088,-0.192c-0.427,-0.128 -0.79,-0.192 -1.088,-0.192c-0.768,0 -1.152,1.045 -1.152,3.136l0,7.232c0,1.024 0.064,2.538 0.192,4.544c0.128,2.048 0.192,3.584 0.192,4.608c0,1.706 -0.512,2.56 -1.536,2.56l-1.28,-0.96Z" style="fill-rule:nonzero;"/><path d="M151.838,176.001l0,-2.24c0,-11.904 1.536,-17.856 4.608,-17.856c0.213,0 0.512,0.064 0.896,0.192c1.365,0.469 2.709,0.768 4.032,0.896c0.81,0.17 1.621,1.002 2.432,2.496c0.896,1.536 1.568,3.562 2.016,6.08c0.448,2.517 0.672,5.098 0.672,7.744l-0.128,0.32c0,1.408 0.021,2.666 0.064,3.776l0.064,3.84c0,2.176 -0.086,4.138 -0.256,5.888c-0.256,2.645 -0.683,4.928 -1.28,6.848c-0.384,1.152 -0.822,2.112 -1.312,2.88c-0.491,0.768 -1.099,1.408 -1.824,1.92c-0.683,0.512 -1.515,0.768 -2.496,0.768c-4.992,0 -7.488,-7.851 -7.488,-23.552Zm10.944,18.176c0.81,-2.39 1.301,-4.822 1.472,-7.296c0.17,-2.56 0.256,-4.608 0.256,-6.144c0,-1.707 -0.128,-4.224 -0.384,-7.552c-0.214,-3.712 -0.32,-6.23 -0.32,-7.552l-0.256,-0.512l0.128,-0.32c0,-1.878 -0.523,-3.499 -1.568,-4.864c-1.046,-1.366 -2.315,-2.048 -3.808,-2.048c-1.963,0 -3.136,0.938 -3.52,2.816c-0.086,0.64 -0.171,1.557 -0.256,2.752c0,3.157 -0.128,5.312 -0.384,6.464c0,0.64 -0.064,1.642 -0.192,3.008l-0.128,3.008c0,0.938 0.021,1.77 0.064,2.496l0.064,2.56c0,2.005 0.17,4.309 0.512,6.912c0.256,1.92 0.554,3.541 0.896,4.864c0.341,1.322 0.832,2.453 1.472,3.392c0.64,1.024 1.386,1.536 2.24,1.536c1.664,0 2.901,-1.174 3.712,-3.52Z" style="fill-rule:nonzero;"/><path d="M184.606,199.105c-0.512,-0.555 -1.067,-2.027 -1.664,-4.416c-0.598,-2.39 -1.152,-5.078 -1.664,-8.064c-0.342,-2.432 -0.832,-4.843 -1.472,-7.232c-0.512,-2.134 -1.003,-3.2 -1.472,-3.2l-0.192,0c-0.939,0 -1.408,0.298 -1.408,0.896c0,3.072 0.17,7.744 0.512,14.016c0.17,3.84 0.362,6.08 0.576,6.72l-0.512,1.088l-0.896,0l-0.512,-0.512c-0.683,-19.712 -1.024,-33.152 -1.024,-40.32c0,-0.47 0.032,-0.854 0.096,-1.152c0.064,-0.299 0.202,-0.576 0.416,-0.832c0.17,-0.299 0.469,-0.448 0.896,-0.448c2.176,0 3.925,0.533 5.248,1.6c1.322,1.066 1.984,2.602 1.984,4.608l0,4.672c0,0.81 -0.267,1.898 -0.8,3.264c-0.534,1.365 -1.12,2.624 -1.76,3.776l-0.832,1.6c0.469,2.176 1.397,6.09 2.784,11.744c1.386,5.653 2.144,8.65 2.272,8.992c0.042,0.042 0.096,0.149 0.16,0.32c0.064,0.17 0.202,0.426 0.416,0.768c0.298,0.597 0.448,1.109 0.448,1.536c0,0.597 -0.235,0.896 -0.704,0.896l-0.896,-0.32Zm-5.376,-25.728c0.64,-0.811 1.152,-1.856 1.536,-3.136c0.682,-2.603 1.024,-4.672 1.024,-6.208c0,-0.982 -0.054,-1.792 -0.16,-2.432c-0.107,-0.64 -0.288,-1.323 -0.544,-2.048c-0.512,-1.494 -1.728,-2.24 -3.648,-2.24c-0.214,0 -0.384,0.181 -0.512,0.544c-0.128,0.362 -0.192,0.736 -0.192,1.12c0,2.858 0.042,5.44 0.128,7.744c0.042,2.304 0.064,4.885 0.064,7.744l0.128,0.128c0.81,0 1.536,-0.406 2.176,-1.216Z" style="fill-rule:nonzero;"/><path d="M204.958,198.017c-0.299,0 -0.566,-0.107 -0.8,-0.32c-0.235,-0.214 -0.352,-0.448 -0.352,-0.704c0,-0.555 0.362,-0.832 1.088,-0.832l2.496,0c0,-4.907 -0.15,-11.094 -0.448,-18.56c-0.171,-5.974 -0.342,-10.667 -0.512,-14.08l0.064,-3.264l0,-4.224c0,-2.134 -0.043,-3.499 -0.128,-4.096l-2.24,0c-0.427,0 -0.64,-0.299 -0.64,-0.896c0,-0.384 0.17,-0.683 0.512,-0.896c0.298,-0.128 1.088,-0.192 2.368,-0.192l1.792,0c0.64,0.042 1.45,0.064 2.432,0.064c0.341,0 0.618,0.074 0.832,0.224c0.213,0.149 0.32,0.373 0.32,0.672c0,0.256 -0.064,0.49 -0.192,0.704c-0.128,0.213 -0.32,0.32 -0.576,0.32c-0.299,0 -0.555,-0.022 -0.768,-0.064l-1.408,0c-0.427,0 -0.683,0.042 -0.768,0.128l-0.128,0.256c0,3.328 0.277,10.048 0.832,20.16c0.512,9.344 0.768,16.064 0.768,20.16l0,1.792c-0.043,0.554 -0.064,1.13 -0.064,1.728l2.304,0c0.981,0 1.472,0.298 1.472,0.896c0,0.256 -0.096,0.501 -0.288,0.736c-0.192,0.234 -0.395,0.352 -0.608,0.352l-3.456,0c-1.024,-0.043 -2.326,-0.064 -3.904,-0.064Z" style="fill-rule:nonzero;"/><path d="M223.582,158.913c0.085,-0.768 0.128,-2.048 0.128,-3.84l0,-0.512c0,-3.627 0.234,-5.44 0.704,-5.44c0.426,0 0.778,0.245 1.056,0.736c0.277,0.49 0.416,1.056 0.416,1.696c0,1.194 -0.246,2.741 -0.736,4.64c-0.491,1.898 -0.928,2.848 -1.312,2.848l-0.256,-0.128Z" style="fill-rule:nonzero;"/><path d="M236.638,197.697c0.085,-0.256 0.128,-0.96 0.128,-2.112c0,-3.926 0.064,-9.75 0.192,-17.472c0.128,-7.68 0.192,-13.227 0.192,-16.64l0.128,-2.304l0.192,-1.92c0,-0.299 0.149,-0.448 0.448,-0.448c0.213,0 0.512,0.064 0.896,0.192l0.192,0.064c0,0.938 -0.022,1.792 -0.064,2.56l0,9.472c0.042,2.048 0.064,4.373 0.064,6.976c-0.043,0.213 -0.064,0.682 -0.064,1.408l-0.064,1.344c-0.043,0.853 -0.064,1.728 -0.064,2.624c0,0.981 0.021,1.877 0.064,2.688l0.064,2.752l-0.192,0.512l0.064,-0.064c0,0.128 -0.022,0.213 -0.064,0.256l0,0.256c0,0.341 0.064,0.64 0.192,0.896l-0.192,6.144l0,0.384c0,0.725 0.021,1.152 0.064,1.28c0,0.213 0.106,0.32 0.32,0.32l3.328,0.128c0.981,0 1.653,0.01 2.016,0.032l0.864,0.032c0.213,0 0.426,0.117 0.64,0.352c0.213,0.234 0.32,0.48 0.32,0.736c0,0.512 -0.342,0.789 -1.024,0.832c-0.726,-0.043 -2.496,-0.064 -5.312,-0.064l0.128,0.064c-0.427,0 -0.832,0.021 -1.216,0.064c-0.342,0.085 -0.726,0.128 -1.152,0.128c-0.598,0 -0.96,-0.491 -1.088,-1.472Z" style="fill-rule:nonzero;"/><path d="M252.574,197.697c0.085,-0.256 0.128,-0.96 0.128,-2.112c0,-3.926 0.064,-9.75 0.192,-17.472c0.128,-7.68 0.192,-13.227 0.192,-16.64l0.128,-2.304l0.192,-1.92c0,-0.299 0.149,-0.448 0.448,-0.448c0.213,0 0.512,0.064 0.896,0.192l0.192,0.064c0,0.938 -0.022,1.792 -0.064,2.56l0,9.472c0.042,2.048 0.064,4.373 0.064,6.976c-0.043,0.213 -0.064,0.682 -0.064,1.408l-0.064,1.344c-0.043,0.853 -0.064,1.728 -0.064,2.624c0,0.981 0.021,1.877 0.064,2.688l0.064,2.752l-0.192,0.512l0.064,-0.064c0,0.128 -0.022,0.213 -0.064,0.256l0,0.256c0,0.341 0.064,0.64 0.192,0.896l-0.192,6.144l0,0.384c0,0.725 0.021,1.152 0.064,1.28c0,0.213 0.106,0.32 0.32,0.32l3.328,0.128c0.981,0 1.653,0.01 2.016,0.032l0.864,0.032c0.213,0 0.426,0.117 0.64,0.352c0.213,0.234 0.32,0.48 0.32,0.736c0,0.512 -0.342,0.789 -1.024,0.832c-0.726,-0.043 -2.496,-0.064 -5.312,-0.064l0.128,0.064c-0.427,0 -0.832,0.021 -1.216,0.064c-0.342,0.085 -0.726,0.128 -1.152,0.128c-0.598,0 -0.96,-0.491 -1.088,-1.472Z" style="fill-rule:nonzero;"/><path d="M91.934,262.785c-0.811,-0.256 -1.504,-0.619 -2.08,-1.088c-0.576,-0.47 -1.12,-1.174 -1.632,-2.112c-0.896,-1.707 -1.43,-4.16 -1.6,-7.36c-0.086,-1.451 -0.128,-2.731 -0.128,-3.84l0,-7.296c0,-2.774 0.085,-5.462 0.256,-8.064c0.128,-1.92 0.32,-3.542 0.576,-4.864c0.256,-1.323 0.661,-2.646 1.216,-3.968c0.597,-1.366 1.258,-2.326 1.984,-2.88c0.298,-0.256 0.874,-0.555 1.728,-0.896c0.554,-0.214 1.088,-0.448 1.6,-0.704l2.752,0c0.042,0.042 0.106,0.064 0.192,0.064l0.32,0.064l0.256,0.192c0.128,0.128 0.192,0.213 0.192,0.256c0.042,0.085 0.064,0.213 0.064,0.384l-0.832,0.96l-2.688,0c-0.811,0 -1.547,0.394 -2.208,1.184c-0.662,0.789 -1.163,1.781 -1.504,2.976c-0.342,1.066 -0.619,2.325 -0.832,3.776c-0.214,1.45 -0.342,2.709 -0.384,3.776c-0.086,1.365 -0.128,2.304 -0.128,2.816l-0.128,0.32c0,2.389 -0.043,4.544 -0.128,6.464l-0.128,6.464c0,1.877 0.128,3.605 0.384,5.184c0.213,1.706 0.832,3.242 1.856,4.608c0.981,1.365 2.496,2.048 4.544,2.048c0.64,0 1.173,-0.192 1.6,-0.576c0.64,0 0.96,0.234 0.96,0.704c0,0.298 -0.267,0.65 -0.8,1.056c-0.534,0.405 -1.078,0.714 -1.632,0.928l-2.112,0l-1.536,-0.576Z" style="fill-rule:nonzero;"/><path d="M116.83,262.689c-0.171,-0.15 -0.299,-0.544 -0.384,-1.184c-0.384,-3.115 -0.619,-5.056 -0.704,-5.824l-0.32,-2.56c-0.939,-0.214 -2.006,-0.32 -3.2,-0.32l-2.304,-0.128c-1.024,-0.128 -1.771,-0.192 -2.24,-0.192c-0.256,0 -0.406,0.106 -0.448,0.32c0,0.128 -0.022,0.192 -0.064,0.192l-0.128,1.28c-0.043,0.768 -0.278,2.304 -0.704,4.608c-0.214,1.152 -0.47,2.048 -0.768,2.688c-0.342,0.725 -0.662,1.088 -0.96,1.088c-0.256,0 -0.534,-0.118 -0.832,-0.352c-0.299,-0.235 -0.448,-0.48 -0.448,-0.736l0.128,-0.384c0.768,-3.03 1.408,-6.038 1.92,-9.024l0.768,-3.968l0.768,-4.864c0,0 0.234,-1.408 0.704,-4.224c0.213,-1.152 0.597,-3.008 1.152,-5.568c0.597,-2.902 0.96,-4.886 1.088,-5.952c0.042,-0.128 0.128,-0.918 0.256,-2.368c0.17,-1.622 0.32,-2.816 0.448,-3.584c0.128,-1.11 0.256,-1.75 0.384,-1.92l0.448,0c0.128,0.042 0.277,0.064 0.448,0.064c0.512,0 0.896,-0.128 1.152,-0.384c0.298,0 0.565,0.096 0.8,0.288c0.234,0.192 0.352,0.416 0.352,0.672c0,2.048 0.149,4.394 0.448,7.04c0.17,1.365 0.298,2.496 0.384,3.392c0.469,5.504 1.664,15.829 3.584,30.976l0,0.192c0,0.426 -0.171,0.746 -0.512,0.96c-0.64,0 -1.046,-0.075 -1.216,-0.224Zm-1.728,-11.296c-0.427,-6.144 -1.238,-15.211 -2.432,-27.2l-3.456,17.088c-0.982,4.906 -1.472,8 -1.472,9.28c0,0.213 0.81,0.405 2.432,0.576c1.621,0.17 3.05,0.256 4.288,0.256l0.64,0Z" style="fill-rule:nonzero;"/><path d="M125.534,261.697c0.085,-0.256 0.128,-0.96 0.128,-2.112c0,-3.926 0.064,-9.75 0.192,-17.472c0.128,-7.68 0.192,-13.227 0.192,-16.64l0.128,-2.304l0.192,-1.92c0,-0.299 0.149,-0.448 0.448,-0.448c0.213,0 0.512,0.064 0.896,0.192l0.192,0.064c0,0.938 -0.022,1.792 -0.064,2.56l0,9.472c0.042,2.048 0.064,4.373 0.064,6.976c-0.043,0.213 -0.064,0.682 -0.064,1.408l-0.064,1.344c-0.043,0.853 -0.064,1.728 -0.064,2.624c0,0.981 0.021,1.877 0.064,2.688l0.064,2.752l-0.192,0.512l0.064,-0.064c0,0.128 -0.022,0.213 -0.064,0.256l0,0.256c0,0.341 0.064,0.64 0.192,0.896l-0.192,6.144l0,0.384c0,0.725 0.021,1.152 0.064,1.28c0,0.213 0.106,0.32 0.32,0.32l3.328,0.128c0.981,0 1.653,0.01 2.016,0.032l0.864,0.032c0.213,0 0.426,0.117 0.64,0.352c0.213,0.234 0.32,0.48 0.32,0.736c0,0.512 -0.342,0.789 -1.024,0.832c-0.726,-0.043 -2.496,-0.064 -5.312,-0.064l0.128,0.064c-0.427,0 -0.832,0.021 -1.216,0.064c-0.342,0.085 -0.726,0.128 -1.152,0.128c-0.598,0 -0.96,-0.491 -1.088,-1.472Z" style="fill-rule:nonzero;"/><path d="M141.47,261.697c0.085,-0.256 0.128,-0.96 0.128,-2.112c0,-3.926 0.064,-9.75 0.192,-17.472c0.128,-7.68 0.192,-13.227 0.192,-16.64l0.128,-2.304l0.192,-1.92c0,-0.299 0.149,-0.448 0.448,-0.448c0.213,0 0.512,0.064 0.896,0.192l0.192,0.064c0,0.938 -0.022,1.792 -0.064,2.56l0,9.472c0.042,2.048 0.064,4.373 0.064,6.976c-0.043,0.213 -0.064,0.682 -0.064,1.408l-0.064,1.344c-0.043,0.853 -0.064,1.728 -0.064,2.624c0,0.981 0.021,1.877 0.064,2.688l0.064,2.752l-0.192,0.512l0.064,-0.064c0,0.128 -0.022,0.213 -0.064,0.256l0,0.256c0,0.341 0.064,0.64 0.192,0.896l-0.192,6.144l0,0.384c0,0.725 0.021,1.152 0.064,1.28c0,0.213 0.106,0.32 0.32,0.32l3.328,0.128c0.981,0 1.653,0.01 2.016,0.032l0.864,0.032c0.213,0 0.426,0.117 0.64,0.352c0.213,0.234 0.32,0.48 0.32,0.736c0,0.512 -0.342,0.789 -1.024,0.832c-0.726,-0.043 -2.496,-0.064 -5.312,-0.064l0.128,0.064c-0.427,0 -0.832,0.021 -1.216,0.064c-0.342,0.085 -0.726,0.128 -1.152,0.128c-0.598,0 -0.96,-0.491 -1.088,-1.472Z" style="fill-rule:nonzero;"/><path d="M192.286,261.569l0,-4.224c0,-6.144 -0.128,-10.944 -0.384,-14.4l-0.192,-2.368c-0.171,-1.067 -0.256,-2.006 -0.256,-2.816c0,-1.451 0.042,-2.774 0.128,-3.968l0.128,-3.968c0,-1.323 -0.086,-2.326 -0.256,-3.008c-0.854,0.597 -3.435,9.578 -7.744,26.944l-0.064,0.96c-0.128,1.066 -0.299,1.92 -0.512,2.56c-0.128,0.469 -0.31,0.832 -0.544,1.088c-0.235,0.256 -0.502,0.384 -0.8,0.384c-0.683,0 -1.174,-0.171 -1.472,-0.512c-0.299,-0.342 -0.448,-0.875 -0.448,-1.6c0,-1.152 -0.544,-4.139 -1.632,-8.96c-1.088,-4.822 -2.262,-9.451 -3.52,-13.888c-1.259,-4.438 -2.123,-6.891 -2.592,-7.36c-0.043,1.493 -0.214,5.013 -0.512,10.56c-0.598,9.813 -0.896,17.536 -0.896,23.168l0.064,2.56c-0.171,0.554 -0.619,0.832 -1.344,0.832c-0.128,0 -0.342,-0.118 -0.64,-0.352c-0.299,-0.235 -0.448,-0.416 -0.448,-0.544c0,-3.84 0.341,-10.582 1.024,-20.224c0.64,-8.96 0.96,-15.68 0.96,-20.16c0,-0.214 -0.043,-0.427 -0.128,-0.64c-0.128,-0.256 -0.192,-0.448 -0.192,-0.576c0,-0.64 0.554,-0.96 1.664,-0.96c0.725,0 1.152,0.32 1.28,0.96c0.17,0.853 0.256,1.493 0.256,1.92l0.064,0.768c0.213,1.109 0.832,2.816 1.856,5.12c0.81,1.834 1.429,3.434 1.856,4.8c0.256,1.024 0.49,1.856 0.704,2.496c0.682,2.474 1.13,4.309 1.344,5.504l0.832,1.664c0.128,0.64 0.384,1.685 0.768,3.136c0.384,1.621 0.661,2.944 0.832,3.968c0.17,1.024 0.256,2.005 0.256,2.944c0.469,-0.726 1.802,-5.088 4,-13.088c2.197,-8 3.488,-13.11 3.872,-15.328c0.042,-0.086 0.074,-0.203 0.096,-0.352c0.021,-0.15 0.053,-0.352 0.096,-0.608c0.085,-0.555 0.277,-1.387 0.576,-2.496c0.341,-0.854 0.853,-1.28 1.536,-1.28c0.298,0 0.64,0.128 1.024,0.384c0.384,0.256 0.576,0.512 0.576,0.768c0,17.792 0.277,27.2 0.832,28.224l0,3.328c-0.043,0.981 -0.064,2.112 -0.064,3.392c0,2.73 0.149,4.778 0.448,6.144c0.042,0.042 0.074,0.106 0.096,0.192c0.021,0.085 0.053,0.192 0.096,0.32c0.042,0.17 0.064,0.362 0.064,0.576c0,0.469 -0.139,0.938 -0.416,1.408c-0.278,0.469 -0.608,0.704 -0.992,0.704c-0.854,0 -1.28,-1.366 -1.28,-4.096Zm-0.832,-35.136l-0.064,0l-0.128,0.064l0.192,0.064l0,-0.128Z" style="fill-rule:nonzero;"/><path d="M208.286,263.041c-0.214,-0.171 -0.342,-0.32 -0.384,-0.448c0.384,-1.024 0.576,-4.758 0.576,-11.2c0,-1.238 -0.064,-3.008 -0.192,-5.312l-0.32,-4.544l-0.384,-0.832l0.192,-0.768c-0.256,-0.598 -0.64,-1.6 -1.152,-3.008c-0.512,-1.408 -1.024,-2.838 -1.536,-4.288c-1.536,-4.054 -2.539,-6.976 -3.008,-8.768c-0.256,-0.854 -0.448,-1.643 -0.576,-2.368l0.896,-0.704c0.426,0.085 1.045,1.45 1.856,4.096c0.64,1.877 1.216,3.733 1.728,5.568l0.768,2.432c0.768,2.645 1.322,4.01 1.664,4.096l0.256,-1.152l-0.128,-0.32c0.341,-0.427 0.768,-1.942 1.28,-4.544c0.554,-2.987 1.088,-5.504 1.6,-7.552c0.554,-2.39 1.109,-3.584 1.664,-3.584c0.213,0 0.405,0.064 0.576,0.192c0.17,0.128 0.256,0.277 0.256,0.448c0,0.64 -0.64,3.157 -1.92,7.552c-0.64,2.09 -1.174,4.053 -1.6,5.888c-0.512,2.176 -0.768,4.117 -0.768,5.824c0.213,0.426 0.32,0.789 0.32,1.088c0,0.213 -0.064,0.512 -0.192,0.896c-0.128,0.384 -0.192,0.704 -0.192,0.96c0,0.213 0.085,1.173 0.256,2.88c0.17,1.152 0.256,2.133 0.256,2.944c0,1.877 0.021,3.562 0.064,5.056l0,5.376c0,2.901 -0.448,4.352 -1.344,4.352c-0.128,0 -0.299,-0.086 -0.512,-0.256Z" style="fill-rule:nonzero;"/><path d="M87.262,325.697c0.085,-0.256 0.128,-0.96 0.128,-2.112c0,-3.926 0.064,-9.75 0.192,-17.472c0.128,-7.68 0.192,-13.227 0.192,-16.64l0.128,-2.304l0.192,-1.92c0,-0.299 0.149,-0.448 0.448,-0.448c0.213,0 0.512,0.064 0.896,0.192l0.192,0.064c0,0.938 -0.022,1.792 -0.064,2.56l0,9.472c0.042,2.048 0.064,4.373 0.064,6.976c-0.043,0.213 -0.064,0.682 -0.064,1.408l-0.064,1.344c-0.043,0.853 -0.064,1.728 -0.064,2.624c0,0.981 0.021,1.877 0.064,2.688l0.064,2.752l-0.192,0.512l0.064,-0.064c0,0.128 -0.022,0.213 -0.064,0.256l0,0.256c0,0.341 0.064,0.64 0.192,0.896l-0.192,6.144l0,0.384c0,0.725 0.021,1.152 0.064,1.28c0,0.213 0.106,0.32 0.32,0.32l3.328,0.128c0.981,0 1.653,0.01 2.016,0.032l0.864,0.032c0.213,0 0.426,0.117 0.64,0.352c0.213,0.234 0.32,0.48 0.32,0.736c0,0.512 -0.342,0.789 -1.024,0.832c-0.726,-0.043 -2.496,-0.064 -5.312,-0.064l0.128,0.064c-0.427,0 -0.832,0.021 -1.216,0.064c-0.342,0.085 -0.726,0.128 -1.152,0.128c-0.598,0 -0.96,-0.491 -1.088,-1.472Z" style="fill-rule:nonzero;"/><path d="M114.526,326.689c-0.171,-0.15 -0.299,-0.544 -0.384,-1.184c-0.384,-3.115 -0.619,-5.056 -0.704,-5.824l-0.32,-2.56c-0.939,-0.214 -2.006,-0.32 -3.2,-0.32l-2.304,-0.128c-1.024,-0.128 -1.771,-0.192 -2.24,-0.192c-0.256,0 -0.406,0.106 -0.448,0.32c0,0.128 -0.022,0.192 -0.064,0.192l-0.128,1.28c-0.043,0.768 -0.278,2.304 -0.704,4.608c-0.214,1.152 -0.47,2.048 -0.768,2.688c-0.342,0.725 -0.662,1.088 -0.96,1.088c-0.256,0 -0.534,-0.118 -0.832,-0.352c-0.299,-0.235 -0.448,-0.48 -0.448,-0.736l0.128,-0.384c0.768,-3.03 1.408,-6.038 1.92,-9.024l0.768,-3.968l0.768,-4.864c0,0 0.234,-1.408 0.704,-4.224c0.213,-1.152 0.597,-3.008 1.152,-5.568c0.597,-2.902 0.96,-4.886 1.088,-5.952c0.042,-0.128 0.128,-0.918 0.256,-2.368c0.17,-1.622 0.32,-2.816 0.448,-3.584c0.128,-1.11 0.256,-1.75 0.384,-1.92l0.448,0c0.128,0.042 0.277,0.064 0.448,0.064c0.512,0 0.896,-0.128 1.152,-0.384c0.298,0 0.565,0.096 0.8,0.288c0.234,0.192 0.352,0.416 0.352,0.672c0,2.048 0.149,4.394 0.448,7.04c0.17,1.365 0.298,2.496 0.384,3.392c0.469,5.504 1.664,15.829 3.584,30.976l0,0.192c0,0.426 -0.171,0.746 -0.512,0.96c-0.64,0 -1.046,-0.075 -1.216,-0.224Zm-1.728,-11.296c-0.427,-6.144 -1.238,-15.211 -2.432,-27.2l-3.456,17.088c-0.982,4.906 -1.472,8 -1.472,9.28c0,0.213 0.81,0.405 2.432,0.576c1.621,0.17 3.05,0.256 4.288,0.256l0.64,0Z" style="fill-rule:nonzero;"/><path d="M136.094,327.681c-0.128,-0.512 -0.192,-1.003 -0.192,-1.472l0,-0.576c-0.171,-1.707 -0.406,-3.307 -0.704,-4.8c-0.384,-2.091 -0.64,-3.712 -0.768,-4.864c-0.128,-1.152 -0.32,-3.243 -0.576,-6.272c-0.384,-4.779 -0.747,-8.406 -1.088,-10.88c-0.384,-3.158 -0.79,-4.95 -1.216,-5.376l-0.384,3.456c-0.214,2.048 -0.32,3.498 -0.32,4.352c0,1.792 -0.086,3.584 -0.256,5.376c-0.171,1.792 -0.47,4.074 -0.896,6.848l-0.768,5.312c-0.043,0.085 -0.075,0.245 -0.096,0.48c-0.022,0.234 -0.054,0.522 -0.096,0.864c-0.086,1.194 -0.32,2.773 -0.704,4.736c-0.128,0.853 -0.32,1.536 -0.576,2.048c-0.171,0.512 -0.427,0.768 -0.768,0.768c-0.598,0 -1.088,-0.96 -1.472,-2.88c-0.299,-1.707 -0.576,-4.416 -0.832,-8.128c-0.128,-2.347 -0.235,-4.096 -0.32,-5.248c-0.086,-1.152 -0.256,-2.518 -0.512,-4.096l-0.256,-1.984c-0.342,-2.304 -0.555,-3.947 -0.64,-4.928c-0.086,-0.982 -0.171,-2.411 -0.256,-4.288c-0.043,-1.408 -0.107,-2.678 -0.192,-3.808c-0.086,-1.131 -0.235,-2.315 -0.448,-3.552c-0.171,-1.067 -0.448,-2.198 -0.832,-3.392c0.17,-0.342 0.512,-0.512 1.024,-0.512c0.512,0 0.874,0.49 1.088,1.472c0.042,0.17 0.106,1.024 0.192,2.56l0,0.832c0.042,0.896 0.533,5.12 1.472,12.672c0.853,6.826 1.344,12.394 1.472,16.704c0.17,0.384 0.277,0.96 0.32,1.728c0.085,0.853 0.192,1.429 0.32,1.728l0.064,0l1.024,-6.72c0,-0.598 0.128,-1.622 0.384,-3.072c0.298,-2.262 0.554,-4.48 0.768,-6.656c0.213,-2.603 0.341,-4.864 0.384,-6.784c0.128,-3.072 0.277,-5.12 0.448,-6.144l0.192,-1.6c0.17,-1.622 0.256,-2.411 0.256,-2.368l1.152,-0.512c0.298,0 0.554,0.085 0.768,0.256c0.213,0.17 0.32,0.384 0.32,0.64c0,0.128 -0.064,0.298 -0.192,0.512c1.706,5.76 2.858,12.65 3.456,20.672l0.128,2.368c0.042,1.92 0.192,3.562 0.448,4.928c0.256,1.109 0.49,1.92 0.704,2.432c0.512,-1.451 0.938,-4.992 1.28,-10.624c0.341,-5.632 0.512,-10.518 0.512,-14.656c0,-0.768 0.149,-2.411 0.448,-4.928c0.298,-2.091 0.448,-3.755 0.448,-4.992c0,-0.384 -0.086,-0.747 -0.256,-1.088c0,-0.683 0.426,-1.024 1.28,-1.024c0.341,0 0.565,0.042 0.672,0.128c0.106,0.085 0.16,0.298 0.16,0.64c0,1.194 -0.107,2.112 -0.32,2.752l0.128,0.384c-0.342,1.834 -0.512,3.84 -0.512,6.016c0,0.384 0.042,0.618 0.128,0.704l-0.384,1.28l0.192,0.448c-0.128,0.256 -0.192,0.512 -0.192,0.768l0.192,1.216l-0.192,0.256c0,1.493 -0.171,4.821 -0.512,9.984c-0.342,5.162 -0.598,8.448 -0.768,9.856l-0.384,1.728c-0.256,0.896 -0.384,1.6 -0.384,2.112c0,1.365 -0.064,2.666 -0.192,3.904c-0.043,0.853 -0.214,1.6 -0.512,2.24c-0.299,0.554 -0.619,0.832 -0.96,0.832c-0.47,0 -0.768,-0.256 -0.896,-0.768Zm1.088,-6.848l-0.064,-0.064l0,0.064l0.064,0Z" style="fill-rule:nonzero;"/><path d="M153.118,327.041c-0.214,-0.171 -0.342,-0.32 -0.384,-0.448c0.384,-1.024 0.576,-4.758 0.576,-11.2c0,-1.238 -0.064,-3.008 -0.192,-5.312l-0.32,-4.544l-0.384,-0.832l0.192,-0.768c-0.256,-0.598 -0.64,-1.6 -1.152,-3.008c-0.512,-1.408 -1.024,-2.838 -1.536,-4.288c-1.536,-4.054 -2.539,-6.976 -3.008,-8.768c-0.256,-0.854 -0.448,-1.643 -0.576,-2.368l0.896,-0.704c0.426,0.085 1.045,1.45 1.856,4.096c0.64,1.877 1.216,3.733 1.728,5.568l0.768,2.432c0.768,2.645 1.322,4.01 1.664,4.096l0.256,-1.152l-0.128,-0.32c0.341,-0.427 0.768,-1.942 1.28,-4.544c0.554,-2.987 1.088,-5.504 1.6,-7.552c0.554,-2.39 1.109,-3.584 1.664,-3.584c0.213,0 0.405,0.064 0.576,0.192c0.17,0.128 0.256,0.277 0.256,0.448c0,0.64 -0.64,3.157 -1.92,7.552c-0.64,2.09 -1.174,4.053 -1.6,5.888c-0.512,2.176 -0.768,4.117 -0.768,5.824c0.213,0.426 0.32,0.789 0.32,1.088c0,0.213 -0.064,0.512 -0.192,0.896c-0.128,0.384 -0.192,0.704 -0.192,0.96c0,0.213 0.085,1.173 0.256,2.88c0.17,1.152 0.256,2.133 0.256,2.944c0,1.877 0.021,3.562 0.064,5.056l0,5.376c0,2.901 -0.448,4.352 -1.344,4.352c-0.128,0 -0.299,-0.086 -0.512,-0.256Z" style="fill-rule:nonzero;"/><path d="M166.43,325.825l0,-0.832c0.042,-0.214 0.064,-0.47 0.064,-0.768l-0.256,-0.256c0.341,-0.896 0.512,-1.771 0.512,-2.624c0,-0.982 -0.064,-2.39 -0.192,-4.224l-0.128,-4.224c0,-2.134 0.064,-5.334 0.192,-9.6c0.17,-3.798 0.256,-7.019 0.256,-9.664l-0.128,-3.84c-0.086,-1.152 -0.128,-2.432 -0.128,-3.84c0,-0.64 0.149,-1.099 0.448,-1.376c0.298,-0.278 0.768,-0.416 1.408,-0.416c0.426,0 0.768,0.128 1.024,0.384c0.085,0.042 0.704,0.128 1.856,0.256c1.066,0.128 1.984,0.32 2.752,0.576c0.81,0.256 1.216,0.576 1.216,0.96c0,0.426 -0.406,0.853 -1.216,1.28c-2.432,-0.811 -4.16,-1.216 -5.184,-1.216l-0.32,0.384c0.042,0.384 0.064,1.301 0.064,2.752c0,1.834 -0.043,3.477 -0.128,4.928c-0.043,1.493 -0.064,3.157 -0.064,4.992c0,1.194 0.298,1.792 0.896,1.792l1.024,-0.064c0.341,-0.043 0.704,-0.064 1.088,-0.064c1.664,0 2.496,0.384 2.496,1.152c0,0.469 -0.107,0.864 -0.32,1.184c-0.214,0.32 -0.534,0.48 -0.96,0.48c-0.64,0 -1.131,-0.171 -1.472,-0.512l-2.048,-0.32l-0.32,0l-0.32,0.32l0,0.192c0.085,0.725 0.128,2.41 0.128,5.056c0,1.664 -0.022,3.178 -0.064,4.544l-0.064,4.544c0,1.664 0.064,3.37 0.192,5.12c0.042,0.981 0.256,1.632 0.64,1.952c0.384,0.32 1.088,0.48 2.112,0.48l1.152,-0.064c0.384,-0.043 0.81,-0.064 1.28,-0.064c1.237,0 1.856,0.277 1.856,0.832c0,0.768 -0.939,1.152 -2.816,1.152l-5.248,0c-0.768,0 -1.195,-0.448 -1.28,-1.344Z" style="fill-rule:nonzero;"/><path d="M192.67,327.105c-0.512,-0.555 -1.067,-2.027 -1.664,-4.416c-0.598,-2.39 -1.152,-5.078 -1.664,-8.064c-0.342,-2.432 -0.832,-4.843 -1.472,-7.232c-0.512,-2.134 -1.003,-3.2 -1.472,-3.2l-0.192,0c-0.939,0 -1.408,0.298 -1.408,0.896c0,3.072 0.17,7.744 0.512,14.016c0.17,3.84 0.362,6.08 0.576,6.72l-0.512,1.088l-0.896,0l-0.512,-0.512c-0.683,-19.712 -1.024,-33.152 -1.024,-40.32c0,-0.47 0.032,-0.854 0.096,-1.152c0.064,-0.299 0.202,-0.576 0.416,-0.832c0.17,-0.299 0.469,-0.448 0.896,-0.448c2.176,0 3.925,0.533 5.248,1.6c1.322,1.066 1.984,2.602 1.984,4.608l0,4.672c0,0.81 -0.267,1.898 -0.8,3.264c-0.534,1.365 -1.12,2.624 -1.76,3.776l-0.832,1.6c0.469,2.176 1.397,6.09 2.784,11.744c1.386,5.653 2.144,8.65 2.272,8.992c0.042,0.042 0.096,0.149 0.16,0.32c0.064,0.17 0.202,0.426 0.416,0.768c0.298,0.597 0.448,1.109 0.448,1.536c0,0.597 -0.235,0.896 -0.704,0.896l-0.896,-0.32Zm-5.376,-25.728c0.64,-0.811 1.152,-1.856 1.536,-3.136c0.682,-2.603 1.024,-4.672 1.024,-6.208c0,-0.982 -0.054,-1.792 -0.16,-2.432c-0.107,-0.64 -0.288,-1.323 -0.544,-2.048c-0.512,-1.494 -1.728,-2.24 -3.648,-2.24c-0.214,0 -0.384,0.181 -0.512,0.544c-0.128,0.362 -0.192,0.736 -0.192,1.12c0,2.858 0.042,5.44 0.128,7.744c0.042,2.304 0.064,4.885 0.064,7.744l0.128,0.128c0.81,0 1.536,-0.406 2.176,-1.216Z" style="fill-rule:nonzero;"/></g></g></svg>