<?xml version="1.0" encoding="UTF-8" standalone="no"?><!DOCTYPE svg PUBLIC "-//W3C//DTD SVG 1.1//EN" "http://www.w3.org/Graphics/SVG/1.1/DTD/svg11.dtd"><svg width="100%" height="100%" viewBox="0 0 50 27" version="1.1" xmlns="http://www.w3.org/2000/svg" xmlns:xlink="http://www.w3.org/1999/xlink" xml:space="preserve" xmlns:serif="http://www.serif.com/" style="fill-rule:evenodd;clip-rule:evenodd;stroke-linejoin:round;stroke-miterlimit:2;"><rect id="Hello" x="0" y="0" width="49.013" height="26.954" style="fill:none;"/><g><path d="M16.708,22.858c-0.056,0 -0.107,-0.02 -0.151,-0.06c-0.044,-0.04 -0.066,-0.084 -0.066,-0.133c0,-0.104 0.068,-0.156 0.205,-0.156l0.47,0c0,-0.924 -0.028,-2.089 -0.085,-3.496c-0.032,-1.125 -0.064,-2.009 -0.096,-2.651l0.012,-0.615l0,-0.796c0,-0.401 -0.008,-0.658 -0.024,-0.771l-0.422,0c-0.08,0 -0.12,-0.056 -0.12,-0.169c0,-0.072 0.032,-0.128 0.096,-0.168c0.056,-0.025 0.205,-0.037 0.446,-0.037l0.337,0c0.121,0.008 0.274,0.012 0.458,0.012c0.065,0 0.117,0.015 0.157,0.043c0.04,0.028 0.06,0.07 0.06,0.126c0,0.048 -0.012,0.093 -0.036,0.133c-0.024,0.04 -0.06,0.06 -0.108,0.06c-0.056,0 -0.105,-0.004 -0.145,-0.012l-0.265,0c-0.08,0 -0.129,0.008 -0.145,0.024l-0.024,0.048c0,0.627 0.052,1.893 0.157,3.797c0.096,1.76 0.145,3.025 0.145,3.797l0,0.337c-0.008,0.105 -0.012,0.213 -0.012,0.326l0.433,0c0.185,0 0.278,0.056 0.278,0.168c0,0.049 -0.018,0.095 -0.055,0.139c-0.036,0.044 -0.074,0.066 -0.114,0.066l-0.651,0c-0.193,-0.008 -0.438,-0.012 -0.735,-0.012Z" style="fill-rule:nonzero;stroke:#000;stroke-width:0.24px;"/><path d="M20.215,15.494c0.016,-0.145 0.024,-0.386 0.024,-0.723l0,-0.097c0,-0.683 0.045,-1.024 0.133,-1.024c0.08,0 0.147,0.046 0.199,0.138c0.052,0.093 0.078,0.199 0.078,0.32c0,0.225 -0.046,0.516 -0.138,0.874c-0.093,0.357 -0.175,0.536 -0.248,0.536l-0.048,-0.024Z" style="fill-rule:nonzero;stroke:#000;stroke-width:0.24px;"/><path d="M27.182,22.774l0,-0.796c0,-1.157 -0.024,-2.061 -0.072,-2.712l-0.037,-0.446c-0.032,-0.2 -0.048,-0.377 -0.048,-0.53c0,-0.273 0.008,-0.522 0.024,-0.747l0.024,-0.747c0,-0.25 -0.016,-0.438 -0.048,-0.567c-0.16,0.113 -0.647,1.804 -1.458,5.074l-0.012,0.181c-0.024,0.201 -0.056,0.362 -0.097,0.482c-0.024,0.089 -0.058,0.157 -0.102,0.205c-0.044,0.048 -0.095,0.073 -0.151,0.073c-0.128,0 -0.221,-0.033 -0.277,-0.097c-0.056,-0.064 -0.084,-0.165 -0.084,-0.301c0,-0.217 -0.103,-0.78 -0.308,-1.688c-0.205,-0.908 -0.426,-1.779 -0.663,-2.615c-0.237,-0.836 -0.399,-1.298 -0.488,-1.386c-0.008,0.281 -0.04,0.944 -0.096,1.989c-0.113,1.848 -0.169,3.302 -0.169,4.363l0.012,0.482c-0.032,0.104 -0.116,0.157 -0.253,0.157c-0.024,0 -0.064,-0.023 -0.121,-0.067c-0.056,-0.044 -0.084,-0.078 -0.084,-0.102c0,-0.723 0.064,-1.993 0.193,-3.809c0.12,-1.687 0.181,-2.953 0.181,-3.797c0,-0.04 -0.008,-0.08 -0.024,-0.12c-0.024,-0.048 -0.037,-0.085 -0.037,-0.109c0,-0.12 0.105,-0.18 0.314,-0.18c0.136,0 0.217,0.06 0.241,0.18c0.032,0.161 0.048,0.282 0.048,0.362l0.012,0.145c0.04,0.208 0.157,0.53 0.35,0.964c0.152,0.345 0.269,0.647 0.349,0.904c0.048,0.193 0.093,0.349 0.133,0.47c0.128,0.466 0.213,0.811 0.253,1.036l0.157,0.314c0.024,0.12 0.072,0.317 0.144,0.59c0.073,0.306 0.125,0.555 0.157,0.748c0.032,0.193 0.048,0.377 0.048,0.554c0.089,-0.136 0.34,-0.958 0.753,-2.465c0.414,-1.506 0.657,-2.469 0.73,-2.886c0.008,-0.017 0.014,-0.039 0.018,-0.067c0.004,-0.028 0.01,-0.066 0.018,-0.114c0.016,-0.105 0.052,-0.261 0.108,-0.47c0.065,-0.161 0.161,-0.241 0.29,-0.241c0.056,0 0.12,0.024 0.192,0.072c0.073,0.048 0.109,0.096 0.109,0.145c0,3.35 0.052,5.122 0.157,5.315l0,0.627c-0.008,0.185 -0.012,0.397 -0.012,0.639c0,0.514 0.028,0.9 0.084,1.157c0.008,0.008 0.014,0.02 0.018,0.036c0.004,0.016 0.01,0.036 0.018,0.06c0.008,0.032 0.012,0.068 0.012,0.109c0,0.088 -0.026,0.176 -0.078,0.265c-0.052,0.088 -0.115,0.132 -0.187,0.132c-0.161,0 -0.241,-0.257 -0.241,-0.771Zm-0.157,-6.617l-0.012,0l-0.024,0.012l0.036,0.012l0,-0.024Z" style="fill-rule:nonzero;stroke:#000;stroke-width:0.24px;"/><path d="M31.744,23.166c-0.076,-0.012 -0.159,-0.039 -0.247,-0.079c-0.097,-0.048 -0.169,-0.116 -0.217,-0.205c0,-0.096 0.044,-0.144 0.133,-0.144c0.088,0 0.2,0.028 0.337,0.084c0.129,0.064 0.237,0.097 0.325,0.097c0.177,0 0.34,-0.073 0.489,-0.217c0.148,-0.145 0.263,-0.334 0.343,-0.567c0.161,-0.458 0.241,-0.864 0.241,-1.217c0,-0.394 -0.056,-0.792 -0.169,-1.194c-0.112,-0.401 -0.261,-0.779 -0.446,-1.133c-0.04,-0.088 -0.108,-0.22 -0.204,-0.397c-0.201,-0.402 -0.354,-0.715 -0.458,-0.94c-0.105,-0.225 -0.197,-0.474 -0.278,-0.748c-0.112,-0.361 -0.168,-0.751 -0.168,-1.169c0,-0.265 0.042,-0.52 0.126,-0.765c0.085,-0.245 0.219,-0.456 0.404,-0.633c0.201,-0.185 0.426,-0.277 0.675,-0.277c0.096,0 0.213,0.038 0.349,0.114c0.137,0.077 0.205,0.151 0.205,0.223c0,0.065 -0.024,0.097 -0.072,0.097c-0.048,0 -0.112,-0.02 -0.193,-0.061c-0.072,-0.04 -0.14,-0.06 -0.205,-0.06c-0.185,0 -0.347,0.068 -0.488,0.205c-0.14,0.137 -0.243,0.305 -0.307,0.506c-0.056,0.169 -0.085,0.354 -0.085,0.555c0,0.313 0.041,0.637 0.121,0.97c0.08,0.333 0.189,0.645 0.325,0.934l0.422,0.88l0.121,0.253c0.168,0.346 0.299,0.631 0.391,0.856c0.093,0.225 0.171,0.478 0.236,0.759c0.088,0.378 0.132,0.739 0.132,1.085c0,0.466 -0.12,0.94 -0.361,1.422c-0.121,0.233 -0.282,0.422 -0.483,0.567c-0.201,0.144 -0.421,0.217 -0.663,0.217c-0.144,0 -0.255,-0.006 -0.331,-0.018Z" style="fill-rule:nonzero;stroke:#000;stroke-width:0.24px;"/><path d="M35.535,22.798c-0.04,0 -0.073,0.004 -0.097,0.012l-0.096,0c-0.177,0 -0.289,-0.04 -0.338,-0.12c0,-0.057 0.032,-0.105 0.097,-0.145l0.06,-0.06l0.35,0l0.048,-0.049l0.024,-0.108l0.012,-0.145c0,-0.49 -0.012,-0.928 -0.036,-1.313l-0.024,-0.446l-0.024,-0.88c0,-0.314 0.012,-0.784 0.036,-1.411l0.024,-1.398c0,-0.61 -0.02,-1.076 -0.06,-1.398c-0.073,-0.024 -0.193,-0.036 -0.362,-0.036l-0.133,0.012c-0.048,0.008 -0.1,0.012 -0.156,0.012c-0.153,0 -0.229,-0.068 -0.229,-0.205c0,-0.032 0.036,-0.064 0.108,-0.096c0.073,-0.032 0.133,-0.048 0.181,-0.048c0.305,0 0.611,0.016 0.916,0.048c0.185,0.008 0.37,0.044 0.554,0.108c0.145,0.048 0.217,0.117 0.217,0.205c0,0.016 -0.012,0.048 -0.036,0.097l-0.277,0.024c-0.056,-0.049 -0.173,-0.073 -0.35,-0.073l-0.06,0.037c0.024,0.072 0.036,0.285 0.036,0.638c0,0.531 -0.004,1.009 -0.012,1.435l-0.024,1.434c0,0.362 0.016,0.799 0.048,1.314c0.025,0.586 0.037,1.028 0.037,1.326l0,0.156c-0.008,0.057 -0.012,0.129 -0.012,0.217c0,0.185 0.012,0.298 0.036,0.338l-0.012,0.024c0,0.08 0.088,0.12 0.265,0.12c0.072,0 0.132,-0.004 0.181,-0.012l0.18,0c0.233,0 0.35,0.057 0.35,0.169c0,0.072 -0.024,0.131 -0.072,0.175c-0.049,0.044 -0.113,0.066 -0.193,0.066c-0.073,0 -0.137,-0.008 -0.193,-0.024c-0.064,-0.008 -0.133,-0.012 -0.205,-0.012c-0.048,0 -0.12,0.02 -0.217,0.06c-0.096,0.048 -0.169,0.073 -0.217,0.073c-0.185,0 -0.293,-0.041 -0.325,-0.121Z" style="fill-rule:nonzero;stroke:#000;stroke-width:0.24px;"/><path d="M38.078,22.798c0.016,-0.048 0.024,-0.181 0.024,-0.398c0,-0.739 0.012,-1.836 0.036,-3.29c0.024,-1.447 0.036,-2.491 0.036,-3.134l0.024,-0.434l0.037,-0.362c0,-0.056 0.028,-0.084 0.084,-0.084c0.04,0 0.096,0.012 0.169,0.036l0.036,0.012c0,0.177 -0.004,0.338 -0.012,0.482l0,1.784c0.008,0.386 0.012,0.824 0.012,1.314c-0.008,0.04 -0.012,0.129 -0.012,0.265l-0.012,0.253c-0.008,0.161 -0.012,0.326 -0.012,0.495c0,0.184 0.004,0.353 0.012,0.506l0.012,0.518l-0.036,0.096l0.012,-0.012c0,0.025 -0.004,0.041 -0.012,0.049l0,0.048c0,0.064 0.012,0.12 0.036,0.169l-0.036,1.157l0,0.072c0,0.137 0.004,0.217 0.012,0.241c0,0.04 0.02,0.06 0.06,0.06l0.627,0.024c0.185,0 0.311,0.002 0.379,0.006c0.069,0.004 0.111,0.006 0.127,0.006l0.036,0c0.04,0 0.08,0.023 0.121,0.067c0.04,0.044 0.06,0.09 0.06,0.138c0,0.097 -0.064,0.149 -0.193,0.157c-0.137,-0.008 -0.47,-0.012 -1,-0.012l0.024,0.012c-0.081,0 -0.157,0.004 -0.229,0.012c-0.065,0.016 -0.137,0.024 -0.217,0.024c-0.113,0 -0.181,-0.092 -0.205,-0.277Z" style="fill-rule:nonzero;stroke:#000;stroke-width:0.24px;"/><path d="M42.007,22.955c0,-0.619 -0.098,-1.531 -0.295,-2.736c-0.197,-1.206 -0.456,-2.523 -0.778,-3.954l-0.096,-0.373l-0.157,-0.555c-0.048,-0.169 -0.072,-0.273 -0.072,-0.313c0,-0.024 0.018,-0.054 0.054,-0.091c0.036,-0.036 0.071,-0.054 0.103,-0.054c0.112,0 0.201,0.125 0.265,0.374c0.032,0.104 0.062,0.223 0.09,0.355c0.028,0.133 0.051,0.227 0.067,0.284c0.016,0.12 0.028,0.192 0.036,0.217c0.152,0.618 0.245,1.012 0.277,1.181l0.12,0.614l0.109,0.579l0.108,0.615c0.025,0.217 0.057,0.406 0.097,0.566l0.181,1.181c0,0.033 0.028,0.237 0.084,0.615l0.084,0.591c0.161,-0.523 0.298,-1.318 0.41,-2.387c0.113,-0.996 0.273,-1.997 0.482,-3.001c0.177,-0.868 0.302,-1.499 0.374,-1.892l0.157,-0.061c0.032,0.008 0.062,0.025 0.09,0.049c0.028,0.024 0.042,0.048 0.042,0.072c0,0.177 -0.036,0.418 -0.108,0.723l-0.073,0.313l-0.204,0.953c-0.121,0.522 -0.203,0.924 -0.248,1.205c-0.044,0.281 -0.094,0.687 -0.15,1.217l-0.024,0.278c-0.04,0.433 -0.071,0.727 -0.091,0.879c-0.02,0.153 -0.066,0.35 -0.138,0.591c-0.065,0.241 -0.117,0.454 -0.157,0.639l-0.024,0.277c-0.016,0.281 -0.048,0.53 -0.097,0.747c-0.064,0.274 -0.192,0.41 -0.385,0.41l-0.133,-0.108Zm0.265,-0.868l-0.012,0.024l0.012,0.024l0,-0.048Z" style="fill-rule:nonzero;stroke:#000;stroke-width:0.24px;"/><path d="M45.683,22.798c-0.04,0 -0.072,0.004 -0.096,0.012l-0.096,0c-0.177,0 -0.29,-0.04 -0.338,-0.12c0,-0.057 0.032,-0.105 0.096,-0.145l0.061,-0.06l0.349,0l0.048,-0.049l0.025,-0.108l0.012,-0.145c0,-0.49 -0.012,-0.928 -0.037,-1.313l-0.024,-0.446l-0.024,-0.88c0,-0.314 0.012,-0.784 0.036,-1.411l0.025,-1.398c0,-0.61 -0.021,-1.076 -0.061,-1.398c-0.072,-0.024 -0.193,-0.036 -0.361,-0.036l-0.133,0.012c-0.048,0.008 -0.1,0.012 -0.157,0.012c-0.152,0 -0.229,-0.068 -0.229,-0.205c0,-0.032 0.037,-0.064 0.109,-0.096c0.072,-0.032 0.132,-0.048 0.181,-0.048c0.305,0 0.61,0.016 0.916,0.048c0.185,0.008 0.369,0.044 0.554,0.108c0.145,0.048 0.217,0.117 0.217,0.205c0,0.016 -0.012,0.048 -0.036,0.097l-0.277,0.024c-0.057,-0.049 -0.173,-0.073 -0.35,-0.073l-0.06,0.037c0.024,0.072 0.036,0.285 0.036,0.638c0,0.531 -0.004,1.009 -0.012,1.435l-0.024,1.434c0,0.362 0.016,0.799 0.048,1.314c0.024,0.586 0.036,1.028 0.036,1.326l0,0.156c-0.008,0.057 -0.012,0.129 -0.012,0.217c0,0.185 0.012,0.298 0.036,0.338l-0.012,0.024c0,0.08 0.089,0.12 0.266,0.12c0.072,0 0.132,-0.004 0.18,-0.012l0.181,0c0.233,0 0.35,0.057 0.35,0.169c0,0.072 -0.024,0.131 -0.073,0.175c-0.048,0.044 -0.112,0.066 -0.193,0.066c-0.072,0 -0.136,-0.008 -0.192,-0.024c-0.065,-0.008 -0.133,-0.012 -0.205,-0.012c-0.048,0 -0.121,0.02 -0.217,0.06c-0.097,0.048 -0.169,0.073 -0.217,0.073c-0.185,0 -0.293,-0.041 -0.326,-0.121Z" style="fill-rule:nonzero;stroke:#000;stroke-width:0.24px;"/></g><g><path d="M4.792,25.264c-0.026,-0.035 -0.039,-0.086 -0.039,-0.155l0,-0.154c0.009,-0.035 0.013,-0.082 0.013,-0.142c0,-1.177 -0.043,-2.667 -0.129,-4.471l-0.58,0c-0.481,0 -0.781,0.013 -0.902,0.038c0,0.628 0.035,1.405 0.103,2.333c0.078,1.056 0.116,1.834 0.116,2.332c0,0.129 -0.047,0.193 -0.141,0.193c-0.129,0 -0.194,-0.06 -0.194,-0.18c-0.008,-0.421 -0.027,-1.003 -0.058,-1.746c-0.03,-0.743 -0.058,-1.372 -0.083,-1.888c-0.163,-2.044 -0.245,-4.003 -0.245,-5.875c0,-0.086 0.056,-0.129 0.167,-0.129c0.052,0 0.093,0.015 0.123,0.045c0.03,0.03 0.041,0.071 0.032,0.122l0,0.954c0,0.232 0.021,0.67 0.064,1.314l0.026,0.438c0.017,0.481 0.026,0.769 0.026,0.863l0,0.632c0,0.223 0.021,0.335 0.064,0.335l0.49,-0.026l0.258,-0.026c0.429,-0.034 0.674,-0.051 0.734,-0.051l0.013,-0.026c0,-0.378 -0.021,-1.104 -0.064,-2.178c-0.043,-1.091 -0.065,-1.821 -0.065,-2.19c0,-0.103 0.06,-0.155 0.181,-0.155c0.06,0 0.111,0.015 0.154,0.045c0.043,0.031 0.065,0.071 0.065,0.123c0,1.675 0.03,3.517 0.09,5.527c0.06,2.019 0.09,3.256 0.09,3.711l0,0.181c0,0.068 -0.015,0.129 -0.045,0.18c-0.03,0.052 -0.071,0.077 -0.122,0.077c-0.069,0 -0.116,-0.017 -0.142,-0.051Z" style="fill-rule:nonzero;stroke:#000;stroke-width:0.24px;"/><path d="M7.111,25.122c-0.06,0 -0.114,-0.021 -0.161,-0.064c-0.047,-0.043 -0.071,-0.091 -0.071,-0.142c0,-0.112 0.073,-0.168 0.219,-0.168l0.503,0c0,-0.987 -0.03,-2.233 -0.091,-3.736c-0.034,-1.203 -0.068,-2.148 -0.103,-2.835l0.013,-0.657l0,-0.85c0,-0.43 -0.008,-0.705 -0.025,-0.825l-0.451,0c-0.086,0 -0.129,-0.06 -0.129,-0.18c0,-0.078 0.034,-0.138 0.103,-0.181c0.06,-0.026 0.219,-0.038 0.477,-0.038l0.36,0c0.129,0.008 0.292,0.012 0.49,0.012c0.069,0 0.124,0.016 0.167,0.046c0.043,0.03 0.065,0.075 0.065,0.135c0,0.051 -0.013,0.099 -0.039,0.142c-0.026,0.043 -0.064,0.064 -0.116,0.064c-0.06,0 -0.111,-0.004 -0.154,-0.013l-0.284,0c-0.086,0 -0.137,0.009 -0.154,0.026l-0.026,0.051c0,0.67 0.056,2.023 0.167,4.059c0.103,1.881 0.155,3.234 0.155,4.059l0,0.361c-0.009,0.111 -0.013,0.227 -0.013,0.348l0.464,0c0.197,0 0.296,0.06 0.296,0.18c0,0.051 -0.019,0.101 -0.058,0.148c-0.038,0.047 -0.079,0.071 -0.122,0.071l-0.696,0c-0.206,-0.009 -0.468,-0.013 -0.786,-0.013Z" style="fill-rule:nonzero;stroke:#000;stroke-width:0.24px;"/></g><g id="plants-2" serif:id="plants 2"></g><g><path d="M17.36,13.65c0.006,-0.445 -0.078,-0.904 -0.145,-1.344c-0.212,-1.38 0.162,-3.008 0.179,-4.271" style="fill:none;stroke:#000;stroke-width:0.4px;stroke-linecap:round;stroke-miterlimit:1.5;"/><path d="M17.741,4.963c-0.009,0.624 -0.088,0.729 -0.72,0.721c-0.091,-0.001 -0.575,0.043 -0.61,-0.049c-0.115,-0.299 0.007,-0.908 0.137,-1.159c0.15,-0.288 0.665,-0.255 0.94,-0.252c0.784,0.011 1.117,0.266 1.105,1.115c-0.001,0.101 0.041,0.357 -0.006,0.447c-0.402,0.779 -1.033,0.862 -1.884,0.851c-0.142,-0.002 -0.518,0.06 -0.652,-0.009c-0.283,-0.146 -0.591,-0.745 -0.658,-1.027c-0.136,-0.578 -0.192,-1.353 0.087,-1.892c0.099,-0.194 0.424,-0.288 0.595,-0.4c0.972,-0.629 2.716,-0.455 3.331,0.656c0.482,0.872 0.349,1.604 -0.073,2.422c-0.085,0.165 -0.234,0.534 -0.456,0.604c-0.721,0.229 -1.287,0.647 -2.047,0.788c-0.585,0.108 -1.236,-0.045 -1.747,-0.309c-0.167,-0.086 -0.526,-0.235 -0.523,-0.452" style="fill:none;stroke:#000;stroke-width:0.4px;stroke-linecap:round;stroke-miterlimit:1.5;"/><path d="M17.3,11.458c0.004,-0.307 0.924,-0.51 1.086,-0.675c0.262,-0.266 -0.276,-0.607 -0.085,-1.066c0.16,-0.384 1.289,-0.641 1.296,-1.143c0.001,-0.115 0.033,0.237 -0.005,0.346c-0.045,0.128 -0.105,0.38 -0.17,0.507c-0.296,0.573 -0.143,1.24 -1.012,1.228" style="fill:none;stroke:#000;stroke-width:0.4px;stroke-linecap:round;stroke-miterlimit:1.5;"/><path d="M16.314,13.597c0.005,-0.331 -0.461,-0.929 -0.615,-1.166c-0.031,-0.047 0.178,-0.29 0.227,-0.384c0.094,-0.183 0.167,-0.856 0.075,-1.078c-0.166,-0.403 -1.112,-0.555 -1.105,-1.094c0.001,-0.06 -0.002,0.121 -0.002,0.181c-0.002,0.136 -0.004,0.271 -0.006,0.407c-0.005,0.355 -0.07,0.678 -0.075,1.058c-0.004,0.293 0.005,0.527 0.211,0.731c0.095,0.093 0.605,-0.108 0.603,0.066" style="fill:none;stroke:#000;stroke-width:0.4px;stroke-linecap:round;stroke-miterlimit:1.5;"/><path d="M19.772,8.017c0.139,0.002 0.205,0.132 0.207,-0.013" style="fill:none;stroke:#000;stroke-width:0.5px;stroke-linecap:round;stroke-miterlimit:1.5;"/><path d="M18.407,1.497c-0.001,0.078 -0.002,0.156 -0.003,0.234" style="fill:none;stroke:#000;stroke-width:0.85px;stroke-linecap:round;stroke-miterlimit:1.5;"/><path d="M16.892,1.969c-0.06,-0.001 -0.117,-0.036 -0.116,-0.101" style="fill:none;stroke:#000;stroke-width:0.85px;stroke-linecap:round;stroke-miterlimit:1.5;"/><path d="M15.611,2.361c-0.019,0 -0.039,0 -0.058,0" style="fill:none;stroke:#000;stroke-width:0.85px;stroke-linecap:round;stroke-miterlimit:1.5;"/><path d="M14.199,3.819c0.001,-0.039 0.001,-0.078 0.002,-0.117" style="fill:none;stroke:#000;stroke-width:0.85px;stroke-linecap:round;stroke-miterlimit:1.5;"/><path d="M19.655,2.232c-0.001,0.059 -0.002,0.118 -0.003,0.176" style="fill:none;stroke:#000;stroke-width:0.85px;stroke-linecap:round;stroke-miterlimit:1.5;"/><path d="M20.843,3.157c0,0.062 -0.001,0.123 -0.002,0.184" style="fill:none;stroke:#000;stroke-width:0.85px;stroke-linecap:round;stroke-miterlimit:1.5;"/><path d="M21.286,4.719c-0.084,-0.001 -0.042,0.06 -0.118,0.059" style="fill:none;stroke:#000;stroke-width:0.85px;stroke-linecap:round;stroke-miterlimit:1.5;"/><path d="M21.08,6.806c-0.101,-0.001 -0.202,-0.003 -0.303,-0.004" style="fill:none;stroke:#000;stroke-width:0.85px;stroke-linecap:round;stroke-miterlimit:1.5;"/><path d="M13.818,5.304c-0.113,-0.002 -0.363,-0.064 -0.241,-0.062" style="fill:none;stroke:#000;stroke-width:0.85px;stroke-linecap:round;stroke-miterlimit:1.5;"/><path d="M13.611,7.258c0.001,-0.072 0.002,-0.144 0.003,-0.217" style="fill:none;stroke:#000;stroke-width:0.85px;stroke-linecap:round;stroke-miterlimit:1.5;"/><path d="M14.998,8.605c-0.082,-0.001 -0.159,0.035 -0.157,-0.063" style="fill:none;stroke:#000;stroke-width:0.85px;stroke-linecap:round;stroke-miterlimit:1.5;"/><path d="M18.897,10.234c-0.725,-0.01 0.454,-0.755 0.457,-0.995" style="fill:none;stroke:#000;stroke-width:0.85px;stroke-linecap:round;stroke-miterlimit:1.5;"/><path d="M15.534,11.832c0.004,-0.262 -0.392,-0.609 -0.395,-0.323c-0.001,0.08 0.002,-0.161 0.003,-0.242c0.001,-0.067 -0.015,-0.717 0.125,-0.568c0.253,0.269 0.546,1.03 -0.068,1.022" style="fill:none;stroke:#000;stroke-width:0.85px;stroke-linecap:round;stroke-miterlimit:1.5;"/></g></svg>