<?xml version="1.0" encoding="UTF-8" standalone="no"?><!DOCTYPE svg PUBLIC "-//W3C//DTD SVG 1.1//EN" "http://www.w3.org/Graphics/SVG/1.1/DTD/svg11.dtd"><svg width="100%" height="100%" viewBox="0 0 64 78" version="1.1" xmlns="http://www.w3.org/2000/svg" xmlns:xlink="http://www.w3.org/1999/xlink" xml:space="preserve" xmlns:serif="http://www.serif.com/" style="fill-rule:evenodd;clip-rule:evenodd;stroke-linecap:round;stroke-linejoin:round;stroke-miterlimit:1.5;"><rect id="Artboard9" x="0" y="0" width="63.993" height="77.104" style="fill:none;"/><g><path d="M34.15,75.266c0,-1.277 1.234,-1.566 1.796,-2.128c0.12,-0.12 0.014,-0.992 -0.137,-1.067c-0.861,-0.431 -1.653,-0.827 -1.653,-1.974" style="fill:none;stroke:#000;stroke-width:0.35px;"/><path d="M34.313,69.951c0,-0.745 0.534,-0.386 0.948,-0.8c0.456,-0.456 0.802,-0.763 1.091,-1.327c0.827,-1.621 -3.498,-1.141 -2.56,-3.017c0.396,-0.793 1.817,-0.466 2.181,-1.375c0.795,-1.988 -2.868,-1.358 -1.754,-3.591c0.472,-0.945 1.722,-0.713 2.174,-1.185c1.012,-1.054 -2.201,-2.793 -1.706,-3.633c0.279,-0.473 1.366,-0.843 1.653,-1.226c0.397,-0.532 -1.768,-1.241 -1.89,-1.364c-0.997,-0.996 0.693,-1.281 0.842,-1.505c0.069,-0.104 0.218,-0.897 0.095,-1.02c-0.341,-0.341 -1.353,-0.583 -1.612,-1.09c-0.47,-0.92 2.113,-1.792 2.417,-2.501c0.705,-1.642 -0.601,-2.341 -1.126,-2.886c-0.051,-0.054 -0.136,-1.103 -0.142,-1.138c-0.04,-0.225 -0.101,-0.802 0.142,-0.948c0.23,-0.138 1.151,0.253 0.842,-0.379c-0.372,-0.76 -1.406,-0.933 -1.796,-1.322c-0.483,-0.481 0.4,-1.679 0.563,-1.843c0.455,-0.455 -0.357,-1.862 -0.747,-2.252" style="fill:none;stroke:#000;stroke-width:0.35px;"/><path d="M33.382,35.413c-0.255,0 -0.713,0.63 -0.847,0.853c-0.535,0.887 -1.187,1.7 -1.849,2.417c-0.098,0.107 -0.414,0.754 -0.521,0.759c-0.188,0.007 0,-0.376 0,-0.563c0,-0.236 -0.079,-0.76 0,-0.996c0.332,-0.996 0.061,-2.083 0.426,-3.176c0.057,-0.169 0.459,-1.099 0.238,-1.321c-0.299,-0.299 -0.718,0.486 -1.133,0.569c-0.633,0.126 -1.439,0 -2.085,0c-0.47,0 -0.727,0.142 -1.185,0.142c-0.222,0 -0.885,0 -0.664,0c1.168,0 2.849,-1.461 3.644,-2.276c0.325,-0.332 0.758,-1.042 1.275,-1.042" style="fill:none;stroke:#000;stroke-width:0.35px;"/><path d="M30.731,30.863c-1.338,0 -1.719,-1.839 -2.127,-2.654c-0.096,-0.194 -0.654,-0.907 -0.569,-0.996c0.151,-0.157 0.609,0.11 0.706,0.142c0.942,0.315 2.255,0.01 3.176,0.379c0.14,0.057 0.889,0.245 0.895,0.237c0.322,-0.463 0,-2.28 0,-2.838c0,-0.458 -0.095,-1.369 -0.095,-1.369c0,0 -0.2,0.648 0,0.847c0.436,0.435 1.637,1.095 2.08,1.98c0.164,0.328 0.178,0.329 0.379,0.521c0.2,0.192 -0.372,0.825 -0.095,0.825c0.357,0 0.179,-0.178 0.427,-0.426c0.669,-0.669 1.549,-1.488 2.37,-1.897c0.122,-0.061 0.894,-0.878 1.043,-0.663c0.208,0.299 -0.183,0.787 -0.285,0.99c-0.42,0.841 -1.283,1.583 -1.469,2.512c-0.042,0.212 -0.559,1.004 -0.521,1.043c0.121,0.126 0.655,-0.048 0.847,0c1.22,0.305 2.223,-0.143 3.46,-0.143c0.084,0 1.17,-0.09 1.233,0c0.24,0.346 -1.767,0.997 -1.944,1.085c-1.253,0.626 -2.595,1.7 -3.502,2.607c-0.097,0.097 0,1.013 0,1.132c0,0.921 0.394,1.894 0.664,2.702c0.061,0.183 0.784,1.05 0.658,1.138c-0.467,0.325 -0.828,-0.277 -1.132,-0.427c-0.611,-0.3 -3.129,-1.273 -3.129,-1.991" style="fill:none;stroke:#000;stroke-width:0.35px;"/><path d="M52.454,8.553c-0.026,0 -0.403,-0.072 -0.226,-0.072" style="fill:none;stroke:#000;stroke-width:0.6px;"/><path d="M48.86,10.926c0,0.123 -0.104,0.15 -0.104,0.025" style="fill:none;stroke:#000;stroke-width:0.6px;"/><path d="M46.259,14.176c-0.218,0 -0.162,0.09 -0.301,0.229" style="fill:none;stroke:#000;stroke-width:0.6px;"/><path d="M43.742,16.778l0,0.15" style="fill:none;stroke:#000;stroke-width:0.6px;"/><path d="M42.133,19.161c0,0.112 -0.157,0.189 -0.157,0.3" style="fill:none;stroke:#000;stroke-width:0.6px;"/><path d="M57.145,6.355c0,0.035 -0.221,0.518 -0.379,0.353c-0.416,-0.433 0.011,-0.911 0.496,-0.911c0.185,0 0.391,-0.002 0.515,0.127c0.146,0.151 -0.113,0.569 -0.204,0.659c-0.423,0.424 -0.703,-0.089 -0.703,-0.434" style="fill:none;stroke:#000;stroke-width:0.6px;"/><path d="M40.788,21.392c-0.108,0 -0.053,0.079 -0.154,0.079" style="fill:none;stroke:#000;stroke-width:0.6px;"/><path d="M39.022,23.24l0,0.3" style="fill:none;stroke:#000;stroke-width:0.6px;"/><path d="M32.51,9.783c-0.128,0 -0.128,-0.009 -0.128,-0.154" style="fill:none;stroke:#000;stroke-width:0.6px;"/><path d="M32.232,14.868c0,-0.167 -0.078,-0.123 -0.078,-0.258" style="fill:none;stroke:#000;stroke-width:0.6px;"/><path d="M32.232,18.487c0.153,0 0.287,0.013 0.287,0.154" style="fill:none;stroke:#000;stroke-width:0.6px;"/><path d="M32.209,21.265c0,0.15 0.078,0.221 0.078,0.281" style="fill:none;stroke:#000;stroke-width:0.6px;"/><path d="M13.973,7.154c0.055,0.055 0.258,0.151 0.278,0.151" style="fill:none;stroke:#000;stroke-width:0.6px;"/><path d="M14.633,12.082l0.226,0" style="fill:none;stroke:#000;stroke-width:0.6px;"/><path d="M16.947,15.01c0.266,0 0.546,0.153 0.673,0.153" style="fill:none;stroke:#000;stroke-width:0.6px;"/><path d="M19.496,18.218c0.158,0 0.151,0.015 0.151,0.15" style="fill:none;stroke:#000;stroke-width:0.6px;"/><path d="M22.545,21.37l0,0.31" style="fill:none;stroke:#000;stroke-width:0.6px;"/><path d="M5.885,42.322c0,0.246 0.102,0.387 0.387,0.387" style="fill:none;stroke:#000;stroke-width:0.6px;"/><path d="M8.288,41.321l0.258,0" style="fill:none;stroke:#000;stroke-width:0.6px;"/><path d="M12.158,39.439c0,0.129 -0.043,0.129 0.128,0.129" style="fill:none;stroke:#000;stroke-width:0.6px;"/><path d="M15.64,37.245l0.258,0" style="fill:none;stroke:#000;stroke-width:0.4px;"/><path d="M18.077,36.035c0.128,0 0.257,-0.067 0.257,0.09" style="fill:none;stroke:#000;stroke-width:0.4px;"/><path d="M21.14,34.518c0.129,0 0.129,-0.043 0.129,0.129" style="fill:none;stroke:#000;stroke-width:0.4px;"/><path d="M24.001,34.11c0,0.144 0.129,0.065 0.129,0.258" style="fill:none;stroke:#000;stroke-width:0.4px;"/><path d="M44.879,30.964l0,0.129" style="fill:none;stroke:#000;stroke-width:0.4px;"/><path d="M26.341,26.474l-0.258,0" style="fill:none;stroke:#000;stroke-width:0.4px;"/><path d="M24.476,23.932c0,0.302 0.079,0.891 -0.218,0.891" style="fill:none;stroke:#000;stroke-width:0.4px;"/><path d="M47.929,29.907c0,0.175 0.269,0.282 0.269,0.437" style="fill:none;stroke:#000;stroke-width:0.4px;"/><path d="M51.546,30.344c0.128,0 0.258,-0.067 0.258,0.089" style="fill:none;stroke:#000;stroke-width:0.4px;"/><path d="M55.163,28.463l0,0.476" style="fill:none;stroke:#000;stroke-width:0.4px;"/><path d="M57.889,28.805c0,0.232 0.219,0.052 0.219,0.263" style="fill:none;stroke:#000;stroke-width:0.4px;"/><path d="M39.247,39.488l0,0.347" style="fill:none;stroke:#000;stroke-width:0.4px;"/><path d="M41.036,40.819l0,0.203" style="fill:none;stroke:#000;stroke-width:0.4px;"/><path d="M43.984,42.734c-0.155,0 -0.26,-0.009 -0.26,-0.149" style="fill:none;stroke:#000;stroke-width:0.4px;"/><path d="M46.683,43.879c-0.072,0 -0.147,-0.028 -0.147,-0.096" style="fill:none;stroke:#000;stroke-width:0.4px;"/><path d="M50.506,45.824c0,-0.061 -0.053,-0.093 -0.11,-0.093" style="fill:none;stroke:#000;stroke-width:0.4px;"/><path d="M29.922,42.725c-0.226,0 -0.194,-0.116 -0.321,-0.243" style="fill:none;stroke:#000;stroke-width:0.4px;"/><path d="M28.193,45.258c-0.082,0 -0.21,-0.102 -0.21,-0.171" style="fill:none;stroke:#000;stroke-width:0.4px;"/><path d="M26.099,48.072c-0.069,0 -0.209,-0.14 -0.209,-0.209" style="fill:none;stroke:#000;stroke-width:0.4px;"/><path d="M24.311,50.693c-0.156,0 -0.172,-0.226 -0.34,-0.226" style="fill:none;stroke:#000;stroke-width:0.4px;"/><path d="M29.712,28.307c0,0.093 -0.073,0.708 0,0.759c0.091,0.063 0.353,-0.115 0.416,-0.143c0.049,-0.022 0.096,-0.046 0.143,-0.072c0.166,-0.092 0.334,-0.183 0.513,-0.25c0.044,-0.017 0.461,-0.181 0.499,-0.143c0.046,0.046 -0.011,0.287 -0.03,0.336c-0.134,0.333 -0.188,0.676 -0.292,1.022c-0.057,0.188 -0.083,0.171 -0.107,0.369c-0.009,0.068 -0.036,0.272 -0.036,0.203c0,-0.21 0.18,-0.373 0.322,-0.501c0.442,-0.398 0.886,-0.766 1.419,-1.037c0.068,-0.035 0.503,-0.32 0.608,-0.25c0.063,0.042 -0.387,0.834 -0.394,0.846c-0.334,0.623 -0.592,1.277 -0.906,1.908c-0.184,0.371 -0.346,0.579 -0.346,0.996c0,0.078 0.068,-0.143 0.114,-0.207c0.044,-0.064 0.087,-0.128 0.137,-0.187c0.165,-0.199 0.443,-0.486 0.608,-0.679c0.73,-0.857 1.477,-1.694 2.217,-2.54c0.143,-0.163 0.318,-0.375 0.489,-0.513c0.009,-0.007 0.144,-0.105 0.167,-0.071c0.097,0.14 -0.141,0.31 -0.214,0.463c-0.196,0.409 -0.415,0.807 -0.609,1.216c-0.545,1.158 -0.89,2.411 -1.395,3.589c-0.233,0.546 -0.62,1.015 -0.798,1.55c-0.029,0.087 -0.131,0.238 -0.131,0.332" style="fill:none;stroke:#000;stroke-width:0.1px;"/><path d="M35.253,29.473c0,0.119 -0.033,0.101 -0.143,0.251c-0.193,0.263 -0.397,0.51 -0.572,0.787c-0.397,0.623 -0.687,1.348 -0.906,2.05c-0.124,0.397 -0.286,0.733 -0.286,1.145c0,0.158 -0.01,0.279 -0.036,0.429c-0.01,0.055 0.017,0.114 0,0.167c-0.008,0.022 -0.05,0.078 -0.036,0.06c0.575,-0.753 1.158,-1.509 1.751,-2.251c0.18,-0.225 0.373,-0.47 0.596,-0.656l0.215,-0.143c0.029,-0.018 0.118,-0.058 0.083,-0.059c-0.1,-0.005 -0.155,0.13 -0.211,0.213c-0.112,0.164 -0.214,0.335 -0.322,0.501c-0.441,0.672 -0.852,1.363 -1.288,2.038c-0.06,0.093 -0.48,0.815 -0.668,0.823c-0.04,0.002 0.102,-0.323 0.102,-0.323c0.086,-0.172 0.132,-0.221 0.264,-0.401c0.25,-0.341 0.495,-0.685 0.743,-1.027c0.551,-0.76 1.074,-1.575 1.741,-2.242c0.027,-0.027 0.5,-0.489 0.572,-0.417c0.099,0.099 -0.361,0.722 -0.393,0.775c-0.346,0.573 -0.689,1.146 -1.038,1.717c-0.081,0.133 -0.333,0.467 -0.333,0.632c0,0.069 0.063,-0.124 0.107,-0.178c0.051,-0.061 0.104,-0.121 0.157,-0.18c0.164,-0.18 0.224,-0.241 0.401,-0.402c0.514,-0.467 1.042,-0.914 1.552,-1.385c0.182,-0.167 0.358,-0.356 0.561,-0.501c0.048,-0.034 0.086,-0.088 0.143,-0.107c0.03,-0.01 0.127,0 0.095,0c-0.11,0 -0.308,0.211 -0.358,0.251c-0.272,0.217 -0.533,0.44 -0.787,0.679c-0.034,0.033 -0.303,0.365 -0.357,0.31c-0.065,-0.065 0.114,-0.28 0.131,-0.301c0.196,-0.229 0.408,-0.423 0.653,-0.598c0.252,-0.18 0.511,-0.353 0.773,-0.519c0.211,-0.134 0.456,-0.269 0.684,-0.37c0.054,-0.024 0.26,-0.027 0.286,-0.108c0.006,-0.015 -0.522,0.036 -0.524,0.036c-0.425,0.09 -0.407,0.096 -0.823,0.179c-0.908,0.182 -1.806,0.25 -2.73,0.25c-0.09,0 -0.719,0.032 -0.787,-0.035c-0.064,-0.065 0.066,-0.171 0.095,-0.203c0.085,-0.094 0.167,-0.192 0.251,-0.286c0.391,-0.441 0.822,-0.848 1.252,-1.252c0.009,-0.009 0.52,-0.553 0.632,-0.441c0.108,0.108 -0.037,0.304 -0.072,0.453c-0.151,0.633 -0.31,1.263 -0.465,1.896c-0.125,0.509 -0.252,1.027 -0.37,1.538c-0.043,0.187 -0.003,0.187 -0.071,0.357c-0.009,0.023 -0.056,0.163 -0.096,0.143c-0.135,-0.067 -0.021,-0.302 -0.023,-0.453c-0.006,-0.435 0.065,-0.802 0.195,-1.218c0.26,-0.831 0.482,-1.671 0.747,-2.502c0.127,-0.401 0.217,-0.792 0.475,-1.061c0.051,-0.053 0.069,-0.246 0.107,-0.322c0.1,-0.198 0.201,-0.401 0.298,-0.596c0.013,-0.025 0.031,-0.139 0.06,-0.155c0.06,-0.034 -0.069,0.12 -0.107,0.178c-0.063,0.093 -0.114,0.194 -0.179,0.286c-0.335,0.473 -0.701,0.923 -1.037,1.395c-0.519,0.726 -0.998,1.486 -1.658,2.098c-0.244,0.227 -0.498,0.377 -0.787,0.537c-0.024,0.013 -0.231,0.086 -0.25,0.143c-0.002,0.006 0.218,-0.061 0.23,-0.069c0.089,-0.059 0.014,-0.214 0.036,-0.319c0.132,-0.633 0.165,-0.612 0.25,-1.252c0.07,-0.527 0.246,-1.39 0.107,-1.943c-0.065,-0.262 -0.151,-0.489 -0.19,-0.763c-0.029,-0.203 0.052,-0.723 -0.096,-0.871c-0.058,-0.057 -0.122,0.073 -0.131,0.096c-0.081,0.203 -0.036,0.49 -0.036,0.703c0,0.836 0.117,1.64 0.191,2.468c0.019,0.213 -0.019,0.431 0,0.644c0.002,0.019 0.003,0.364 0.107,0.298c0.14,-0.088 0.167,-0.623 0.179,-0.68c0.175,-0.787 0.418,-1.584 0.418,-2.396c0,-0.034 0.004,0.067 0.004,0.101c0,0.099 -0.048,0.164 -0.076,0.255c-0.101,0.327 -0.185,0.628 -0.358,0.93c-0.542,0.946 -1.36,1.607 -2.372,1.979c-0.156,0.058 -0.619,0.209 -0.787,0.108c-0.116,-0.07 -0.079,-0.301 -0.079,-0.41c0,-0.38 0.365,-0.733 0.401,-1.14c0.006,-0.075 0.052,-0.4 -0.072,-0.441c-0.053,-0.018 -0.003,0.111 0,0.166c0.008,0.163 0.089,0.298 0.179,0.43c0.058,0.084 0.12,0.166 0.179,0.25c0.227,0.329 0.322,0.537 0.322,0.918c0,0.119 0.027,0.231 -0.119,0.268c-0.281,0.07 -0.562,-0.343 -0.728,-0.494c-0.229,-0.211 -0.489,-0.421 -0.679,-0.668c-0.072,-0.093 -0.145,-0.245 -0.179,-0.358c-0.242,-0.806 0.385,-0.71 1.01,-0.523c0.161,0.049 0.485,0.097 0.528,0.309c0.069,0.346 -0.176,0.442 -0.441,0.608c-0.403,0.252 -1.19,0.595 -1.651,0.287c-0.303,-0.201 -0.528,-0.815 -0.233,-1.11c0.233,-0.233 0.681,-0.139 0.956,-0.047c0.719,0.24 1.262,0.637 1.929,0.97c0.293,0.147 0.589,0.213 0.894,0.305c0.111,0.033 0.207,0.074 0.322,0.107c0.03,0.009 0.101,0.05 0.072,0.06c-0.385,0.134 -0.854,-0.288 -0.927,-0.644c-0.031,-0.146 0.024,-0.362 -0.06,-0.489c-0.127,-0.19 -0.549,-0.171 -0.717,-0.396c-0.022,-0.029 -0.152,-0.212 -0.117,-0.248c0.077,-0.081 0.127,0.186 0.177,0.287c0.208,0.416 0.213,0.401 0.393,0.822c0.337,0.786 0.617,1.424 0.752,2.266c0.014,0.087 0.074,0.963 0.178,1.025c0.032,0.019 0.016,-0.072 0.024,-0.107c0.036,-0.16 0.137,-0.368 0.215,-0.501c0.242,-0.413 0.578,-0.76 0.858,-1.145c0.058,-0.079 0.518,-0.734 0.488,-0.655c-0.29,0.749 -0.814,1.4 -1.288,2.038c-0.307,0.414 -0.63,0.908 -1.015,1.266c-0.241,0.223 -0.862,0.768 -1.24,0.541c-0.194,-0.116 -0.226,-0.424 -0.237,-0.626c-0.031,-0.598 -0.104,-1.34 0.143,-1.896c0.109,-0.245 0.337,-0.636 0.68,-0.501c0.282,0.112 0.362,0.495 0.417,0.751c0.096,0.449 0.203,1.193 -0.393,1.348c-0.678,0.175 -0.743,-0.652 -0.573,-1.133c0.05,-0.14 0.227,-0.315 0.322,-0.429c0.148,-0.178 0.503,-0.248 0.62,-0.012c0.258,0.516 -0.643,0.703 -0.977,0.87c-0.747,0.374 -1.491,0.704 -2.266,1.014c-0.143,0.057 -0.545,0.314 -0.715,0.321c-0.093,0.004 0.121,-0.14 0.179,-0.213c0.137,-0.172 0.273,-0.376 0.429,-0.536c0.494,-0.507 1.059,-0.945 1.645,-1.336c0.049,-0.032 0.504,-0.363 0.585,-0.202c0.122,0.245 0.046,0.727 0.059,0.989c0.024,0.478 0.036,0.952 0.036,1.431c0,0.064 0.036,-0.124 0.071,-0.177c0.11,-0.165 0.235,-0.32 0.352,-0.48c0.31,-0.426 0.749,-0.92 1.172,-1.238c0.048,-0.036 0.415,-0.362 0.491,-0.285c0.128,0.127 -0.169,0.463 -0.214,0.536c-0.327,0.53 -0.63,1.082 -0.894,1.645c-0.38,0.809 -0.687,1.641 -1.002,2.469c-0.115,0.302 -0.208,0.616 -0.286,0.929c-0.025,0.102 -0.095,0.299 -0.095,0.299c0,0 -0.011,-0.216 0,-0.322c0.013,-0.131 0.129,-0.527 0.143,-0.573c0.164,-0.564 0.381,-1.104 0.608,-1.645c0.136,-0.326 0.256,-0.69 0.429,-1.002c0.024,-0.044 0.091,-0.155 0.107,-0.107c0.051,0.146 0,0.459 0,0.604c0,0.477 0.043,0.951 0.036,1.431c-0.003,0.212 -0.049,0.372 -0.095,0.572c-0.017,0.071 -0.02,0.144 -0.036,0.215c-0.013,0.058 -0.044,0.221 -0.002,0.178c0.225,-0.227 0.353,-0.53 0.537,-0.787c0.621,-0.865 1.337,-1.666 1.967,-2.527c0.264,-0.361 0.554,-0.745 0.894,-1.037c0.113,-0.097 0.286,-0.141 0.418,-0.167c0.074,-0.015 0.115,-0.04 0.178,-0.072c0.034,-0.017 0.124,-0.07 0.108,-0.036c-0.112,0.235 -0.377,0.466 -0.534,0.677c-0.396,0.535 -0.74,1.123 -1.037,1.717c-0.174,0.347 -0.241,0.459 -0.322,0.775c-0.015,0.059 -0.027,0.119 -0.036,0.179c-0.006,0.043 -0.036,0.155 0,0.131c0.203,-0.132 0.375,-0.412 0.57,-0.569c0.297,-0.242 0.393,-0.3 0.715,-0.537c0.096,-0.071 0.194,-0.138 0.286,-0.215c0.052,-0.043 0.093,-0.097 0.143,-0.143c0.638,-0.58 -0.135,0.488 -0.204,0.726c-0.003,0.01 -0.106,0.287 -0.083,0.31c0.018,0.018 0.483,-0.281 0.548,-0.31c0.003,-0.001 0.178,-0.066 0.179,-0.036c0.001,0.043 -0.171,0.178 -0.213,0.214c-0.245,0.204 -0.323,0.34 -0.441,0.643c-0.018,0.044 -0.08,0.205 -0.036,0.251c0.032,0.033 0.197,-0.028 0.213,-0.036c0.207,-0.104 0.33,-0.215 0.572,-0.215c0.013,0 0.208,-0.014 0.215,0c0.04,0.081 -0.143,0.232 -0.179,0.287c-0.08,0.119 -0.348,0.477 -0.274,0.631c0.009,0.02 0.301,0 0.32,0" style="fill:none;stroke:#000;stroke-width:0.1px;"/></g></svg>