<?xml version="1.0" encoding="UTF-8" standalone="no"?><!DOCTYPE svg PUBLIC "-//W3C//DTD SVG 1.1//EN" "http://www.w3.org/Graphics/SVG/1.1/DTD/svg11.dtd"><svg width="100%" height="100%" viewBox="0 0 613 795" version="1.1" xmlns="http://www.w3.org/2000/svg" xmlns:xlink="http://www.w3.org/1999/xlink" xml:space="preserve" xmlns:serif="http://www.serif.com/" style="fill-rule:evenodd;clip-rule:evenodd;stroke-linecap:round;stroke-linejoin:round;stroke-miterlimit:1.5;"><rect id="Cat" x="0" y="0" width="612.286" height="794.122" style="fill:none;"/><g><path d="M160.734,596.068l-0.732,-71.154l-8.237,-158.844c-4.102,-27.783 -4.402,-56.334 -0.111,-85.81l-4.902,-9.145c-8.317,-31.811 -9.426,-66.355 -6.34,-102.49c11.564,30.21 27.235,54.839 49.305,70.772" style="fill:none;stroke:#000;stroke-width:3.5px;"/><path d="M193.482,236.311c2.349,0 5.591,-3.697 7.074,-5.18c2.186,-2.187 6.066,-1.895 8.77,-2.797c2.159,-0.721 4.043,-1.575 5.974,-2.543c2.458,-1.231 7.839,0.887 9.488,-0.762c0.42,-0.42 2.732,0.479 3.051,0c0.948,-1.421 5.008,-1.549 6.737,-2.415c3.234,-1.62 7.654,0.646 10.902,-0.748c3.035,-1.303 6.545,-1.216 9.915,-1.779c2.004,-0.334 3.903,-1.497 5.847,-1.78c4.66,-0.678 11.14,1.729 15.462,0c1.52,-0.608 3.655,-0.171 5.338,-0.508c4.346,-0.87 8.782,-1.018 13.301,-1.018c2.812,0 8.696,2.942 11.522,1.526c2.679,-1.342 5.691,-2.917 8.77,-3.559c1.214,-0.253 3.509,-0.1 4.578,-0.635c7.422,-3.718 20.208,-5.11 28.284,-2.415c3.193,1.066 8.096,-0.143 11.17,1.397c8.269,4.142 18.039,5.742 26.887,8.389c3.638,1.089 8.08,0.071 10.425,2.415c0.697,0.698 1.524,0.244 1.524,1.512" style="fill:none;stroke:#000;stroke-width:3.5px;"/><path d="M399.692,213.681c0,-8.741 4.244,-15.498 5.974,-24.136c0.824,-4.11 1.195,-9.693 3.305,-12.951c3.117,-4.812 6.777,-10.163 9.915,-15.38c0.952,-1.582 2.106,-2.374 2.543,-3.686c1.168,-3.513 6.338,-7.635 8.867,-8.899c0.683,-0.342 2.95,-1.577 3.768,-0.35c0.826,1.239 -0.175,3.346 0.253,4.769c1.424,4.742 0.763,10.59 0.763,15.634c0,1.493 -0.631,4.949 0,6.214c1.986,3.979 0.179,9.997 1.271,14.333c0.507,2.012 1.279,2.578 1.891,4.419c0.328,0.987 -0.33,2.303 0,3.29c1.829,5.481 1.952,11.942 3.813,17.541c0.952,2.86 0.021,6.555 0.764,9.533c0.872,3.493 3.177,8.447 3.177,11.807" style="fill:none;stroke:#000;stroke-width:3.5px;"/><path d="M438.94,236.311l7.056,178.682c-4.646,21.04 -4.775,41.508 0,57.103l0,46.089l6.837,62.553" style="fill:none;stroke:#000;stroke-width:3.5px;"/><path d="M211.349,292.974c-2.201,0 -5.31,-1.376 -7.533,-0.637c-2.927,0.973 -4.391,3.093 -7.056,4.456c-1.884,0.964 -2.471,1.749 -3.76,3.289c-0.487,0.582 -1.504,1.157 -1.851,1.851c-0.199,0.398 -0.23,0.862 -0.477,1.22c-1.471,2.126 -3.088,4.209 -4.297,6.631c-0.186,0.372 -0.763,2.281 -0.584,2.646c0.155,0.316 0.285,0.866 0.153,1.261c-0.696,2.086 -0.955,4.229 -0.955,6.572c0,1.887 -0.159,3.767 -0.159,5.676c0,0.403 -0.175,1.395 0,1.804c0.561,1.309 0.933,3.094 1.691,4.231c0.24,0.36 0.103,1.164 0.478,1.539c0.96,0.96 2.309,3.056 2.864,4.35c0.286,0.664 1.321,0.995 1.645,1.645c0.778,1.562 3.044,2.959 4.172,3.806c0.642,0.482 1.039,1.475 1.697,1.805c4.148,2.077 8.801,2.615 13.506,2.615c3.009,0 5.158,-2.322 7.609,-3.465c1.509,-0.703 3.294,-1.296 4.721,-2.227c0.932,-0.608 1.73,-1.747 2.582,-2.598c3.937,-3.929 6.21,-8.561 7.339,-13.842c0.982,-4.592 -0.696,-9.704 -1.751,-14.006c-0.154,-0.63 -1.475,-1.779 -1.903,-2.493c-0.951,-1.586 -1.985,-3.646 -3.395,-4.88c-1.251,-1.095 -2.537,-2.321 -3.873,-3.29c-0.384,-0.278 -0.94,-0.285 -1.271,-0.616c-0.613,-0.614 -1.013,-1.427 -1.574,-2.083c-0.722,-0.843 -2.047,-1.361 -2.972,-1.91c-1.604,-0.952 -3.234,-2.65 -4.827,-3.448c-0.388,-0.194 -2.432,-0.159 -2.699,-0.159" style="fill:none;stroke:#000;stroke-width:3.5px;"/><path d="M370.326,289.258c-1.568,0.177 -4.574,-2.366 -6.213,-2.911c-4.272,-1.423 -10.089,-0.517 -13.83,1.975c-3.027,2.017 -5.278,7.535 -6.031,10.918c-0.245,1.102 -0.035,2.985 -0.519,3.952c-0.508,1.014 -1.548,2.601 -1.548,0.506c0,-0.516 0,1.032 0,1.548l0,10.386c0,7.635 0.958,15.642 3.224,22.459c0.174,0.524 1.463,1.201 1.755,1.444c1.052,0.877 2.066,2.69 3.315,3.315c1.39,0.695 3.821,-0.313 5.382,0c3.838,0.769 5.692,3.221 9.45,4.47c3.216,1.07 6.818,-0.649 9.566,-1.559c0.304,-0.101 -0.632,0.911 -0.312,0.911c0.662,0 1.548,0.127 2.183,0c2.816,-0.563 6.277,-4.055 7.8,-6.343c1.576,-2.368 3.146,-3.865 4.262,-6.655c1.304,-3.258 0.936,-7.425 0.936,-10.918c0,-2.8 0.901,-7.87 0,-10.581c-1.704,-5.124 -3.247,-9.605 -6.031,-14.245c-2.059,-3.431 -2.708,-6.809 -4.783,-9.775c-0.662,-0.946 -2.347,-2.911 -3.211,-2.911" style="fill:none;stroke:#000;stroke-width:3.5px;"/><path d="M364.204,290.643c0,2.329 -0.25,7.052 -1.559,9.008c-1.599,2.389 -4.804,5.585 -6.343,7.8c-0.481,0.69 0.354,1.93 0.624,2.47c1.024,2.049 2.431,3.819 3.431,5.823c1.963,3.934 2.73,10.434 5.408,14.453c1.534,2.303 4.574,7.305 4.574,9.554c0,0.528 -0.457,-0.955 -0.623,-1.456c-0.38,-1.144 -0.538,-2.569 -0.832,-3.743c-0.841,-3.359 0.069,-6.88 1.351,-10.087c1.649,-4.124 4.195,-8.499 6.135,-12.373c0.325,-0.648 2.101,-3.629 1.248,-4.446c-1.853,-1.778 -6.686,-5.016 -7.383,-7.799c-0.612,-2.444 -4.102,-6.966 -6.641,-6.966" style="fill:none;stroke:#000;stroke-width:3.5px;"/><path d="M213.511,301.981c-0.946,0 -2.759,2.134 -3.432,2.807c-1.595,1.596 -3.506,3.507 -4.887,4.887c-1.007,1.008 -0.952,2.835 -1.663,4.056c-1.463,2.511 -5.671,4.645 -6.643,6.863c-0.157,0.359 0.614,0.505 0.832,0.831c0.874,1.312 1.485,2.797 2.183,4.056c2.826,5.091 4.325,12.296 8.528,16.116c0.488,0.444 -0.941,-0.956 -1.236,-1.546c-0.51,-1.021 -0.84,-2.378 -1.248,-3.432c-1.209,-3.125 -2.362,-6.709 -0.727,-9.775c2.682,-5.028 4.457,-10.514 8.109,-15.077c1.386,-1.731 2.562,-3.603 4.16,-5.198c0.318,-0.318 1.687,-1.546 1.547,-1.756c-0.119,-0.18 -3.526,-0.206 -3.951,-0.312c-1.328,-0.331 -2.941,-2.304 -4.472,-1.664c-0.619,0.259 -0.182,1.078 -0.299,1.548c-0.552,2.212 -1.46,4.332 -1.976,6.654c-0.434,1.956 -0.623,4.36 -0.623,6.344l0,1.871c0,0.347 -0.211,1.315 0,1.04c0.802,-1.047 0.333,-2.285 0.612,-3.406c0.478,-1.927 1.672,-3.806 2.495,-5.616c0.43,-0.946 0.655,-1.951 1.039,-2.911c0.16,-0.398 0.313,-1.676 0.313,-1.247c0,2.559 -2.591,7.48 -4.783,8.941c-1.783,1.188 -3.442,-0.728 -5.2,-0.728c-0.025,0 -1.399,-0.085 -1.456,0c-0.471,0.707 -0.015,1.597 -0.311,2.288c-0.429,1.001 -1.367,1.588 -1.768,2.391c-0.927,1.86 0.611,4.715 1.56,6.135c0.4,0.601 1.826,3.507 3.015,2.912c1.212,-0.606 -0.716,-6.342 1.976,-6.342" style="fill:none;stroke:#000;stroke-width:3.5px;"/><path d="M367.34,304.214c0,2.197 0.218,4.539 -0.311,6.655c-0.047,0.188 -0.609,1.251 -0.312,1.56c0.334,0.349 5.993,-0.625 6.538,-0.625c1.607,0 3.309,0.625 4.679,0.625c0.425,0 -0.873,-0.09 -1.235,-0.312c-0.664,-0.409 -1.762,-1.555 -2.184,-1.872c-1.442,-1.082 -2.75,-2.253 -3.743,-3.743c-0.1,-0.151 -0.893,-1.002 -1.144,-0.625c-0.377,0.567 0.137,2.123 0,2.809c-0.113,0.563 -0.175,1.311 -0.312,1.871c-0.116,0.471 -1.447,2.093 -1.963,1.351c-0.235,-0.338 0.081,-0.831 0,-1.235c-0.243,-1.213 -3.223,-3.908 -4.264,-3.951c-0.73,-0.03 0.128,1.586 -0.311,2.171c-0.303,0.404 -4.309,3.328 -4.758,2.392c-0.528,-1.099 -1.283,-5.722 -0.625,-6.759c0.43,-0.675 1.99,-0.939 2.392,-1.352c0.745,-0.762 1.279,-2.718 2.288,-3.224c0.28,-0.14 -2.381,3.502 -2.807,4.355c-1.232,2.465 -1.943,9.179 -0.937,11.75c0.39,0.995 1.711,1.403 2.184,1.873c0.769,0.763 1.055,2.933 1.871,4.158c1.641,2.46 3.663,4.714 5.304,7.175c1.228,1.842 1.595,3.049 3.224,4.679c0.14,0.14 1.043,1.552 1.247,1.56c0.46,0.019 -0.368,-0.851 -0.624,-1.235c-0.375,-0.561 -0.312,-0.842 -0.312,-1.56c0,-2.819 -0.624,-5.496 -0.624,-8.318" style="fill:none;stroke:#000;stroke-width:3.5px;"/><path d="M277.578,355.913c7.59,0 14.154,2.227 21.845,2.227c3.149,0 6.948,-0.425 9.748,0.697c0.895,0.359 2.917,-0.548 3.709,0c0.565,0.391 -3.967,3.897 -4.596,4.316c-2.984,1.988 -5.443,6.023 -8.771,8.355c-3.563,2.497 -8.229,7.995 -9.33,12.393c-0.481,1.922 -1.564,6.374 -2.646,7.502c-0.296,0.309 -1.028,-0.018 -1.22,-0.401c-1.177,-2.35 -1.822,-3.514 -3.899,-5.57c-4.456,-4.412 -10.427,-8.617 -14.202,-12.392" style="fill:none;stroke:#000;stroke-width:3.5px;"/><path d="M307.379,395.109c23.992,0 44.096,-10.351 67.418,-16.189c10.906,-2.731 23.243,-1.417 32.818,-6.204c5.663,-2.832 15.376,0.714 21.585,-1.351c11.16,-3.71 22.528,-7.014 35.343,-7.014" style="fill:none;stroke:#000;stroke-width:3.5px;"/><path d="M314.122,397.628c10.402,0 20.933,0.655 30.81,-1.314c6.223,-1.241 13.192,0.788 19.491,0c4.207,-0.527 7.983,-2.155 12.272,-2.63c18.863,-2.09 38.602,0.437 57.418,0.437" style="fill:none;stroke:#000;stroke-width:3.5px;"/><path d="M434.767,417.691c-8.231,-1.641 -16.857,-2.653 -24.914,-4.969c-10.073,-2.894 -19.446,-7.344 -30.147,-8.694c-10.212,-1.288 -20.191,1.666 -30.315,1.105c-9.198,-0.51 -18.329,-4.436 -27.477,-5.48c-2.688,-0.307 -5.222,0.746 -7.792,0.234" style="fill:none;stroke:#000;stroke-width:3.5px;"/><path d="M282.493,395.692c-10.94,0 -23.836,-2.136 -34.506,0c-28.337,5.674 -56.908,14.263 -86.726,18.528c-10.418,1.49 -20.377,5.011 -30.609,6.711c-1.56,0.259 -9.131,0.273 -9.131,1.613" style="fill:none;stroke:#000;stroke-width:3.5px;"/><path d="M270.411,398.329c-3.391,0 -9.974,-1.341 -13.329,0c-11.712,4.683 -19.939,14.443 -33.026,17.721c-6.671,1.671 -14.361,5.176 -20.675,8.321c-6.642,3.309 -14.971,3.714 -22.285,5.908c-15.113,4.534 -31.574,10.472 -47.493,10.472" style="fill:none;stroke:#000;stroke-width:3.5px;"/><path d="M279.781,397.733c-5.452,0 -8.379,3.874 -13.028,6.015c-16.941,7.802 -33.598,16.414 -50.676,26.763c-18.271,11.072 -38.225,13.31 -56.16,27.069c-8.436,6.472 -17.929,13.67 -28.208,15.636c-1.56,0.299 -10.188,1.632 -10.188,0.037" style="fill:none;stroke:#000;stroke-width:3.5px;"/></g></svg>