<?xml version="1.0" encoding="UTF-8" standalone="no"?><!DOCTYPE svg PUBLIC "-//W3C//DTD SVG 1.1//EN" "http://www.w3.org/Graphics/SVG/1.1/DTD/svg11.dtd"><svg width="100%" height="100%" viewBox="0 0 1118 773" version="1.1" xmlns="http://www.w3.org/2000/svg" xmlns:xlink="http://www.w3.org/1999/xlink" xml:space="preserve" xmlns:serif="http://www.serif.com/" style="fill-rule:evenodd;clip-rule:evenodd;stroke-linecap:round;stroke-linejoin:round;stroke-miterlimit:1.5;"><rect id="Artboard13" x="0" y="0" width="1117.93" height="772.451" style="fill:none;"/><g id="present"><path d="M341.694,316.001c0,70.488 -4.081,140.497 -4.081,211.204c0,6.31 -5.644,16.108 0,18.93c6.09,3.045 98.03,-26.725 110.128,-28.641c31.783,-5.031 115.549,2.064 120.006,-6.826c5.433,-10.835 -28.529,-88.879 -30.005,-103.623c-2.95,-29.463 -4.096,-58.911 -4.096,-88.651c0,-3.374 2.04,-22.412 0,-24.376c-0.98,-0.943 -2.72,0 -4.081,0c-61.372,0 -130.01,23.179 -190.924,23.179" style="fill:none;stroke:#000;stroke-width:4px;"/><path d="M355.178,444.889l188.178,0" style="fill:none;stroke:#000;stroke-width:4px;"/><path d="M452.159,533.203c0,-50.549 12.353,-118.194 0,-167.561c-5.216,-20.843 -12.273,-40.621 -12.273,-62.742" style="fill:none;stroke:#000;stroke-width:4px;"/><path d="M439.886,302.9c0,-16.481 -37.347,-51.871 -43.643,-70.734c-9.509,-28.494 7.95,-62.989 24.391,-24.544c13.008,30.415 5.411,69.483 18.915,96.49c6.225,12.45 10.753,-8.216 10.753,-16.537c0,-31.204 2.439,-50.699 27.275,-61.361c80.47,-34.542 4.16,39.321 -23.179,53.016c-21.018,10.529 -33.552,47.377 -53.184,61.361c-10.133,7.218 -13.273,22.815 -21.829,31.371" style="fill:none;stroke:#000;stroke-width:4px;"/><path d="M440.423,325.604c32.154,0 55.476,35.282 74.186,35.282" style="fill:none;stroke:#000;stroke-width:4px;"/><g><path d="M71.943,577.276c-0.741,-2.39 -3.001,-3.635 -5.405,-3.693c-2.627,-0.062 -4.779,1.52 -6.248,3.581c-1.66,2.326 -2.269,5.16 -2.958,7.882c-0.684,2.699 -1.33,5.409 -1.893,8.136c-0.844,4.091 -1.443,8.215 -1.897,12.366c-0.535,4.898 -1.172,9.816 -1.544,14.728c-0.18,2.381 -0.119,5.431 2.082,6.917c2.388,1.613 5.495,0.209 7.668,-1.108c1.854,-1.123 0.101,-3.993 -1.753,-2.87c-0.887,0.538 -3.366,2.132 -4.262,0.987c-0.863,-1.104 -0.438,-3.46 -0.312,-4.73c0.418,-4.203 0.882,-8.404 1.333,-12.603c0.856,-7.963 2.437,-15.73 4.476,-23.473c0.576,-2.186 1.433,-4.669 3.445,-5.949c1.181,-0.751 3.545,-0.818 4.046,0.797c0.641,2.066 3.866,1.106 3.222,-0.968l0,0Z" style="fill:#737373;fill-rule:nonzero;stroke:#000;stroke-width:0.25px;stroke-linecap:butt;stroke-miterlimit:2;"/><path d="M82.794,630.737c-0.345,0.038 -0.654,0.14 -0.914,0.306c-0.395,-0.101 -0.794,-0.235 -1.143,-0.316c-0.77,-0.178 -1.54,-0.357 -2.311,-0.535c-1.057,-0.245 -2.115,-0.49 -3.173,-0.735c3.008,-10.579 5.575,-21.279 7.694,-32.069c0.874,0.167 1.748,0.333 2.622,0.5c0.554,0.106 1.108,0.211 1.663,0.317c0.277,0.053 0.554,0.106 0.831,0.158c0.103,0.02 0.206,0.04 0.309,0.059c0.563,1.042 2.195,1.488 2.912,0.149c1.003,-1.877 -0.648,-3.131 -2.336,-3.452c-1.789,-0.342 -3.579,-0.683 -5.369,-1.024c0.838,-4.465 1.6,-8.945 2.284,-13.437c0.267,0.122 0.533,0.244 0.801,0.363c0.718,0.319 1.441,0.627 2.166,0.93c1.499,0.626 3.016,1.206 4.547,1.749c2.04,0.725 2.916,-2.524 0.885,-3.244c-2.77,-0.984 -5.391,-2.287 -8.126,-3.338c-2.319,-0.891 -4.678,1.101 -3.613,3.267c-2.59,16.839 -6.261,33.501 -10.994,49.868c-0.245,0.849 0.302,1.862 1.18,2.065c2.94,0.681 5.874,1.404 8.824,2.043c1.2,0.26 2.794,0.266 3.199,-1.221c0.32,-1.172 -0.658,-2.546 -1.938,-2.403l0,0Z" style="fill:#737373;fill-rule:nonzero;stroke:#000;stroke-width:0.25px;stroke-linecap:butt;stroke-miterlimit:2;"/><path d="M103.159,584.881c-1.343,17.428 -4.167,34.714 -8.409,51.67c-0.234,0.934 0.316,1.75 1.187,2.061c3.475,1.24 7.029,2.211 10.652,2.909c2.113,0.408 3.003,-2.837 0.874,-3.248c-3.623,-0.698 -7.178,-1.669 -10.653,-2.909c0.396,0.687 0.792,1.373 1.188,2.06c4.315,-17.244 7.159,-34.841 8.525,-52.564c0.166,-2.155 -3.198,-2.128 -3.364,0.021l0,0Z" style="fill:#737373;fill-rule:nonzero;stroke:#000;stroke-width:0.25px;stroke-linecap:butt;stroke-miterlimit:2;"/><path d="M128.892,642.503c-0.343,0.055 -0.647,0.172 -0.899,0.35c-0.399,-0.082 -0.804,-0.197 -1.156,-0.261c-0.778,-0.141 -1.556,-0.282 -2.334,-0.423c-1.068,-0.194 -2.137,-0.388 -3.205,-0.582c2.498,-10.712 4.549,-21.522 6.148,-32.401c0.881,0.124 1.762,0.249 2.643,0.373c0.559,0.079 1.117,0.158 1.676,0.237c0.279,0.04 0.558,0.079 0.838,0.119c0.104,0.014 0.208,0.029 0.312,0.044c0.612,1.014 2.264,1.381 2.915,0.008c0.912,-1.922 -0.797,-3.095 -2.498,-3.336c-1.804,-0.255 -3.608,-0.51 -5.412,-0.765c0.623,-4.5 1.169,-9.011 1.637,-13.531c0.272,0.109 0.544,0.218 0.817,0.324c0.733,0.285 1.47,0.558 2.209,0.825c1.527,0.554 3.07,1.06 4.625,1.53c2.073,0.626 2.792,-2.661 0.729,-3.284c-2.814,-0.849 -5.494,-2.025 -8.277,-2.944c-2.359,-0.779 -4.62,1.324 -3.452,3.436c-1.78,16.944 -4.649,33.763 -8.591,50.338c-0.205,0.859 0.391,1.845 1.277,2.006c2.97,0.539 5.935,1.121 8.911,1.618c1.212,0.202 2.804,0.131 3.138,-1.373c0.263,-1.186 -0.78,-2.512 -2.051,-2.308l0,0Z" style="fill:#737373;fill-rule:nonzero;stroke:#000;stroke-width:0.25px;stroke-linecap:butt;stroke-miterlimit:2;"/><path d="M148.041,641.179c-0.982,2.485 -3.229,6.439 -6.474,5.777c0.001,-0.008 0.004,-0.015 0.005,-0.023c1.604,-8.532 2.926,-17.115 3.95,-25.736c0.174,-1.466 0.336,-2.934 0.493,-4.402c0.781,-0.268 1.519,-0.618 2.213,-1.034c0.19,0.033 0.382,0.084 0.572,0.152c1.307,0.464 1.976,1.715 2.319,2.988c0.415,1.541 0.387,3.217 0.354,4.8c-0.042,2.002 -0.219,4.002 -0.496,5.985c-0.546,3.912 -1.482,7.815 -2.936,11.493l0,0Zm3.134,-41.868c0.936,1.892 0.786,4.221 0.334,6.222c-0.614,2.72 -2.117,5.256 -4.338,6.869c-0.244,0.024 -0.485,0.062 -0.722,0.117c0.129,-1.351 0.254,-2.703 0.368,-4.056c0.187,-2.199 0.354,-4.399 0.503,-6.601c0.069,-1.028 0.134,-2.056 0.195,-3.084c0.029,-0.495 0.035,-1 0.076,-1.496c1.465,-0.285 2.899,0.642 3.584,2.029l0,0Zm3.641,24.276c0.078,-3.254 -0.109,-6.939 -2.556,-9.388c-0.328,-0.329 -0.701,-0.617 -1.103,-0.862c2.107,-2.324 3.466,-5.38 3.891,-8.467c0.39,-2.834 0.14,-6.102 -1.725,-8.413c-1.265,-1.566 -3.26,-2.622 -5.261,-2.627c-0.181,-0.115 -0.384,-0.205 -0.601,-0.265c-1.39,-0.385 -2.528,0.712 -2.943,1.939c-0.532,1.571 -0.361,3.483 -0.469,5.125c-0.241,3.67 -0.535,7.337 -0.882,10.999c-0.7,7.397 -1.617,14.773 -2.748,22.116c-0.65,4.218 -1.373,8.423 -2.161,12.616c-0.123,0.654 0.105,1.16 0.491,1.487c-0.216,0.744 0.108,1.754 0.887,2.02c3.494,1.194 7.088,-0.324 9.257,-3.211c2.292,-3.051 3.378,-7.046 4.29,-10.694c1.013,-4.053 1.532,-8.2 1.633,-12.375l0,0Z" style="fill:#737373;fill-rule:nonzero;stroke:#000;stroke-width:0.25px;stroke-linecap:butt;stroke-miterlimit:2;"/><path d="M172.499,605.992c-0.374,2.277 -2.531,3.753 -4.739,4.093c-0.271,-0.073 -0.552,-0.121 -0.842,-0.141c0.559,-2.931 1.143,-5.859 1.751,-8.781c2.306,0.101 4.212,2.506 3.83,4.829l0,0Zm-4.07,46.173c-0.852,-3.948 -0.008,-7.859 0.693,-11.76c0.753,-4.19 1.384,-8.402 1.888,-12.629c0.261,-2.186 0.488,-4.376 0.682,-6.57c0.16,-1.812 0.431,-3.697 0.247,-5.517c-0.11,-1.09 -0.476,-2.171 -1.043,-3.097c2.551,-1.162 4.581,-3.37 4.956,-6.298c0.555,-4.334 -3.223,-8.825 -7.661,-8.501c-0.9,-0.442 -2.219,-0.155 -2.49,1.126c-3.618,17.141 -6.406,34.45 -8.355,51.859c-0.239,2.14 3.069,2.752 3.31,0.596c1.421,-12.688 3.289,-25.322 5.597,-37.877c0.351,0.017 0.704,0.012 1.057,-0.01c0.537,0.333 0.937,1.001 1.103,1.547c0.451,1.487 0.171,3.183 0.044,4.699c-0.32,3.803 -0.741,7.598 -1.263,11.379c-0.513,3.713 -1.166,7.398 -1.816,11.088c-0.595,3.384 -1.033,6.874 -0.3,10.271c0.191,0.884 0.846,1.616 1.828,1.522c0.82,-0.078 1.716,-0.931 1.523,-1.828l0,0Z" style="fill:#737373;fill-rule:nonzero;stroke:#000;stroke-width:0.25px;stroke-linecap:butt;stroke-miterlimit:2;"/><path d="M192.358,607.111c0.344,1.547 0.419,3.177 0.468,4.754c0.092,2.923 -0.029,5.841 -0.292,8.75c-1.469,-0.235 -2.939,-0.469 -4.409,-0.704c1.411,-4.267 2.822,-8.533 4.233,-12.8l0,0Zm3.235,16.51c0.378,-0.525 0.468,-1.264 0.198,-1.837c0.326,-3.322 0.487,-6.658 0.393,-10.001c-0.1,-3.56 -0.457,-7.316 -2.668,-10.256c-0.674,-0.896 -2.475,-1.057 -2.898,0.224c-5.673,17.152 -11.346,34.305 -17.018,51.457c-0.287,0.869 -0.106,1.807 0.783,2.247c0.731,0.362 1.961,0.079 2.246,-0.783c3.475,-10.509 6.951,-21.018 10.426,-31.527c1.707,0.273 3.414,0.545 5.12,0.818c-0.824,6.67 -2.215,13.262 -3.502,19.854c-0.812,4.16 -1.624,8.321 -2.437,12.481c-0.414,2.125 2.894,2.732 3.309,0.606c1.474,-7.551 3.006,-15.093 4.402,-22.658c0.65,-3.52 1.233,-7.064 1.646,-10.625l0,0Z" style="fill:#737373;fill-rule:nonzero;stroke:#000;stroke-width:0.25px;stroke-linecap:butt;stroke-miterlimit:2;"/><path d="M220.97,607.367c0.179,-0.061 0.368,0.087 0,0Zm-0.108,-0.027c-0.162,-0.042 -0.329,-0.075 -0.491,-0.116c-0.636,-0.157 -1.267,-0.334 -1.9,-0.501c-1.337,-0.353 -2.673,-0.706 -4.01,-1.059c-2.603,-0.688 -5.206,-1.375 -7.809,-2.063c-1.819,-0.48 -2.798,2.48 -1.03,3.171c0.248,0.097 0.497,0.194 0.746,0.291c0.256,0.1 0.504,0.138 0.736,0.126c1.429,0.377 2.857,0.754 4.285,1.132c-1.798,16.367 -4.011,32.687 -6.633,48.942c-0.089,0.17 -0.151,0.37 -0.176,0.604c-0.048,0.464 -0.096,0.929 -0.144,1.393c-0.22,2.125 2.956,2.764 3.309,0.601c2.751,-16.828 5.057,-33.726 6.924,-50.674c0.504,0.133 1.008,0.266 1.512,0.399c2.285,0.603 6.771,2.57 7.652,-0.956c0.456,-1.824 -1.979,-2.51 -2.971,-1.29l0,0Z" style="fill:#737373;fill-rule:nonzero;stroke:#000;stroke-width:0.25px;stroke-linecap:butt;stroke-miterlimit:2;"/><path d="M234.57,661.452c-0.341,0.07 -0.638,0.2 -0.882,0.389c-0.403,-0.063 -0.813,-0.16 -1.167,-0.208c-0.784,-0.106 -1.567,-0.212 -2.351,-0.318c-1.076,-0.145 -2.152,-0.291 -3.228,-0.436c2.012,-10.814 3.574,-21.706 4.68,-32.646c0.886,0.085 1.772,0.169 2.657,0.254c0.562,0.054 1.124,0.108 1.685,0.161c0.281,0.027 0.562,0.054 0.842,0.081c0.105,0.01 0.209,0.02 0.314,0.03c0.657,0.985 2.324,1.277 2.912,-0.123c0.825,-1.962 -0.935,-3.057 -2.646,-3.22c-1.813,-0.174 -3.627,-0.347 -5.44,-0.52c0.419,-4.524 0.761,-9.055 1.024,-13.592c0.277,0.097 0.554,0.194 0.831,0.287c0.745,0.251 1.493,0.491 2.244,0.725c1.551,0.484 3.115,0.92 4.69,1.319c2.098,0.532 2.668,-2.784 0.58,-3.313c-2.85,-0.721 -5.581,-1.775 -8.402,-2.567c-2.392,-0.673 -4.556,1.531 -3.293,3.588c-1.014,17.007 -3.121,33.938 -6.311,50.674c-0.166,0.868 0.474,1.826 1.366,1.946c2.991,0.405 5.979,0.852 8.976,1.214c1.219,0.148 2.806,0.005 3.072,-1.513c0.21,-1.196 -0.893,-2.473 -2.153,-2.212l0,0Z" style="fill:#737373;fill-rule:nonzero;stroke:#000;stroke-width:0.25px;stroke-linecap:butt;stroke-miterlimit:2;"/><path d="M277.028,616.839c0.177,-0.066 0.37,0.078 0,0Zm-0.109,-0.025c-0.163,-0.038 -0.33,-0.067 -0.494,-0.104c-0.638,-0.143 -1.274,-0.304 -1.911,-0.456c-1.344,-0.321 -2.689,-0.642 -4.034,-0.963c-2.618,-0.625 -5.237,-1.25 -7.856,-1.875c-1.83,-0.437 -2.737,2.546 -0.954,3.194c0.251,0.091 0.502,0.182 0.753,0.273c0.258,0.094 0.507,0.126 0.739,0.108c1.437,0.343 2.874,0.686 4.311,1.029c-1.407,16.406 -3.23,32.774 -5.464,49.087c-0.084,0.173 -0.142,0.374 -0.16,0.608c-0.037,0.466 -0.074,0.931 -0.111,1.396c-0.17,2.13 3.021,2.693 3.322,0.522c2.349,-16.888 4.251,-33.837 5.712,-50.825c0.508,0.121 1.015,0.242 1.522,0.363c2.298,0.549 6.83,2.408 7.627,-1.138c0.412,-1.834 -2.039,-2.462 -3.002,-1.219l0,0Z" style="fill:#737373;fill-rule:nonzero;stroke:#000;stroke-width:0.25px;stroke-linecap:butt;stroke-miterlimit:2;"/><path d="M296.225,673.291c0.636,-12.393 1.271,-24.786 1.907,-37.178c0.045,-0.208 0.056,-0.426 0.033,-0.642c0.248,-4.84 0.496,-9.68 0.744,-14.52c0.11,-2.146 -3.221,-2.625 -3.332,-0.46c-0.223,4.348 -0.446,8.696 -0.669,13.044c-2.968,-0.538 -5.983,-0.733 -8.997,-0.6c0.433,-4.731 0.912,-9.457 1.441,-14.179c0.24,-2.147 -3.091,-2.615 -3.332,-0.459c-0.582,5.2 -1.104,10.406 -1.57,15.617c-0.175,0.364 -0.207,0.8 -0.108,1.206c-1.09,12.435 -1.848,24.898 -2.273,37.374c-0.074,2.156 2.846,2.59 3.331,0.459c0.171,-0.746 0.341,-1.493 0.511,-2.239c0.138,-0.609 -0.041,-1.078 -0.377,-1.389c0.433,-11.019 1.126,-22.027 2.077,-33.013c3.062,-0.174 6.111,0.037 9.124,0.606c-0.614,11.971 -1.228,23.942 -1.842,35.913c-0.11,2.146 3.221,2.625 3.332,0.46l0,0Z" style="fill:#737373;fill-rule:nonzero;stroke:#000;stroke-width:0.25px;stroke-linecap:butt;stroke-miterlimit:2;"/><path d="M316.317,673.326c-0.336,0.091 -0.625,0.239 -0.858,0.442c-0.405,-0.04 -0.82,-0.112 -1.177,-0.138c-0.788,-0.06 -1.577,-0.119 -2.365,-0.178c-1.083,-0.081 -2.166,-0.162 -3.249,-0.243c1.364,-10.914 2.274,-21.88 2.727,-32.867c0.889,0.032 1.779,0.064 2.668,0.096c0.563,0.02 1.127,0.04 1.691,0.06c0.282,0.01 0.564,0.02 0.845,0.03c0.105,0.004 0.21,0.008 0.315,0.012c0.715,0.944 2.396,1.136 2.9,-0.297c0.707,-2.007 -1.116,-2.995 -2.833,-3.056c-1.821,-0.065 -3.641,-0.13 -5.462,-0.196c0.149,-4.54 0.221,-9.083 0.213,-13.628c0.282,0.08 0.564,0.16 0.847,0.237c0.758,0.207 1.52,0.401 2.282,0.59c1.577,0.391 3.165,0.733 4.76,1.038c2.127,0.405 2.499,-2.939 0.382,-3.342c-2.887,-0.551 -5.676,-1.44 -8.539,-2.063c-2.428,-0.528 -4.457,1.8 -3.074,3.778c0.001,17.037 -1.093,34.064 -3.281,50.961c-0.113,0.876 0.582,1.794 1.48,1.861c3.01,0.226 6.02,0.494 9.032,0.677c1.226,0.075 2.802,-0.162 2.977,-1.693c0.138,-1.207 -1.039,-2.416 -2.281,-2.081l0,0Z" style="fill:#737373;fill-rule:nonzero;stroke:#000;stroke-width:0.25px;stroke-linecap:butt;stroke-miterlimit:2;"/><path d="M328.329,624.387c-1.628,17.446 -2.584,34.951 -2.867,52.471c-0.035,2.149 3.313,2.487 3.348,0.319c0.283,-17.52 1.24,-35.024 2.867,-52.471c0.201,-2.154 -3.147,-2.478 -3.348,-0.319l0,0Z" style="fill:#737373;fill-rule:nonzero;stroke:#000;stroke-width:0.25px;stroke-linecap:butt;stroke-miterlimit:2;"/><path d="M345.627,632.265c-0.141,2.303 -2.138,3.99 -4.3,4.552c-0.277,-0.045 -0.562,-0.064 -0.852,-0.054c0.26,-2.974 0.544,-5.945 0.852,-8.914c2.305,-0.134 4.445,2.066 4.3,4.416l0,0Zm0.629,46.348c-1.248,-3.841 -0.804,-7.818 -0.502,-11.77c0.325,-4.244 0.525,-8.498 0.599,-12.755c0.038,-2.201 0.042,-4.404 0.012,-6.605c-0.024,-1.819 0.054,-3.722 -0.313,-5.514c-0.219,-1.074 -0.693,-2.112 -1.351,-2.976c2.42,-1.414 4.216,-3.817 4.292,-6.767c0.113,-4.369 -4.1,-8.453 -8.482,-7.681c-0.941,-0.349 -2.224,0.07 -2.364,1.373c-1.862,17.419 -2.882,34.921 -3.057,52.438c-0.022,2.153 3.332,2.426 3.353,0.257c0.128,-12.766 0.707,-25.525 1.731,-38.249c0.351,-0.018 0.701,-0.059 1.05,-0.116c0.568,0.276 1.033,0.9 1.254,1.427c0.6,1.434 0.493,3.149 0.52,4.67c0.067,3.816 0.033,7.634 -0.104,11.448c-0.134,3.746 -0.41,7.478 -0.682,11.216c-0.25,3.426 -0.332,6.942 0.742,10.248c0.279,0.86 1.005,1.522 1.973,1.329c0.807,-0.161 1.612,-1.101 1.329,-1.973l0,0Z" style="fill:#737373;fill-rule:nonzero;stroke:#000;stroke-width:0.25px;stroke-linecap:butt;stroke-miterlimit:2;"/><path d="M373.694,672.625c-0.623,2.599 -2.291,6.829 -5.597,6.631c0,-0.009 0.002,-0.016 0.002,-0.024c0.387,-8.673 0.488,-17.357 0.288,-26.035c-0.034,-1.477 -0.079,-2.953 -0.131,-4.428c0.736,-0.376 1.418,-0.825 2.046,-1.335c0.193,0.006 0.389,0.03 0.587,0.07c1.36,0.275 2.198,1.419 2.717,2.632c0.628,1.467 0.835,3.13 1.026,4.702c0.24,1.988 0.346,3.994 0.351,5.995c0.01,3.95 -0.368,7.946 -1.289,11.792l0,0Zm-2.789,-41.893c1.192,1.742 1.372,4.069 1.206,6.114c-0.225,2.78 -1.357,5.501 -3.328,7.411c-0.238,0.058 -0.472,0.129 -0.699,0.217c-0.062,-1.356 -0.129,-2.712 -0.206,-4.067c-0.125,-2.203 -0.269,-4.406 -0.432,-6.606c-0.076,-1.027 -0.156,-2.054 -0.24,-3.081c-0.041,-0.494 -0.107,-0.995 -0.135,-1.492c1.41,-0.488 2.96,0.228 3.834,1.504l0,0Zm7.02,23.523c-0.38,-3.233 -1.084,-6.855 -3.851,-8.935c-0.371,-0.279 -0.781,-0.512 -1.213,-0.699c1.758,-2.597 2.674,-5.814 2.66,-8.929c-0.012,-2.862 -0.72,-6.062 -2.892,-8.087c-1.473,-1.373 -3.596,-2.137 -5.578,-1.86c-0.195,-0.089 -0.41,-0.15 -0.633,-0.179c-1.43,-0.185 -2.402,1.061 -2.64,2.335c-0.306,1.63 0.132,3.499 0.257,5.139c0.278,3.668 0.503,7.34 0.675,11.014c0.347,7.422 0.477,14.854 0.391,22.283c-0.05,4.267 -0.173,8.532 -0.364,12.795c-0.029,0.664 0.268,1.133 0.696,1.403c-0.11,0.767 0.353,1.721 1.162,1.875c3.627,0.69 6.972,-1.319 8.713,-4.483c1.84,-3.342 2.353,-7.451 2.742,-11.19c0.433,-4.156 0.363,-8.335 -0.125,-12.482l0,0Z" style="fill:#737373;fill-rule:nonzero;stroke:#000;stroke-width:0.25px;stroke-linecap:butt;stroke-miterlimit:2;"/><path d="M382.857,627.477c0.02,17.522 0.712,35.039 2.077,52.508c0.167,2.143 3.532,2.165 3.363,0.003c-1.364,-17.469 -2.057,-34.986 -2.076,-52.508c-0.003,-2.164 -3.366,-2.171 -3.364,-0.003l0,0Z" style="fill:#737373;fill-rule:nonzero;stroke:#000;stroke-width:0.25px;stroke-linecap:butt;stroke-miterlimit:2;"/><path d="M400.294,633.616c0.099,2.305 -1.712,4.191 -3.803,4.974c-0.281,-0.016 -0.566,-0.005 -0.853,0.035c-0.052,-2.985 -0.078,-5.969 -0.08,-8.955c2.278,-0.372 4.635,1.593 4.736,3.946l0,0Zm5.447,46.031c-1.64,-3.691 -1.612,-7.693 -1.723,-11.654c-0.119,-4.256 -0.362,-8.507 -0.732,-12.748c-0.191,-2.194 -0.416,-4.384 -0.675,-6.571c-0.214,-1.807 -0.333,-3.708 -0.885,-5.452c-0.33,-1.044 -0.909,-2.027 -1.654,-2.819c2.261,-1.658 3.797,-4.234 3.566,-7.176c-0.342,-4.357 -4.958,-7.981 -9.236,-6.758c-0.972,-0.249 -2.205,0.302 -2.208,1.612c-0.04,17.518 0.766,35.031 2.415,52.472c0.203,2.143 3.566,2.066 3.362,-0.093c-1.201,-12.711 -1.953,-25.46 -2.258,-38.222c0.347,-0.055 0.691,-0.132 1.032,-0.225c0.593,0.216 1.122,0.788 1.396,1.289c0.746,1.363 0.818,3.08 1.003,4.591c0.464,3.788 0.827,7.589 1.088,11.396c0.256,3.74 0.37,7.48 0.488,11.226c0.108,3.434 0.392,6.939 1.804,10.115c0.368,0.827 1.158,1.41 2.101,1.117c0.786,-0.244 1.489,-1.262 1.116,-2.1l0,0Z" style="fill:#737373;fill-rule:nonzero;stroke:#000;stroke-width:0.25px;stroke-linecap:butt;stroke-miterlimit:2;"/><path d="M423.656,624.834c0.158,-0.105 0.378,-0.009 0,0Zm-0.111,0.001c-0.168,0 -0.337,0.011 -0.505,0.013c-0.654,0.009 -1.31,-0.001 -1.964,-0.002c-1.383,-0.001 -2.765,-0.003 -4.148,-0.004c-2.692,-0.003 -5.384,-0.006 -8.077,-0.008c-1.881,-0.002 -2.075,3.109 -0.19,3.328c0.265,0.03 0.531,0.061 0.796,0.092c0.273,0.031 0.522,0.004 0.744,-0.066c1.478,0.002 2.955,0.003 4.432,0.005c2.424,16.286 4.434,32.632 6.032,49.02c-0.042,0.187 -0.052,0.396 -0.016,0.629c0.072,0.461 0.143,0.922 0.215,1.383c0.327,2.111 3.561,1.921 3.353,-0.26c-1.619,-16.974 -3.686,-33.903 -6.192,-50.769c0.522,0.001 1.043,0.001 1.565,0.002c2.363,0.002 7.201,0.763 7.157,-2.871c-0.023,-1.88 -2.553,-1.924 -3.202,-0.492l0,0Z" style="fill:#737373;fill-rule:nonzero;stroke:#000;stroke-width:0.25px;stroke-linecap:butt;stroke-miterlimit:2;"/><path d="M454.927,674.351c-2.809,-12.088 -5.617,-24.175 -8.425,-36.262c-0.014,-0.211 -0.064,-0.424 -0.146,-0.626c-1.097,-4.72 -2.194,-9.441 -3.29,-14.161c-0.487,-2.093 -3.82,-1.635 -3.33,0.477c0.986,4.241 1.971,8.482 2.956,12.722c-3.002,0.303 -5.953,0.947 -8.813,1.906c-0.89,-4.667 -1.733,-9.342 -2.528,-14.026c-0.361,-2.131 -3.692,-1.661 -3.329,0.478c0.875,5.158 1.81,10.306 2.8,15.443c-0.068,0.399 0.021,0.827 0.229,1.19c2.383,12.253 5.093,24.441 8.126,36.55c0.525,2.093 3.451,1.705 3.33,-0.477c-0.043,-0.765 -0.085,-1.529 -0.128,-2.294c-0.034,-0.623 -0.336,-1.024 -0.745,-1.23c-2.624,-10.712 -4.995,-21.483 -7.112,-32.305c2.895,-1.012 5.884,-1.651 8.937,-1.935c2.713,11.676 5.426,23.351 8.138,35.027c0.487,2.092 3.82,1.634 3.33,-0.477l0,0Z" style="fill:#737373;fill-rule:nonzero;stroke:#000;stroke-width:0.25px;stroke-linecap:butt;stroke-miterlimit:2;"/><path d="M465.77,660.405c-0.015,2.022 -0.166,4.053 -0.514,6.047c-0.173,0.988 -0.398,1.975 -0.678,2.939c-0.069,0.239 -0.142,0.496 -0.232,0.749c-0.018,-0.008 -0.036,-0.018 -0.054,-0.026c-0.014,-0.006 -0.028,-0.009 -0.041,-0.014c-0.026,-0.099 -0.052,-0.197 -0.078,-0.296c-0.132,-0.505 -0.264,-1.01 -0.397,-1.515c-0.283,-1.083 -0.567,-2.165 -0.85,-3.248c-0.53,-2.021 -1.059,-4.041 -1.588,-6.062c-1.078,-4.114 -2.155,-8.227 -3.233,-12.341c-1.969,-7.517 -3.938,-15.033 -5.907,-22.55c2.505,0.199 4.648,2.674 5.889,4.693c1.85,3.01 2.828,6.428 3.796,9.796c2.037,7.091 3.943,14.398 3.887,21.828l0,0Zm-0.498,-22.188c-1.123,-3.928 -2.244,-8.027 -4.507,-11.478c-2.097,-3.2 -5.786,-6.661 -9.88,-5.99c-1.119,-0.709 -3.012,0.09 -2.585,1.723c4.122,15.733 8.243,31.466 12.364,47.199c0.363,1.385 0.706,3.856 2.282,4.315c0.434,0.613 1.211,0.942 2.051,0.442c1.758,-1.047 2.491,-2.824 2.978,-4.729c0.525,-2.052 0.869,-4.16 1.035,-6.271c0.333,-4.235 -0.037,-8.516 -0.746,-12.696c-0.718,-4.232 -1.813,-8.391 -2.992,-12.515l0,0Z" style="fill:#737373;fill-rule:nonzero;stroke:#000;stroke-width:0.25px;stroke-linecap:butt;stroke-miterlimit:2;"/><path d="M473.788,620.068c0.999,1.231 1.794,2.655 2.543,4.045c1.388,2.573 2.583,5.238 3.648,7.958c-1.42,0.447 -2.84,0.893 -4.259,1.34c-0.644,-4.448 -1.288,-8.895 -1.932,-13.343l0,0Zm10.27,13.325c0.104,-0.639 -0.145,-1.34 -0.643,-1.731c-1.193,-3.118 -2.539,-6.175 -4.117,-9.124c-1.68,-3.14 -3.677,-6.341 -6.969,-7.983c-1.003,-0.5 -2.686,0.16 -2.493,1.495c2.588,17.88 5.177,35.76 7.765,53.64c0.131,0.905 0.712,1.663 1.704,1.66c0.817,-0.003 1.79,-0.806 1.66,-1.704c-1.586,-10.955 -3.171,-21.909 -4.757,-32.864c1.648,-0.518 3.297,-1.037 4.945,-1.555c2.243,6.335 3.944,12.854 5.738,19.326c1.132,4.085 2.264,8.17 3.396,12.255c0.579,2.087 3.809,1.152 3.231,-0.936c-2.055,-7.414 -4.054,-14.846 -6.185,-22.238c-0.992,-3.439 -2.053,-6.871 -3.275,-10.241l0,0Z" style="fill:#737373;fill-rule:nonzero;stroke:#000;stroke-width:0.25px;stroke-linecap:butt;stroke-miterlimit:2;"/><path d="M511.714,646.855c-3.306,-8.595 -7.717,-16.699 -11.672,-25c-0.56,-1.177 -1.111,-2.359 -1.649,-3.546c-0.52,-4.081 -2.088,-7.972 -4.552,-11.269c-1.114,-1.492 -3.606,-0.354 -2.98,1.493c1.239,3.653 2.707,7.211 4.291,10.719c0.265,2.23 0.224,4.894 -1.368,6.329c-2.594,2.338 -4.48,-1.639 -5.559,-3.527c-1.681,-2.943 -2.879,-6.134 -3.679,-9.423c-0.511,-2.103 -3.69,-1 -3.182,1.09c1.038,4.267 2.791,8.356 5.187,12.04c1.013,1.558 2.176,3.168 4.045,3.721c1.639,0.486 3.454,0.054 4.83,-0.928c1.23,-0.878 2.019,-2.069 2.5,-3.404c0.846,1.743 1.706,3.479 2.566,5.214c1.77,3.571 3.538,7.144 5.179,10.777c0.804,1.781 1.578,3.576 2.305,5.389c0.702,1.751 1.527,3.578 1.776,5.462c0.197,1.488 0.034,3.253 -1.135,4.339c-0.857,0.796 -2.377,0.893 -3.066,-0.152c-1.19,-1.806 -3.972,0.085 -2.778,1.897c2.048,3.108 6.638,2.76 8.799,-0.017c2.596,-3.337 1.523,-7.613 0.142,-11.204l0,0Z" style="fill:#737373;fill-rule:nonzero;stroke:#000;stroke-width:0.25px;stroke-linecap:butt;stroke-miterlimit:2;"/><path d="M511.532,603.001c6.185,16.394 12.999,32.546 20.425,48.417c0.911,1.947 4.068,0.783 3.149,-1.181c-7.425,-15.87 -14.239,-32.023 -20.425,-48.417c-0.764,-2.024 -3.915,-0.848 -3.149,1.181l0,0Z" style="fill:#737373;fill-rule:nonzero;stroke:#000;stroke-width:0.25px;stroke-linecap:butt;stroke-miterlimit:2;"/><path d="M550.91,631.879c-1.748,-4.255 -3.509,-8.504 -5.285,-12.747c-3.608,-8.624 -7.275,-17.223 -10.996,-25.798c-0.859,-1.979 -4.011,-0.803 -3.147,1.188c3.604,8.303 7.155,16.628 10.653,24.976c0.104,0.251 0.208,0.501 0.313,0.751c-3.059,-5.349 -6.281,-10.604 -9.681,-15.731c-2.023,-3.053 -4.298,-5.863 -7.483,-7.755c-1.394,-0.829 -2.595,0.891 -2.265,2.127c4.571,17.115 15.359,31.621 21.268,48.213c0.727,2.04 3.873,0.852 3.147,-1.188c-5.22,-14.657 -14.245,-27.688 -19.431,-42.327c1.248,1.574 2.319,3.315 3.374,4.955c2.497,3.885 4.909,7.825 7.232,11.817c4.608,7.918 8.851,16.042 12.741,24.336c0.643,1.371 3.072,1.493 3.231,-0.313c0.188,-2.122 -0.295,-4.104 -1.052,-6.076c-0.828,-2.159 -1.741,-4.289 -2.619,-6.428l0,0Z" style="fill:#737373;fill-rule:nonzero;stroke:#000;stroke-width:0.25px;stroke-linecap:butt;stroke-miterlimit:2;"/><path d="M563.618,587.912c1.062,1.176 1.931,2.557 2.753,3.905c1.521,2.496 2.855,5.095 4.062,7.755c-1.394,0.521 -2.788,1.041 -4.183,1.562c-0.877,-4.407 -1.755,-8.815 -2.632,-13.222l0,0Zm10.958,12.765c0.07,-0.643 -0.216,-1.33 -0.733,-1.695c-1.355,-3.051 -2.861,-6.032 -4.592,-8.894c-1.844,-3.047 -4.007,-6.138 -7.381,-7.604c-1.028,-0.447 -2.674,0.301 -2.411,1.624c3.528,17.719 7.056,35.437 10.584,53.156c0.178,0.897 0.798,1.623 1.789,1.567c0.815,-0.046 1.745,-0.899 1.568,-1.789c-2.162,-10.856 -4.323,-21.711 -6.485,-32.567c1.619,-0.605 3.238,-1.209 4.857,-1.814c2.574,6.209 4.617,12.629 6.749,18.997c1.346,4.02 2.692,8.039 4.038,12.059c0.687,2.053 3.864,0.949 3.177,-1.105c-2.443,-7.296 -4.832,-14.612 -7.349,-21.881c-1.172,-3.382 -2.413,-6.753 -3.811,-10.054l0,0Z" style="fill:#737373;fill-rule:nonzero;stroke:#000;stroke-width:0.25px;stroke-linecap:butt;stroke-miterlimit:2;"/><path d="M599.672,575.89c-0.673,-2.023 -2.534,-3.215 -4.651,-3.202c-2.227,0.014 -4.102,1.379 -5.017,3.375c-2.034,4.437 0.175,10.031 3.581,13.146c1.899,1.738 4.275,2.616 6.437,3.943c2.074,1.273 3.469,3.237 4.561,5.372c1.146,2.243 2.008,4.639 2.878,6.998c0.94,2.547 1.797,5.144 2.257,7.825c0.411,2.397 0.66,5.356 -0.419,7.626c-0.369,0.777 -1.005,1.652 -1.933,1.729c-0.434,0.037 -1.857,-0.29 -1.757,-0.971c0.133,-0.905 -0.239,-1.796 -1.186,-2.062c-0.795,-0.224 -1.93,0.288 -2.062,1.185c-0.353,2.405 1.102,4.348 3.419,5.008c2.263,0.644 4.432,-0.34 5.789,-2.178c2.999,-4.062 1.848,-10.306 0.564,-14.773c-0.745,-2.594 -1.725,-5.116 -2.708,-7.626c-0.9,-2.297 -1.842,-4.626 -3.237,-6.675c-1.516,-2.226 -3.439,-3.863 -5.813,-5.117c-2.189,-1.155 -4.375,-2.185 -5.856,-4.26c-1.427,-1.999 -2.457,-4.857 -1.652,-7.299c0.28,-0.847 0.843,-1.699 1.782,-1.853c0.612,-0.1 1.551,0.01 1.777,0.691c0.681,2.045 3.931,1.176 3.246,-0.882l0,0Z" style="fill:#737373;fill-rule:nonzero;stroke:#000;stroke-width:0.25px;stroke-linecap:butt;stroke-miterlimit:2;"/><path d="M630.772,592.622c-1.971,-8.583 -3.919,-17.223 -7.459,-25.324c-0.736,-1.682 -2.897,-0.834 -3.181,0.635c-0.317,1.638 -0.538,3.281 -0.673,4.928c-1.116,-2.015 -2.36,-3.961 -3.722,-5.836c-1.012,-1.394 -3.226,-0.097 -2.907,1.446c3.62,17.527 6.378,35.225 8.262,53.023c0.228,2.152 3.525,1.48 3.298,-0.658c-1.54,-14.554 -3.666,-29.04 -6.368,-43.421c0.568,1.21 1.091,2.441 1.569,3.692c0.297,0.778 1.327,1.067 2.045,0.82c0.851,-0.293 1.17,-1.056 1.107,-1.905c-0.126,-1.678 -0.145,-3.361 -0.07,-5.04c2.059,6.113 3.456,12.444 4.9,18.73c1.985,8.646 3.971,17.291 5.957,25.936c0.483,2.106 3.784,1.456 3.298,-0.659c-2.019,-8.789 -4.037,-17.578 -6.056,-26.367l0,0Z" style="fill:#737373;fill-rule:nonzero;stroke:#000;stroke-width:0.25px;stroke-linecap:butt;stroke-miterlimit:2;"/><path d="M646.651,568.158c0.774,1.383 1.314,2.923 1.814,4.42c0.928,2.772 1.649,5.603 2.234,8.465c-1.476,0.197 -2.951,0.394 -4.426,0.591c0.126,-4.492 0.252,-8.984 0.378,-13.476l0,0Zm7.841,14.885c0.211,-0.611 0.085,-1.345 -0.338,-1.816c-0.642,-3.276 -1.446,-6.517 -2.496,-9.693c-1.118,-3.381 -2.539,-6.876 -5.501,-9.057c-0.903,-0.665 -2.674,-0.302 -2.712,1.047c-0.508,18.059 -1.015,36.118 -1.523,54.177c-0.025,0.914 0.417,1.76 1.396,1.927c0.804,0.136 1.901,-0.488 1.926,-1.396c0.311,-11.064 0.622,-22.128 0.933,-33.192c1.713,-0.229 3.426,-0.458 5.139,-0.687c1.126,6.626 1.687,13.339 2.348,20.023c0.417,4.218 0.833,8.437 1.25,12.655c0.213,2.155 3.556,1.786 3.343,-0.37c-0.756,-7.656 -1.455,-15.32 -2.29,-22.968c-0.389,-3.558 -0.848,-7.121 -1.475,-10.65l0,0Z" style="fill:#737373;fill-rule:nonzero;stroke:#000;stroke-width:0.25px;stroke-linecap:butt;stroke-miterlimit:2;"/><path d="M658.37,563.207c4.916,16.774 8.399,33.939 10.436,51.299c0.113,0.957 0.916,1.524 1.84,1.506c3.689,-0.07 7.357,-0.421 10.993,-1.051c2.12,-0.367 1.803,-3.717 -0.334,-3.347c-3.635,0.63 -7.303,0.981 -10.992,1.052c0.613,0.502 1.227,1.004 1.84,1.506c-2.072,-17.654 -5.645,-35.118 -10.644,-52.176c-0.608,-2.074 -3.745,-0.858 -3.139,1.211l0,0Z" style="fill:#737373;fill-rule:nonzero;stroke:#000;stroke-width:0.25px;stroke-linecap:butt;stroke-miterlimit:2;"/><path d="M684.06,560.684c4.766,16.816 8.095,34.012 9.977,51.389c0.104,0.958 0.902,1.533 1.827,1.523c3.689,-0.037 7.36,-0.356 11.001,-0.953c2.123,-0.348 1.837,-3.701 -0.304,-3.35c-3.641,0.598 -7.311,0.916 -11.001,0.954c0.609,0.507 1.218,1.015 1.827,1.523c-1.915,-17.673 -5.331,-35.168 -10.178,-52.269c-0.589,-2.08 -3.737,-0.892 -3.149,1.183l0,0Z" style="fill:#737373;fill-rule:nonzero;stroke:#000;stroke-width:0.25px;stroke-linecap:butt;stroke-miterlimit:2;"/><path d="M743.692,554.599c-0.811,-0.16 -1.901,0.437 -1.964,1.342c-0.908,12.915 -1.046,25.87 -0.398,38.794c-0.033,-0.18 -0.066,-0.36 -0.097,-0.54c-0.701,-4.037 -1.131,-8.116 -1.821,-12.157c-1.518,-8.885 -3.641,-17.653 -5.761,-26.41c-0.461,-1.906 -3.341,-1.095 -3.255,0.719c0.458,9.604 0.777,19.241 1.317,28.858c-2.446,-9.727 -5.112,-19.399 -8.005,-29.006c-0.624,-2.071 -3.782,-0.91 -3.158,1.16c5.013,16.646 9.369,33.49 13.022,50.487c0.191,0.888 0.827,1.619 1.816,1.537c0.885,-0.074 1.642,-0.909 1.536,-1.815c-1.28,-11.016 -1.889,-22.111 -2.38,-33.205c0.639,3.076 1.227,6.162 1.735,9.264c1.298,7.932 1.496,16.565 6.136,23.45c0.936,1.39 3.195,0.54 3.052,-1.105c-1.427,-16.428 -1.589,-32.958 -0.433,-49.408c0.064,-0.912 -0.378,-1.773 -1.342,-1.965l0,0Z" style="fill:#737373;fill-rule:nonzero;stroke:#000;stroke-width:0.25px;stroke-linecap:butt;stroke-miterlimit:2;"/><path d="M760.387,557.84c0.734,1.404 1.23,2.959 1.688,4.469c0.849,2.798 1.49,5.648 1.993,8.525c-1.48,0.155 -2.96,0.311 -4.44,0.466c0.253,-4.487 0.506,-8.973 0.759,-13.46l0,0Zm7.416,15.101c0.229,-0.606 0.124,-1.342 -0.286,-1.825c-0.549,-3.293 -1.261,-6.556 -2.221,-9.76c-1.022,-3.411 -2.343,-6.946 -5.243,-9.209c-0.884,-0.69 -2.664,-0.377 -2.74,0.97c-1.018,18.037 -2.036,36.075 -3.053,54.112c-0.052,0.913 0.367,1.772 1.34,1.966c0.801,0.159 1.914,-0.434 1.966,-1.34c0.623,-11.052 1.246,-22.103 1.87,-33.154c1.719,-0.18 3.437,-0.361 5.156,-0.541c0.938,6.655 1.31,13.382 1.781,20.081c0.298,4.229 0.595,8.458 0.893,12.686c0.151,2.16 3.504,1.886 3.352,-0.276c-0.54,-7.674 -1.022,-15.355 -1.641,-23.023c-0.288,-3.568 -0.646,-7.142 -1.174,-10.687l0,0Z" style="fill:#737373;fill-rule:nonzero;stroke:#000;stroke-width:0.25px;stroke-linecap:butt;stroke-miterlimit:2;"/><path d="M792.847,592.546c-1.113,-9.141 -3.418,-18.075 -5.232,-27.09c-0.257,-1.278 -0.504,-2.558 -0.736,-3.841c0.489,-4.085 -0.084,-8.24 -1.671,-12.038c-0.717,-1.718 -3.412,-1.221 -3.254,0.723c0.312,3.844 0.87,7.653 1.552,11.441c-0.287,2.227 -0.975,4.801 -2.869,5.805c-3.085,1.636 -3.945,-2.68 -4.532,-4.774c-0.914,-3.264 -1.299,-6.65 -1.273,-10.036c0.016,-2.163 -3.336,-1.868 -3.352,0.282c-0.033,4.392 0.672,8.784 2.098,12.941c0.603,1.758 1.339,3.603 3.017,4.595c1.472,0.87 3.337,0.893 4.911,0.276c1.407,-0.552 2.462,-1.516 3.254,-2.693c0.396,1.896 0.807,3.79 1.219,5.682c0.846,3.895 1.691,7.791 2.398,11.713c0.346,1.923 0.66,3.853 0.924,5.789c0.254,1.869 0.609,3.841 0.392,5.73c-0.171,1.491 -0.76,3.163 -2.157,3.932c-1.026,0.564 -2.524,0.287 -2.937,-0.894c-0.714,-2.042 -3.873,-0.885 -3.157,1.163c1.229,3.513 5.766,4.293 8.538,2.126c3.332,-2.604 3.332,-7.013 2.867,-10.832l0,0Z" style="fill:#737373;fill-rule:nonzero;stroke:#000;stroke-width:0.25px;stroke-linecap:butt;stroke-miterlimit:2;"/><path d="M808.426,605.377l-1.044,-11.531l11.531,-1.043l1.044,11.531l-11.531,1.043Z" style="fill:#737373;fill-rule:nonzero;stroke:#000;stroke-width:0.25px;stroke-linecap:butt;stroke-miterlimit:2;"/><path d="M838.589,602.672l-1.499,-11.48l11.481,-1.499l1.499,11.48l-11.481,1.499Z" style="fill:#737373;fill-rule:nonzero;stroke:#000;stroke-width:0.25px;stroke-linecap:butt;stroke-miterlimit:2;"/><path d="M868.263,596.511l-3.833,-10.925l10.925,-3.833l3.833,10.925l-10.925,3.833Z" style="fill:#737373;fill-rule:nonzero;stroke:#000;stroke-width:0.25px;stroke-linecap:butt;stroke-miterlimit:2;"/><path d="M896.646,585.565l-4.403,-10.708l10.708,-4.404l4.403,10.708l-10.708,4.404Z" style="fill:#737373;fill-rule:nonzero;stroke:#000;stroke-width:0.25px;stroke-linecap:butt;stroke-miterlimit:2;"/><path d="M924.933,574.688l-3.078,-11.161l11.161,-3.078l3.078,11.161l-11.161,3.078Z" style="fill:#737373;fill-rule:nonzero;stroke:#000;stroke-width:0.25px;stroke-linecap:butt;stroke-miterlimit:2;"/><path d="M954.739,569.576l0.377,-11.572l11.572,0.377l-0.377,11.572l-11.572,-0.377Z" style="fill:#737373;fill-rule:nonzero;stroke:#000;stroke-width:0.25px;stroke-linecap:butt;stroke-miterlimit:2;"/><path d="M985.216,570.457l1.445,-11.488l11.487,1.445l-1.444,11.488l-11.488,-1.445Z" style="fill:#737373;fill-rule:nonzero;stroke:#000;stroke-width:0.25px;stroke-linecap:butt;stroke-miterlimit:2;"/></g></g></svg>