<?xml version="1.0" encoding="UTF-8" standalone="no"?><!DOCTYPE svg PUBLIC "-//W3C//DTD SVG 1.1//EN" "http://www.w3.org/Graphics/SVG/1.1/DTD/svg11.dtd"><svg width="100%" height="100%" viewBox="0 0 60 99" version="1.1" xmlns="http://www.w3.org/2000/svg" xmlns:xlink="http://www.w3.org/1999/xlink" xml:space="preserve" xmlns:serif="http://www.serif.com/" style="fill-rule:evenodd;clip-rule:evenodd;stroke-linecap:round;stroke-linejoin:round;stroke-miterlimit:1.5;"><rect id="Artboard1" x="0" y="0" width="59.094" height="98.654" style="fill:none;"/><clipPath id="_clip1"><rect x="0" y="0" width="59.094" height="98.654"/></clipPath><g clip-path="url(#_clip1)"><g id="Layer1"><path d="M35.518,46.653c-0.213,-0.184 -0.651,-0.485 -0.729,-0.756c-0.02,-0.07 0.16,-0.113 0.189,-0.125c0.166,-0.068 0.334,-0.06 0.528,-0.175c0.141,-0.083 0.336,-0.338 0.479,-0.347c0.029,-0.002 -0.163,0.229 -0.187,0.257c-0.077,0.089 -0.13,0.355 -0.179,0.476c-0.064,0.158 -0.026,0.356 -0.133,0.48" style="fill:none;stroke:#000;stroke-width:0.1px;"/><path d="M34.112,45.408c-0.092,-0.079 -0.495,-0.329 -0.528,-0.453c-0.005,-0.021 0.14,-0.163 0.152,-0.177c0.17,-0.198 0.34,-0.396 0.51,-0.594c0.055,-0.064 0.4,-0.566 0.479,-0.557c0.062,0.007 -0.069,0.132 -0.066,0.17c0.013,0.149 -0.036,0.346 -0.069,0.521c-0.077,0.405 -0.017,0.861 -0.294,1.184" style="fill:none;stroke:#000;stroke-width:0.1px;"/><path d="M32.894,44.766c-0.103,-0.089 -0.443,-0.279 -0.569,-0.312c-0.025,-0.006 -0.131,-0.014 -0.135,-0.067c-0.007,-0.077 0.288,-0.335 0.334,-0.389c0.326,-0.38 0.467,-0.87 0.78,-1.234c0.032,-0.037 -0.091,0.062 -0.094,0.11c-0.006,0.072 0.013,0.236 0.026,0.314c0.053,0.295 -0.005,0.772 -0.202,1" style="fill:none;stroke:#000;stroke-width:0.1px;"/><path d="M31.318,44.312c-0.176,-0.151 -0.352,-0.302 -0.528,-0.453c-0.022,-0.02 -0.168,-0.033 -0.169,-0.049c-0.011,-0.096 0.326,-0.365 0.381,-0.445c0.347,-0.498 0.432,-1.153 0.835,-1.622c0.049,-0.057 -0.102,0.112 -0.152,0.169c-0.056,0.066 -0.081,0.251 -0.086,0.338c-0.028,0.485 -0.085,1.015 0.118,1.489" style="fill:none;stroke:#000;stroke-width:0.1px;"/><path d="M29.95,43.883c-0.176,-0.151 -0.492,-0.273 -0.679,-0.26c-0.061,0.004 -0.166,-0.007 -0.172,-0.068c-0.008,-0.073 0.166,-0.376 0.196,-0.458c0.151,-0.412 0.274,-1.008 0.561,-1.342c0.021,-0.025 -0.052,0.044 -0.064,0.074c-0.019,0.049 0.009,0.105 0.014,0.157c0.014,0.167 0.046,0.33 0.085,0.493c0.057,0.238 0.382,0.912 0.241,1.077" style="fill:none;stroke:#000;stroke-width:0.1px;"/><path d="M24.289,45.413c-0.224,0.057 -0.506,0.244 -0.603,0.405c-0.032,0.052 -0.101,0.131 -0.155,0.101c-0.064,-0.035 -0.211,-0.353 -0.261,-0.424c-0.25,-0.361 -0.666,-0.805 -0.773,-1.232c-0.008,-0.032 0.006,0.067 0.024,0.095c0.028,0.043 0.09,0.053 0.135,0.079c0.145,0.085 0.297,0.152 0.453,0.214c0.227,0.091 0.965,0.214 1.018,0.424" style="fill:none;stroke:#000;stroke-width:0.1px;"/><path d="M28.493,43.955c-0.151,-0.129 -0.586,-0.208 -0.782,-0.219c-0.083,-0.005 -0.243,0.092 -0.25,0.009c-0.004,-0.051 0.168,-0.176 0.19,-0.222c0.184,-0.372 0.293,-0.792 0.445,-1.168c0.018,-0.046 0.104,-0.124 0.08,-0.189c-0.02,-0.052 -0.06,0.108 -0.038,0.159c0.047,0.111 0.105,0.221 0.115,0.342c0.01,0.11 0.102,0.199 0.133,0.307c0.054,0.187 0.107,0.672 0.205,0.756" style="fill:none;stroke:#000;stroke-width:0.1px;"/><path d="M26.524,44.376c-0.135,-0.116 -0.631,-0.06 -0.817,-0.137c-0.045,-0.018 -0.22,-0.023 -0.222,-0.045c-0.01,-0.098 0.326,-0.351 0.374,-0.436c0.191,-0.342 0.221,-0.773 0.406,-1.104c0.006,-0.011 0.158,-0.224 0.155,-0.238c-0.017,-0.061 -0.108,0.051 -0.106,0.069c0.009,0.105 0.195,0.345 0.239,0.448c0.183,0.427 0.32,0.978 0.355,1.384" style="fill:none;stroke:#000;stroke-width:0.1px;"/><path d="M25.095,44.648c-0.377,-0.324 -0.684,-0.717 -1.05,-1.031c-0.139,-0.119 -0.278,-0.239 -0.416,-0.358c-0.057,-0.049 -0.145,-0.173 -0.145,-0.173c0,0 0.124,0.125 0.173,0.198c0.099,0.144 0.155,0.376 0.204,0.546c0.074,0.256 0.207,0.507 0.259,0.771c0.047,0.237 0.05,0.672 0.219,0.817c0.057,0.05 0.076,-0.127 0.115,-0.191c0.09,-0.151 0.242,-0.283 0.358,-0.417" style="fill:none;stroke:#000;stroke-width:0.1px;"/><path d="M23.385,45.935c-0.283,-0.243 -0.903,-0.218 -1.254,-0.335c-0.058,-0.019 -0.341,-0.152 -0.394,-0.096c-0.049,0.053 0.113,0.097 0.17,0.145c0.156,0.134 0.401,0.28 0.52,0.447c0.124,0.174 0.256,0.395 0.331,0.591c0.014,0.039 0.055,0.205 0.121,0.201c0.038,-0.003 0.14,-0.163 0.166,-0.194c0.176,-0.204 0.351,-0.409 0.527,-0.613" style="fill:none;stroke:#000;stroke-width:0.1px;"/><path d="M22.47,47.479c-0.377,-0.324 -1.151,-0.2 -1.606,-0.25c-0.096,-0.01 -0.41,-0.15 -0.456,-0.1c-0.083,0.089 0.189,0.161 0.283,0.242c0.179,0.155 0.359,0.309 0.539,0.463c0.2,0.172 0.261,0.466 0.448,0.627c0.027,0.023 0.05,0.145 0.108,0.142c0.068,-0.005 0.117,-0.175 0.131,-0.211c0.08,-0.197 0.3,-0.444 0.44,-0.607" style="fill:none;stroke:#000;stroke-width:0.1px;"/><path d="M21.342,49.024c-0.547,0.037 -1.121,-0.034 -1.656,0.111c-0.033,0.009 -0.398,0.05 -0.395,0.096c0.002,0.034 0.447,0.2 0.492,0.229c0.31,0.199 0.607,0.31 0.932,0.445c0.081,0.034 0.113,0.118 0.184,0.126c0.023,0.003 0.171,-0.2 0.183,-0.214c0.223,-0.26 0.447,-0.52 0.67,-0.78" style="fill:none;stroke:#000;stroke-width:0.1px;"/><path d="M21.338,51.272c-0.113,0.211 -0.06,0.826 -0.044,0.985c0.003,0.028 0.027,0.227 -0.035,0.245c-0.061,0.018 -0.465,-0.203 -0.519,-0.222c-0.284,-0.097 -0.66,-0.157 -0.963,-0.193c-0.151,-0.018 -0.98,0.144 -1.037,0.014c-0.029,-0.064 0.136,-0.039 0.204,-0.059c0.127,-0.037 0.255,-0.069 0.381,-0.105c0.27,-0.079 0.607,-0.29 0.858,-0.43c0.297,-0.166 0.666,-0.057 0.925,-0.132" style="fill:none;stroke:#000;stroke-width:0.1px;"/><path d="M21.362,53.242c-0.099,0.184 0.086,0.639 0.135,0.832c0.009,0.033 0.043,0.25 0.04,0.251c-0.054,0.017 -0.356,-0.165 -0.428,-0.174c-0.5,-0.059 -1.03,-0.006 -1.532,-0.003c-0.066,0 -0.446,0.103 -0.49,0.08c-0.114,-0.061 0.243,-0.081 0.361,-0.13c0.141,-0.059 0.295,-0.105 0.438,-0.165c0.273,-0.113 0.917,-0.518 1.128,-0.404" style="fill:none;stroke:#000;stroke-width:0.1px;"/><path d="M31.37,56.73c-0.312,-0.119 -1.078,-0.43 -1.342,-0.315c-0.004,0.002 0.443,0.847 0.498,0.943c0.15,0.262 0.323,0.62 0.437,0.868c0.029,0.063 -0.018,0.203 0.052,0.2c0.083,-0.003 0.038,-0.596 0.041,-0.683c0.015,-0.4 0.116,-0.734 0.258,-1.104" style="fill:none;stroke:#000;stroke-width:0.1px;"/><path d="M29.356,57.259c-0.125,-0.048 -0.489,-0.256 -0.614,-0.199c-0.04,0.018 0.201,0.179 0.216,0.244c0.051,0.217 0.27,0.453 0.423,0.666c0.085,0.117 0.287,0.762 0.339,0.74c0.054,-0.022 -0.174,-0.85 -0.176,-0.928c-0.003,-0.122 0.094,-0.971 0.065,-0.982" style="fill:none;stroke:#000;stroke-width:0.1px;"/><path d="M28.171,57.417c-0.261,-0.1 -0.527,-0.04 -0.751,-0.126c-0.05,-0.019 0.082,0.068 0.124,0.102c0.091,0.074 0.243,0.195 0.285,0.307c0.13,0.343 0.406,1.236 0.293,1.532c-0.024,0.062 0.06,-0.121 0.071,-0.186c0.022,-0.132 0.043,-0.275 0.048,-0.414c0.008,-0.202 0.153,-1.233 0.002,-1.291" style="fill:none;stroke:#000;stroke-width:0.1px;"/><path d="M26.892,57.529c-0.151,-0.057 -0.586,-0.302 -0.729,-0.243c-0.184,0.076 0.172,0.38 0.211,0.454c0.118,0.227 0.139,0.431 0.135,0.699c-0.003,0.197 -0.009,0.395 -0.022,0.585c-0.007,0.102 -0.096,0.394 -0.06,0.299c0.216,-0.564 0.384,-1.146 0.594,-1.695" style="fill:none;stroke:#000;stroke-width:0.1px;"/><path d="M25.344,57.38c-0.206,-0.078 -0.772,-0.404 -0.979,-0.266c-0.13,0.087 -0.009,0.325 0.002,0.428c0.031,0.296 -0.035,0.597 -0.083,0.885c-0.037,0.229 -0.127,0.476 -0.209,0.693c-0.036,0.094 -0.072,0.188 -0.109,0.282c-0.013,0.037 -0.055,0.146 -0.041,0.11c0.24,-0.629 0.75,-1.789 1.396,-2.071" style="fill:none;stroke:#000;stroke-width:0.1px;"/><path d="M23.839,56.928c-0.088,-0.033 -0.871,-0.407 -0.891,-0.394c-0.144,0.097 -0.064,0.526 -0.089,0.665c-0.091,0.509 -0.342,1.037 -0.528,1.524c-0.036,0.093 -0.101,0.433 -0.186,0.486c-0.193,0.119 0.211,-0.437 0.247,-0.501c0.18,-0.322 0.488,-0.764 0.799,-0.989c0.288,-0.208 0.869,-0.453 1.003,-0.803" style="fill:none;stroke:#000;stroke-width:0.1px;"/><path d="M21.896,55.297c-0.167,-0.09 -0.43,-0.784 -0.343,-0.947c0.056,-0.103 -0.11,0.206 -0.166,0.309c-0.079,0.148 -0.159,0.296 -0.238,0.444c-0.38,0.706 -0.684,1.133 -1.368,1.533c-0.065,0.038 -0.478,0.273 -0.493,0.231c-0.047,-0.143 0.486,-0.366 0.545,-0.421c0.154,-0.144 0.438,-0.232 0.629,-0.319c0.508,-0.229 1.002,-0.54 1.517,-0.691" style="fill:none;stroke:#000;stroke-width:0.1px;"/><path d="M33.614,41.611c0.023,-0.025 0.023,-0.049 0.054,-0.022" style="fill:none;stroke:#000;stroke-width:0.5px;"/><path d="M30.306,40.841c-0.031,-0.026 -0.088,0.02 -0.059,-0.014" style="fill:none;stroke:#000;stroke-width:0.5px;"/><path d="M26.222,41.54c-0.007,-0.006 -0.013,-0.011 -0.02,-0.017" style="fill:none;stroke:#000;stroke-width:0.3px;"/><path d="M33.967,40.565c0.036,0.03 0.036,-0.026 0.069,0.002" style="fill:none;stroke:#000;stroke-width:0.3px;"/><path d="M34.409,39.456c0.016,-0.02 0.033,-0.039 0.05,-0.059" style="fill:none;stroke:#000;stroke-width:0.3px;"/><path d="M34.879,38.421c-0.02,-0.017 -0.025,-0.01 -0.003,-0.036" style="fill:none;stroke:#000;stroke-width:0.3px;"/><path d="M30.251,39.6c0.026,-0.03 0.052,-0.061 0.079,-0.092" style="fill:none;stroke:#000;stroke-width:0.3px;"/><path d="M30.391,38.357c-0.054,-0.047 -0.052,-0.132 0.002,-0.196" style="fill:none;stroke:#000;stroke-width:0.3px;"/><path d="M30.451,37.134c-0.044,-0.038 -0.052,-0.049 -0.014,-0.093" style="fill:none;stroke:#000;stroke-width:0.3px;"/><path d="M25.772,40.108c0.005,-0.006 0.011,-0.013 0.016,-0.019" style="fill:none;stroke:#000;stroke-width:0.3px;"/><path d="M25.4,39.04c-0.032,-0.028 -0.21,-0.157 -0.187,-0.184" style="fill:none;stroke:#000;stroke-width:0.3px;"/><path d="M24.796,38.147c0.017,-0.02 0.033,-0.039 0.05,-0.059" style="fill:none;stroke:#000;stroke-width:0.3px;"/><path d="M28.487,49.692c-0.325,0.378 -1.076,0.927 -0.545,1.383" style="fill:none;"/><path d="M29.64,51.044c-0.073,0 -0.069,0.096 -0.107,0.132c-0.091,0.087 -0.306,0.194 -0.486,0.194" style="fill:none;stroke:#000;stroke-width:0.1px;"/><path d="M28.828,51.441c-0.173,0 -0.433,0.036 -0.433,-0.134" style="fill:none;stroke:#000;stroke-width:0.1px;"/><path d="M28.132,50.965c-0.056,0 -0.053,-0.099 -0.08,-0.127c-0.086,-0.085 -0.055,-0.337 -0.055,-0.503" style="fill:none;stroke:#000;stroke-width:0.1px;"/><path d="M28.158,50.121c0,-0.321 0.297,-0.498 0.579,-0.498c0.181,0 0.533,0.01 0.533,0.215" style="fill:none;stroke:#000;stroke-width:0.1px;"/><path d="M29.405,50.188c0,0.116 0.05,0.372 0,0.473c-0.046,0.09 -0.18,0.1 -0.248,0.14c-0.034,0.02 -0.294,0.066 -0.332,0.027c-0.018,-0.019 -0.071,-0.335 -0.026,-0.378c0.043,-0.041 0.157,-0.013 0.199,-0.055c0.007,-0.007 0.14,-0.065 0.178,-0.027c0.215,0.215 -0.083,0.462 -0.272,0.462" style="fill:none;stroke:#000;stroke-width:0.1px;"/><path d="M29.681,50.869c0.15,-0.175 0.111,-0.435 0.133,-0.634c0.009,-0.077 0.099,-0.19 0.04,-0.241" style="fill:none;stroke:#000;stroke-width:0.05px;"/><path d="M29.543,49.265c-0.261,-0.224 -0.638,-0.44 -0.833,-0.607" style="fill:none;stroke:#000;stroke-width:0.05px;"/><path d="M27.884,48.882c-0.126,0.147 -0.252,0.294 -0.379,0.441" style="fill:none;stroke:#000;stroke-width:0.05px;"/><path d="M26.968,50.079c-0.155,0.18 0.337,0.813 0.356,1.034" style="fill:none;stroke:#000;stroke-width:0.05px;"/><path d="M27.779,51.688c0.105,0.091 0.282,0.315 0.418,0.36c0.193,0.064 0.362,-0.012 0.487,0.095" style="fill:none;stroke:#000;stroke-width:0.05px;"/><path d="M29.598,52.269c0.069,0.06 0.155,-0.02 0.224,-0.024c0.389,-0.027 0.583,-0.245 0.83,-0.532" style="fill:none;stroke:#000;stroke-width:0.05px;"/><path d="M31.095,50.961c0.084,-0.098 -0.062,-0.207 -0.094,-0.28c-0.052,-0.122 0.029,-0.575 0.12,-0.681" style="fill:none;stroke:#000;stroke-width:0.05px;"/><path d="M30.827,49.317c-0.289,-0.248 -0.578,-0.496 -0.866,-0.744" style="fill:none;stroke:#000;stroke-width:0.05px;"/><path d="M29.301,47.62c-0.336,-0.288 -0.717,-0.39 -1.132,-0.478c-0.186,-0.04 -0.43,-0.084 -0.543,0.046" style="fill:none;stroke:#000;stroke-width:0.05px;"/><path d="M26.828,47.6c-0.195,0.227 -0.559,0.26 -0.791,0.53" style="fill:none;stroke:#000;stroke-width:0.05px;"/><path d="M25.86,48.941c-0.143,0.167 -0.866,0.83 -0.638,1.025" style="fill:none;stroke:#000;stroke-width:0.05px;"/><path d="M25.244,50.546c0.134,0.115 -0.027,0.365 0.056,0.561c0.05,0.115 0.192,0.311 0.313,0.415" style="fill:none;stroke:#000;stroke-width:0.05px;"/><path d="M25.865,52.433c0.32,0.275 0.407,0.612 0.832,0.788c0.213,0.089 0.287,0.329 0.534,0.312" style="fill:none;stroke:#000;stroke-width:0.05px;"/><path d="M27.852,53.687c0.119,0.103 0.522,0.152 0.664,0.113c0.103,-0.027 0.194,-0.125 0.261,-0.067" style="fill:none;stroke:#000;stroke-width:0.05px;"/><path d="M29.816,53.804c0.196,-0.229 0.656,-0.118 0.853,-0.234c0.093,-0.055 0.484,-0.463 0.52,-0.432" style="fill:none;stroke:#000;stroke-width:0.05px;"/><path d="M31.804,52.27c0.219,-0.255 0.272,-0.509 0.47,-0.74" style="fill:none;stroke:#000;stroke-width:0.05px;"/><path d="M35.682,48.997c-0.235,-0.202 -0.466,-0.912 -0.532,-1.244c-0.025,-0.125 -0.132,-0.28 -0.034,-0.395" style="fill:none;stroke:#000;stroke-width:0.05px;"/><path d="M31.786,47.874c-0.253,-0.217 -0.506,-0.434 -0.759,-0.652" style="fill:none;stroke:#000;stroke-width:0.05px;"/><path d="M32.965,45.62c-0.264,-0.226 -0.525,-0.381 -0.786,-0.363c-0.076,0.005 -0.17,-0.084 -0.21,-0.037" style="fill:none;stroke:#000;stroke-width:0.05px;"/><path d="M30.672,44.891c-0.109,-0.094 -0.223,-0.028 -0.36,-0.034c-0.324,-0.015 -0.701,-0.037 -1.01,0.047c-0.078,0.021 -0.196,-0.054 -0.257,0.017" style="fill:none;stroke:#000;stroke-width:0.05px;"/><path d="M27.895,44.899c-0.096,0.111 -0.2,0.037 -0.321,0.07c-0.356,0.096 -0.652,-0.044 -0.886,0.227" style="fill:none;stroke:#000;stroke-width:0.05px;"/><path d="M25.502,46.024c-0.348,0.405 -0.964,0.428 -1.302,0.821" style="fill:none;stroke:#000;stroke-width:0.05px;"/><path d="M23.615,47.853c-0.343,0.398 -0.709,0.759 -1.054,1.161" style="fill:none;stroke:#000;stroke-width:0.05px;"/><path d="M21.591,50.945c-0.139,0.259 -0.648,1.066 -0.293,1.257" style="fill:none;stroke:#000;stroke-width:0.05px;"/><path d="M22.109,53.235c-0.054,0.1 0.06,0.189 0.089,0.282c0.094,0.301 0.278,0.717 0.573,0.875" style="fill:none;stroke:#000;stroke-width:0.05px;"/><path d="M23.631,56.064c0.463,0.177 1.028,0.5 1.504,0.457" style="fill:none;stroke:#000;stroke-width:0.05px;"/><path d="M26.051,56.96c0.486,0.186 0.763,0.09 1.265,-0.066c0.054,-0.017 0.381,-0.126 0.389,-0.148" style="fill:none;stroke:#000;stroke-width:0.05px;"/><path d="M28.337,56.647c0.185,0.071 0.408,-0.04 0.578,-0.091c0.478,-0.141 1.201,-0.205 1.604,-0.471c0.095,-0.064 0.32,-0.052 0.356,-0.146" style="fill:none;stroke:#000;stroke-width:0.05px;"/><path d="M20.67,45.273c0.023,-0.027 -0.032,-0.274 0.109,-0.283c0.242,-0.016 0.059,0.244 0.001,0.312" style="fill:none;stroke:#000;stroke-width:0.3px;"/><path d="M19.582,44.669c-0.11,-0.094 -0.046,-0.107 0.009,-0.17" style="fill:none;stroke:#000;stroke-width:0.3px;"/><path d="M18.48,44.093c-0.068,-0.058 -0.268,-0.171 -0.206,-0.244" style="fill:none;stroke:#000;stroke-width:0.3px;"/><path d="M16.552,43.22c0.13,0.112 -0.248,0.228 -0.129,0.088" style="fill:none;stroke:#000;stroke-width:0.3px;"/><path d="M14.649,42.243c0.075,0.065 -0.055,0.085 0.012,0.143" style="fill:none;stroke:#000;stroke-width:0.3px;"/><path d="M17.275,50.941c-0.145,0.169 -0.407,-0.233 -0.237,-0.087" style="fill:none;stroke:#000;stroke-width:0.3px;"/><path d="M16.037,50.661c-0.164,-0.141 -0.174,-0.127 -0.197,-0.101" style="fill:none;stroke:#000;stroke-width:0.3px;"/><path d="M14.071,50.53c0.116,0.101 0.089,0.258 -0.039,0.148" style="fill:none;stroke:#000;stroke-width:0.3px;"/><path d="M18.582,58.392c0.013,0.147 0.101,0.3 0.076,0.456c-0.03,0.188 -0.525,-0.039 -0.538,-0.163c-0.012,-0.12 0.012,-0.191 0.086,-0.128" style="fill:none;stroke:#000;stroke-width:0.3px;"/><path d="M16.86,59.743c-0.056,0.066 -0.628,0.342 -0.603,0.077c0.006,-0.068 0.067,-0.075 0.106,-0.042" style="fill:none;stroke:#000;stroke-width:0.3px;"/><path d="M14.881,61.367c-0.212,0.247 -0.319,-0.228 -0.292,-0.204" style="fill:none;stroke:#000;stroke-width:0.3px;"/><path d="M13.272,62.233c0.343,0.294 -0.411,0.23 -0.293,0.093" style="fill:none;stroke:#000;stroke-width:0.3px;"/><path d="M26.554,60.553c-0.197,0.086 -0.338,-0.221 -0.135,-0.143" style="fill:none;stroke:#000;stroke-width:0.3px;"/><path d="M21.736,62.422c0.063,-0.073 0.164,-0.034 0.1,0.04" style="fill:none;stroke:#000;stroke-width:0.3px;"/><path d="M21.055,64.108c0.112,-0.132 0.256,-0.087 0.151,0.035" style="fill:none;stroke:#000;stroke-width:0.3px;"/><path d="M20.272,65.717c0.08,0.07 0.214,0.386 0.101,0.288" style="fill:none;stroke:#000;stroke-width:0.3px;"/><path d="M20.096,68.124c-0.167,-0.143 -0.173,-0.415 0.011,-0.257" style="fill:none;stroke:#000;stroke-width:0.3px;"/><path d="M19.26,69.751c-0.134,0.156 -0.192,0.152 -0.157,0.182" style="fill:none;stroke:#000;stroke-width:0.3px;"/><path d="M19.213,71.405c0.091,0.078 -0.094,0.198 -0.024,0.117" style="fill:none;stroke:#000;stroke-width:0.15px;"/><path d="M24.403,37.006c0.012,0.011 0.025,0.021 0.037,0.032" style="fill:none;stroke:#000;stroke-width:0.15px;"/><path d="M24.027,36.129c-0.055,-0.046 -0.038,-0.099 0.011,-0.057" style="fill:none;stroke:#000;stroke-width:0.15px;"/><path d="M23.494,35.263c-0.004,-0.041 -0.007,-0.082 -0.039,-0.11" style="fill:none;stroke:#000;stroke-width:0.15px;"/><path d="M22.906,33.918c0.026,-0.03 0.04,0.002 0.066,0.025" style="fill:none;stroke:#000;stroke-width:0.15px;"/><path d="M22.079,32.699c0.043,-0.05 0.111,-0.054 0.065,0" style="fill:none;stroke:#000;stroke-width:0.15px;"/><path d="M22.109,32.548c0.012,0.011 0.025,0.021 0.037,0.032" style="fill:none;stroke:#000;stroke-width:0.15px;"/><path d="M21.732,31.671c-0.054,-0.047 -0.038,-0.099 0.011,-0.057" style="fill:none;stroke:#000;stroke-width:0.15px;"/><path d="M21.199,30.805c-0.003,-0.042 -0.007,-0.083 -0.038,-0.11" style="fill:none;stroke:#000;stroke-width:0.15px;"/><path d="M20.612,29.46c0.025,-0.03 0.039,0.002 0.066,0.025" style="fill:none;stroke:#000;stroke-width:0.15px;"/><path d="M19.785,28.241c0.043,-0.05 0.111,-0.054 0.065,0" style="fill:none;stroke:#000;stroke-width:0.15px;"/><path d="M19.53,27.81c0.012,0.011 0.025,0.022 0.037,0.033" style="fill:none;stroke:#000;stroke-width:0.15px;"/><path d="M19.154,26.934c-0.055,-0.047 -0.039,-0.099 0.011,-0.057" style="fill:none;stroke:#000;stroke-width:0.15px;"/><path d="M18.62,26.067c-0.003,-0.041 -0.007,-0.082 -0.038,-0.109" style="fill:none;stroke:#000;stroke-width:0.15px;"/><path d="M18.033,24.722c0.025,-0.029 0.039,0.003 0.066,0.025" style="fill:none;stroke:#000;stroke-width:0.15px;"/><path d="M17.206,23.504c0.043,-0.05 0.111,-0.054 0.065,-0.001" style="fill:none;stroke:#000;stroke-width:0.15px;"/><path d="M30.374,36.684c0.007,0.015 0.014,0.03 0.02,0.044" style="fill:none;stroke:#000;stroke-width:0.15px;"/><path d="M30.409,35.738c-0.03,-0.065 0.007,-0.106 0.034,-0.047" style="fill:none;stroke:#000;stroke-width:0.15px;"/><path d="M30.295,34.734c0.015,-0.039 0.029,-0.077 0.012,-0.115" style="fill:none;stroke:#000;stroke-width:0.15px;"/><path d="M30.338,33.278c0.037,-0.016 0.036,0.019 0.05,0.05" style="fill:none;stroke:#000;stroke-width:0.15px;"/><path d="M30.109,31.833c0.061,-0.027 0.125,-0.001 0.06,0.027" style="fill:none;stroke:#000;stroke-width:0.15px;"/><path d="M30.375,31.503c0.007,0.015 0.014,0.03 0.021,0.045" style="fill:none;stroke:#000;stroke-width:0.15px;"/><path d="M30.41,30.557c-0.03,-0.065 0.008,-0.105 0.034,-0.046" style="fill:none;stroke:#000;stroke-width:0.15px;"/><path d="M30.297,29.553c0.014,-0.039 0.029,-0.077 0.011,-0.115" style="fill:none;stroke:#000;stroke-width:0.15px;"/><path d="M30.34,28.097c0.036,-0.016 0.035,0.019 0.049,0.051" style="fill:none;stroke:#000;stroke-width:0.15px;"/><path d="M30.11,26.652c0.061,-0.027 0.125,-0.001 0.06,0.027" style="fill:none;stroke:#000;stroke-width:0.15px;"/><path d="M34.883,38.02c-0.004,0.016 -0.008,0.032 -0.012,0.047" style="fill:none;stroke:#000;stroke-width:0.15px;"/><path d="M35.498,37.309c0.016,-0.069 0.071,-0.077 0.056,-0.015" style="fill:none;stroke:#000;stroke-width:0.15px;"/><path d="M36.03,36.461c0.036,-0.02 0.071,-0.041 0.081,-0.081" style="fill:none;stroke:#000;stroke-width:0.15px;"/><path d="M36.968,35.36c0.039,0.011 0.016,0.037 0.008,0.07" style="fill:none;stroke:#000;stroke-width:0.15px;"/><path d="M37.682,34.1c0.065,0.017 0.1,0.076 0.031,0.058" style="fill:none;stroke:#000;stroke-width:0.15px;"/><path d="M27.107,61.996c-0.018,0.029 -0.014,0.053 -0.049,0.032" style="fill:none;stroke:#000;stroke-width:0.5px;"/><path d="M31.725,62.055c0.031,0.027 0.088,-0.019 0.059,0.015" style="fill:none;stroke:#000;stroke-width:0.5px;"/><path d="M39.343,57.347c0.008,-0.002 0.017,-0.004 0.025,-0.006" style="fill:none;stroke:#000;stroke-width:0.3px;"/><path d="M26.941,63.088c-0.04,-0.024 -0.031,0.032 -0.068,0.01" style="fill:none;stroke:#000;stroke-width:0.3px;"/><path d="M26.699,64.257c-0.013,0.022 -0.026,0.044 -0.039,0.066" style="fill:none;stroke:#000;stroke-width:0.3px;"/><path d="M26.415,65.357c0.023,0.014 0.027,0.006 0.01,0.036" style="fill:none;stroke:#000;stroke-width:0.3px;"/><path d="M31.782,63.296c-0.027,0.031 -0.053,0.062 -0.08,0.092" style="fill:none;stroke:#000;stroke-width:0.3px;"/><path d="M31.642,64.54c0.054,0.046 0.053,0.132 -0.002,0.196" style="fill:none;stroke:#000;stroke-width:0.3px;"/><path d="M31.583,65.763c0.044,0.037 0.052,0.048 0.014,0.093" style="fill:none;stroke:#000;stroke-width:0.3px;"/><path d="M35.867,64.323c-0.005,0.007 -0.009,0.015 -0.013,0.022" style="fill:none;stroke:#000;stroke-width:0.3px;"/><path d="M35.643,63.102c0.037,0.022 0.234,0.118 0.216,0.149" style="fill:none;stroke:#000;stroke-width:0.3px;"/><path d="M35.906,65.393c-0.013,0.022 -0.026,0.044 -0.039,0.066" style="fill:none;stroke:#000;stroke-width:0.3px;"/><path d="M35.948,66.458c-0.014,-0.008 -0.028,-0.016 -0.042,-0.025" style="fill:none;stroke:#000;stroke-width:0.15px;"/><path d="M36.109,68.347c-0.006,0.041 -0.011,0.082 0.014,0.115" style="fill:none;stroke:#000;stroke-width:0.15px;"/><path d="M36.393,69.787c-0.031,0.024 -0.038,-0.011 -0.059,-0.039" style="fill:none;stroke:#000;stroke-width:0.15px;"/><path d="M36.938,71.155c-0.053,0.04 -0.12,0.029 -0.064,-0.014" style="fill:none;stroke:#000;stroke-width:0.15px;"/><path d="M36.877,71.297c-0.01,-0.014 -0.02,-0.027 -0.03,-0.04" style="fill:none;stroke:#000;stroke-width:0.15px;"/><path d="M37.055,72.234c0.043,0.057 0.016,0.105 -0.023,0.053" style="fill:none;stroke:#000;stroke-width:0.15px;"/><path d="M37.389,73.195c-0.005,0.041 -0.01,0.081 0.015,0.115" style="fill:none;stroke:#000;stroke-width:0.15px;"/><path d="M31.66,66.213c-0.007,-0.015 -0.013,-0.03 -0.02,-0.045" style="fill:none;stroke:#000;stroke-width:0.15px;"/><path d="M31.626,67.159c0.03,0.065 -0.007,0.105 -0.034,0.046" style="fill:none;stroke:#000;stroke-width:0.15px;"/><path d="M31.74,68.163c-0.014,0.038 -0.029,0.077 -0.011,0.114" style="fill:none;stroke:#000;stroke-width:0.15px;"/><path d="M31.698,69.619c-0.036,0.016 -0.035,-0.019 -0.049,-0.051" style="fill:none;stroke:#000;stroke-width:0.15px;"/><path d="M31.929,71.064c-0.061,0.026 -0.125,0.001 -0.06,-0.028" style="fill:none;stroke:#000;stroke-width:0.15px;"/><path d="M31.663,71.394c-0.007,-0.015 -0.014,-0.03 -0.021,-0.045" style="fill:none;stroke:#000;stroke-width:0.15px;"/><path d="M31.629,72.34c0.029,0.065 -0.008,0.105 -0.035,0.046" style="fill:none;stroke:#000;stroke-width:0.15px;"/><path d="M31.743,73.344c-0.015,0.038 -0.029,0.076 -0.012,0.114" style="fill:none;stroke:#000;stroke-width:0.15px;"/><path d="M31.701,74.8c-0.036,0.015 -0.035,-0.019 -0.05,-0.051" style="fill:none;stroke:#000;stroke-width:0.15px;"/><path d="M31.931,76.244c-0.061,0.027 -0.124,0.001 -0.06,-0.027" style="fill:none;stroke:#000;stroke-width:0.15px;"/><path d="M26.481,65.753c0.001,-0.016 0.002,-0.032 0.004,-0.049" style="fill:none;stroke:#000;stroke-width:0.15px;"/><path d="M26,66.56c-0.005,0.071 -0.058,0.088 -0.053,0.024" style="fill:none;stroke:#000;stroke-width:0.15px;"/><path d="M25.622,67.487c-0.031,0.027 -0.062,0.053 -0.065,0.094" style="fill:none;stroke:#000;stroke-width:0.15px;"/><path d="M24.89,68.734c-0.04,-0.003 -0.023,-0.033 -0.02,-0.067" style="fill:none;stroke:#000;stroke-width:0.15px;"/><path d="M24.406,70.1c-0.067,-0.006 -0.112,-0.058 -0.041,-0.052" style="fill:none;stroke:#000;stroke-width:0.15px;"/><path d="M14.037,42.134c0.016,0.001 0.032,0.002 0.049,0.003" style="fill:none;stroke:#000;stroke-width:0.15px;"/><path d="M13.21,41.652c-0.071,-0.005 -0.09,-0.058 -0.026,-0.053" style="fill:none;stroke:#000;stroke-width:0.15px;"/><path d="M12.267,41.272c-0.028,-0.031 -0.056,-0.062 -0.097,-0.065" style="fill:none;stroke:#000;stroke-width:0.15px;"/><path d="M10.99,40.539c0.002,-0.039 0.033,-0.022 0.067,-0.019" style="fill:none;stroke:#000;stroke-width:0.15px;"/><path d="M9.602,40.053c0.004,-0.067 0.055,-0.111 0.051,-0.04" style="fill:none;stroke:#000;stroke-width:0.15px;"/><path d="M9.533,40.13c0.016,0.002 0.033,0.003 0.049,0.004" style="fill:none;stroke:#000;stroke-width:0.15px;"/><path d="M8.706,39.648c-0.07,-0.005 -0.09,-0.057 -0.025,-0.052" style="fill:none;stroke:#000;stroke-width:0.15px;"/><path d="M7.763,39.269c-0.028,-0.031 -0.056,-0.062 -0.097,-0.065" style="fill:none;stroke:#000;stroke-width:0.15px;"/><path d="M6.486,38.536c0.002,-0.04 0.033,-0.022 0.067,-0.02" style="fill:none;stroke:#000;stroke-width:0.15px;"/><path d="M5.098,38.049c0.004,-0.066 0.055,-0.111 0.051,-0.04" style="fill:none;stroke:#000;stroke-width:0.15px;"/><path d="M5.589,38.151c0.016,0.001 0.033,0.002 0.049,0.004" style="fill:none;stroke:#000;stroke-width:0.15px;"/><path d="M4.762,37.669c-0.071,-0.005 -0.09,-0.057 -0.025,-0.053" style="fill:none;stroke:#000;stroke-width:0.15px;"/><path d="M3.819,37.29c-0.028,-0.031 -0.056,-0.062 -0.097,-0.065" style="fill:none;stroke:#000;stroke-width:0.15px;"/><path d="M2.542,36.557c0.002,-0.04 0.033,-0.022 0.067,-0.02" style="fill:none;stroke:#000;stroke-width:0.15px;"/><path d="M1.154,36.07c0.004,-0.067 0.055,-0.111 0.051,-0.04" style="fill:none;stroke:#000;stroke-width:0.15px;"/><path d="M35.824,47.005c0.015,0.032 0.262,0.088 0.21,0.219c-0.088,0.225 -0.246,-0.051 -0.283,-0.132" style="fill:none;stroke:#000;stroke-width:0.3px;"/><path d="M36.835,46.278c0.132,-0.059 0.116,0.004 0.15,0.081" style="fill:none;stroke:#000;stroke-width:0.3px;"/><path d="M37.826,45.527c0.081,-0.036 0.269,-0.169 0.308,-0.082" style="fill:none;stroke:#000;stroke-width:0.3px;"/><path d="M39.438,44.156c-0.157,0.07 -0.1,-0.322 -0.025,-0.154" style="fill:none;stroke:#000;stroke-width:0.3px;"/><path d="M41.133,42.851c-0.09,0.041 -0.053,-0.086 -0.134,-0.05" style="fill:none;stroke:#000;stroke-width:0.3px;"/><path d="M41.494,42.345c-0.008,0.014 -0.016,0.028 -0.024,0.042" style="fill:none;stroke:#000;stroke-width:0.15px;"/><path d="M42.282,41.803c0.035,-0.062 0.09,-0.057 0.059,-0.001" style="fill:none;stroke:#000;stroke-width:0.15px;"/><path d="M43.028,41.111c0.04,-0.012 0.08,-0.023 0.1,-0.06" style="fill:none;stroke:#000;stroke-width:0.15px;"/><path d="M44.235,40.269c0.035,0.019 0.006,0.039 -0.01,0.07" style="fill:none;stroke:#000;stroke-width:0.15px;"/><path d="M45.268,39.222c0.059,0.031 0.077,0.097 0.014,0.063" style="fill:none;stroke:#000;stroke-width:0.15px;"/><path d="M45.227,39.126c-0.008,0.014 -0.016,0.029 -0.024,0.043" style="fill:none;stroke:#000;stroke-width:0.15px;"/><path d="M46.016,38.584c0.034,-0.062 0.09,-0.057 0.058,-0.001" style="fill:none;stroke:#000;stroke-width:0.15px;"/><path d="M46.761,37.892c0.04,-0.011 0.08,-0.023 0.1,-0.059" style="fill:none;stroke:#000;stroke-width:0.15px;"/><path d="M47.969,37.051c0.035,0.019 0.006,0.039 -0.011,0.069" style="fill:none;stroke:#000;stroke-width:0.15px;"/><path d="M49.001,36.003c0.059,0.032 0.077,0.097 0.014,0.063" style="fill:none;stroke:#000;stroke-width:0.15px;"/><path d="M48.7,36.403c-0.008,0.015 -0.016,0.029 -0.024,0.043" style="fill:none;stroke:#000;stroke-width:0.15px;"/><path d="M49.488,35.861c0.035,-0.062 0.09,-0.057 0.059,-0.001" style="fill:none;stroke:#000;stroke-width:0.15px;"/><path d="M50.234,35.17c0.04,-0.012 0.08,-0.024 0.1,-0.06" style="fill:none;stroke:#000;stroke-width:0.15px;"/><path d="M51.441,34.328c0.035,0.019 0.007,0.039 -0.01,0.069" style="fill:none;stroke:#000;stroke-width:0.15px;"/><path d="M52.474,33.28c0.059,0.032 0.077,0.097 0.014,0.064" style="fill:none;stroke:#000;stroke-width:0.15px;"/><path d="M37.352,50.51c-0.011,0.035 0.14,0.238 0.015,0.303c-0.215,0.113 -0.153,-0.199 -0.128,-0.284" style="fill:none;stroke:#000;stroke-width:0.3px;"/><path d="M38.591,50.623c0.139,0.041 0.085,0.079 0.061,0.159" style="fill:none;stroke:#000;stroke-width:0.3px;"/><path d="M39.832,50.704c0.085,0.026 0.315,0.048 0.287,0.139" style="fill:none;stroke:#000;stroke-width:0.3px;"/><path d="M41.949,50.722c-0.166,-0.049 0.134,-0.308 0.081,-0.132" style="fill:none;stroke:#000;stroke-width:0.3px;"/><path d="M44.084,50.846c-0.094,-0.028 0.016,-0.1 -0.069,-0.125" style="fill:none;stroke:#000;stroke-width:0.3px;"/><path d="M44.688,50.699c-0.015,0.006 -0.031,0.011 -0.046,0.017" style="fill:none;stroke:#000;stroke-width:0.15px;"/><path d="M45.639,50.806c0.067,-0.024 0.105,0.016 0.045,0.037" style="fill:none;stroke:#000;stroke-width:0.15px;"/><path d="M46.655,50.771c0.038,0.017 0.076,0.034 0.115,0.02" style="fill:none;stroke:#000;stroke-width:0.15px;"/><path d="M48.119,50.925c0.014,0.037 -0.021,0.033 -0.053,0.045" style="fill:none;stroke:#000;stroke-width:0.15px;"/><path d="M49.585,50.809c0.024,0.062 -0.005,0.123 -0.03,0.057" style="fill:none;stroke:#000;stroke-width:0.15px;"/><path d="M49.617,50.71c-0.015,0.005 -0.031,0.011 -0.046,0.016" style="fill:none;stroke:#000;stroke-width:0.15px;"/><path d="M50.568,50.816c0.067,-0.024 0.106,0.016 0.045,0.038" style="fill:none;stroke:#000;stroke-width:0.15px;"/><path d="M51.585,50.781c0.038,0.018 0.075,0.035 0.114,0.021" style="fill:none;stroke:#000;stroke-width:0.15px;"/><path d="M53.048,50.936c0.014,0.037 -0.02,0.033 -0.053,0.045" style="fill:none;stroke:#000;stroke-width:0.15px;"/><path d="M54.515,50.82c0.023,0.062 -0.006,0.123 -0.031,0.057" style="fill:none;stroke:#000;stroke-width:0.15px;"/><path d="M54.025,50.925c-0.016,0.005 -0.031,0.011 -0.046,0.016" style="fill:none;stroke:#000;stroke-width:0.15px;"/><path d="M54.976,51.032c0.067,-0.025 0.105,0.015 0.045,0.037" style="fill:none;stroke:#000;stroke-width:0.15px;"/><path d="M55.992,50.997c0.038,0.017 0.076,0.034 0.115,0.02" style="fill:none;stroke:#000;stroke-width:0.15px;"/><path d="M56.462,58.817c-0.003,0.04 -0.033,0.022 -0.067,0.019" style="fill:none;stroke:#000;stroke-width:0.15px;"/><path d="M57.843,59.322c-0.004,0.067 -0.056,0.11 -0.051,0.039" style="fill:none;stroke:#000;stroke-width:0.15px;"/><path d="M39.074,55.49c-0.022,0.029 0.05,0.272 -0.09,0.29c-0.24,0.032 -0.075,-0.24 -0.022,-0.311" style="fill:none;stroke:#000;stroke-width:0.3px;"/><path d="M40.199,56.022c0.116,0.087 0.053,0.104 0.002,0.171" style="fill:none;stroke:#000;stroke-width:0.3px;"/><path d="M41.336,56.526c0.071,0.053 0.279,0.153 0.222,0.229" style="fill:none;stroke:#000;stroke-width:0.3px;"/><path d="M43.317,57.272c-0.138,-0.104 0.233,-0.244 0.122,-0.097" style="fill:none;stroke:#000;stroke-width:0.3px;"/><path d="M42.488,60.081c-0.047,-0.087 0.082,-0.059 0.04,-0.137" style="fill:none;stroke:#000;stroke-width:0.3px;"/><path d="M43.02,60.402c-0.014,-0.007 -0.029,-0.014 -0.044,-0.021" style="fill:none;stroke:#000;stroke-width:0.15px;"/><path d="M43.621,61.147c0.064,0.03 0.063,0.086 0.005,0.058" style="fill:none;stroke:#000;stroke-width:0.15px;"/><path d="M44.367,61.838c0.015,0.039 0.029,0.078 0.067,0.095" style="fill:none;stroke:#000;stroke-width:0.15px;"/><path d="M45.298,62.978c-0.016,0.036 -0.038,0.009 -0.07,-0.005" style="fill:none;stroke:#000;stroke-width:0.15px;"/><path d="M46.421,63.928c-0.027,0.061 -0.091,0.084 -0.062,0.019" style="fill:none;stroke:#000;stroke-width:0.15px;"/><path d="M46.513,63.88c-0.015,-0.007 -0.029,-0.014 -0.044,-0.021" style="fill:none;stroke:#000;stroke-width:0.15px;"/><path d="M47.113,64.625c0.065,0.03 0.064,0.086 0.006,0.059" style="fill:none;stroke:#000;stroke-width:0.15px;"/><path d="M47.86,65.316c0.015,0.039 0.029,0.078 0.067,0.095" style="fill:none;stroke:#000;stroke-width:0.15px;"/><path d="M48.791,66.456c-0.016,0.037 -0.039,0.009 -0.07,-0.005" style="fill:none;stroke:#000;stroke-width:0.15px;"/><path d="M49.914,67.406c-0.027,0.061 -0.091,0.084 -0.062,0.019" style="fill:none;stroke:#000;stroke-width:0.15px;"/><path d="M49.492,67.136c-0.015,-0.007 -0.03,-0.014 -0.045,-0.021" style="fill:none;stroke:#000;stroke-width:0.15px;"/><path d="M50.092,67.881c0.064,0.03 0.064,0.086 0.005,0.059" style="fill:none;stroke:#000;stroke-width:0.15px;"/><path d="M50.838,68.572c0.015,0.039 0.03,0.078 0.067,0.096" style="fill:none;stroke:#000;stroke-width:0.15px;"/><path d="M51.769,69.712c-0.016,0.037 -0.038,0.009 -0.07,-0.005" style="fill:none;stroke:#000;stroke-width:0.15px;"/><path d="M52.892,70.662c-0.027,0.061 -0.091,0.084 -0.062,0.019" style="fill:none;stroke:#000;stroke-width:0.15px;"/><path d="M12.896,50.914c0.016,-0.002 0.033,-0.004 0.049,-0.006" style="fill:none;stroke:#000;stroke-width:0.15px;"/><path d="M11.997,50.591c-0.07,0.008 -0.099,-0.04 -0.035,-0.048" style="fill:none;stroke:#000;stroke-width:0.15px;"/><path d="M11.003,50.391c-0.033,-0.026 -0.066,-0.051 -0.107,-0.047" style="fill:none;stroke:#000;stroke-width:0.15px;"/><path d="M9.616,49.903c-0.005,-0.039 0.028,-0.027 0.063,-0.031" style="fill:none;stroke:#000;stroke-width:0.15px;"/><path d="M8.167,49.68c-0.009,-0.067 0.033,-0.12 0.042,-0.049" style="fill:none;stroke:#000;stroke-width:0.15px;"/><path d="M8.741,50.207c0.016,-0.002 0.032,-0.004 0.048,-0.006" style="fill:none;stroke:#000;stroke-width:0.15px;"/><path d="M7.842,49.884c-0.07,0.008 -0.099,-0.04 -0.035,-0.047" style="fill:none;stroke:#000;stroke-width:0.15px;"/><path d="M6.847,49.684c-0.033,-0.025 -0.065,-0.051 -0.106,-0.046" style="fill:none;stroke:#000;stroke-width:0.15px;"/><path d="M5.461,49.197c-0.005,-0.04 0.028,-0.028 0.062,-0.032" style="fill:none;stroke:#000;stroke-width:0.15px;"/><path d="M4.012,48.973c-0.009,-0.067 0.033,-0.119 0.042,-0.049" style="fill:none;stroke:#000;stroke-width:0.15px;"/><path d="M12.047,63.171c0.01,-0.012 0.021,-0.024 0.031,-0.037" style="fill:none;stroke:#000;stroke-width:0.15px;"/><path d="M11.176,63.535c-0.046,0.053 -0.099,0.037 -0.057,-0.012" style="fill:none;stroke:#000;stroke-width:0.15px;"/><path d="M10.32,64.055c-0.042,0.003 -0.083,0.006 -0.109,0.038" style="fill:none;stroke:#000;stroke-width:0.15px;"/><path d="M8.984,64.624c-0.03,-0.026 0.001,-0.039 0.024,-0.066" style="fill:none;stroke:#000;stroke-width:0.15px;"/><path d="M7.781,65.433c-0.051,-0.044 -0.056,-0.112 -0.002,-0.065" style="fill:none;stroke:#000;stroke-width:0.15px;"/><path d="M31.948,56.507c0.137,-0.36 0.498,-0.371 0.69,-0.455c0.022,-0.009 0.156,-0.25 0.196,-0.163c0.082,0.179 -0.329,0.668 -0.337,0.882c-0.013,0.351 -0.009,0.717 0.056,1.069c0.021,0.111 0.024,0.224 0.036,0.336c0.009,0.087 -0.049,0.344 -0.018,0.262c0.119,-0.313 -0.405,-1.341 -0.55,-1.496c-0.19,-0.205 0.065,-0.406 -0.185,-0.501" style="fill:none;stroke:#000;stroke-width:0.1px;"/><path d="M34.827,59.798c0,0.773 0.686,1.394 0.686,2.183" style="fill:none;stroke:#000;stroke-width:0.1px;"/><path d="M21.864,53.372c0.101,0.46 0.172,1.066 0.497,1.274c0.103,0.066 0.472,0.273 0.494,0.374" style="fill:none;stroke:#000;stroke-width:0.1px;"/><path d="M23.611,56.2c0.528,0.249 1.677,0.639 2.246,0.436" style="fill:none;stroke:#000;stroke-width:0.1px;"/><path d="M20.462,53.44c-0.146,-0.665 0.026,-0.881 0.096,-1.537c0.021,-0.199 0.162,-0.627 0.362,-0.671" style="fill:none;stroke:#000;stroke-width:0.1px;"/><path d="M22.162,49.712c0,-0.438 0.602,-1.555 0.982,-1.771c0.159,-0.091 0.259,-0.308 0.404,-0.308" style="fill:none;stroke:#000;stroke-width:0.1px;"/><path d="M24.699,46.514c0,-0.156 0.31,-0.379 0.428,-0.497c0.383,-0.382 0.955,-0.67 1.473,-0.878c0.182,-0.073 0.391,0.086 0.545,-0.068" style="fill:none;stroke:#000;stroke-width:0.1px;"/><path d="M27.823,44.907c0.698,0 1.399,-0.048 2.12,-0.048" style="fill:none;stroke:#000;stroke-width:0.1px;"/><path d="M36.097,47.304c-0.06,-0.122 -0.297,-0.431 -0.4,-0.511c-0.02,-0.015 -0.115,-0.064 -0.098,-0.115c0.024,-0.073 0.397,-0.195 0.461,-0.226c0.449,-0.22 0.772,-0.614 1.204,-0.826c0.043,-0.021 -0.108,0.021 -0.131,0.064c-0.034,0.064 -0.081,0.222 -0.099,0.299c-0.069,0.292 -0.31,0.707 -0.58,0.84" style="fill:none;stroke:#000;stroke-width:0.1px;"/><path d="M36.162,52.523c-0.043,-0.129 -0.235,-0.468 -0.326,-0.561c-0.018,-0.018 -0.104,-0.08 -0.08,-0.128c0.034,-0.068 0.42,-0.137 0.487,-0.159c0.475,-0.156 0.85,-0.502 1.307,-0.651c0.046,-0.015 -0.11,0.005 -0.139,0.045c-0.042,0.059 -0.111,0.209 -0.139,0.282c-0.108,0.28 -0.405,0.657 -0.691,0.751" style="fill:none;stroke:#000;stroke-width:0.1px;"/><path d="M25.953,46.448c-0.109,-0.094 -0.222,-0.028 -0.36,-0.034c-0.324,-0.015 -0.701,-0.037 -1.01,0.047c-0.078,0.021 -0.196,-0.054 -0.257,0.017" style="fill:none;stroke:#000;stroke-width:0.05px;"/><path d="M23.176,46.456c-0.096,0.111 -0.2,0.037 -0.321,0.069c-0.356,0.097 -0.652,-0.044 -0.885,0.228" style="fill:none;stroke:#000;stroke-width:0.05px;"/><path d="M23.104,46.464c0.698,0 1.399,-0.048 2.12,-0.048" style="fill:none;stroke:#000;stroke-width:0.1px;"/><path d="M30.862,44.859c0.743,0 1.883,0.506 2.327,0.953c0.085,0.084 0.447,0.138 0.447,0.238" style="fill:none;stroke:#000;stroke-width:0.1px;"/><path d="M34.734,47.184c0,0.203 0.709,1.11 0.857,1.258c0.072,0.073 0.021,0.376 0.071,0.476c0.285,0.569 -0.238,1.129 -0.238,1.605" style="fill:none;stroke:#000;stroke-width:0.1px;"/><path d="M31.467,55.537c0.44,-0.158 0.605,-0.311 0.867,-0.584c0.077,-0.081 0.291,-0.069 0.236,-0.222" style="fill:none;stroke:#000;stroke-width:0.1px;"/><path d="M33.399,54.434c0.484,-0.174 0.803,-0.618 1.049,-0.877c0.105,-0.11 0.184,-0.475 0.291,-0.514" style="fill:none;stroke:#000;stroke-width:0.1px;"/><path d="M35.959,52.655c-0.045,-0.123 0.199,-0.082 0.249,-0.066c0.364,0.112 0.758,0.284 1.119,0.327c0.05,0.006 0.321,0.202 0.359,0.121c0.088,-0.185 -0.374,-0.586 -0.463,-0.719c-0.15,-0.225 -0.252,-0.887 -0.496,-1.003c-0.126,-0.059 -0.316,0.209 -0.358,0.265c-0.181,0.245 -0.526,0.599 -0.815,0.702" style="fill:none;stroke:#000;stroke-width:0.1px;"/><path d="M37.015,52.624c-0.212,-0.217 -0.174,-0.671 -0.201,-0.942" style="fill:none;stroke:#000;stroke-width:0.1px;"/><path d="M35.011,54.043c0.158,-0.056 0.658,-0.664 0.742,-0.624c0.167,0.078 0.236,0.773 0.335,0.932c0.105,0.17 0.244,0.438 0.389,0.557c0.077,0.063 0.101,0.28 0.101,0.28c0,0 -0.18,-0.182 -0.283,-0.257c-0.264,-0.192 -1.074,-0.303 -1.142,-0.493" style="fill:none;stroke:#000;stroke-width:0.1px;"/><path d="M33.433,55.688c0.323,-0.116 0.654,-0.227 0.918,-0.435c0.119,-0.093 0.162,-0.401 0.3,-0.339c0.094,0.042 0.052,0.552 0.057,0.631c0.018,0.272 0.232,0.644 0.322,0.897c0.052,0.143 0.191,0.414 0.191,0.414c0,0 -0.271,-0.449 -0.501,-0.514c-0.27,-0.076 -1.092,0.002 -1.187,-0.265" style="fill:none;stroke:#000;stroke-width:0.1px;"/><path d="M35.967,47.906c0,0.658 0.801,1.154 0.801,1.929c0,0.189 -0.084,-0.399 0,-0.568c0.177,-0.354 0.356,-0.677 0.535,-1.035c0.091,-0.183 0.3,-0.739 0.3,-0.535c0,0.04 0.024,0.382 0,0.393c-0.414,0.199 -1.125,-0.206 -1.536,0c-0.171,0.086 -0.216,0.2 -0.43,0.2" style="fill:none;stroke:#000;stroke-width:0.1px;"/><path d="M29.046,60.016c-0.464,0 -1.237,1.642 -0.735,2.124c0.324,0.313 0.657,0.53 0.853,0.932c0.317,0.647 -0.394,1.15 -0.575,1.605c-0.431,1.082 -0.033,1.936 0.57,2.339c0.104,0.07 0.597,1.569 0.371,1.718c-0.578,0.384 -1.762,2.069 -1.152,3.287c0.359,0.717 1.584,1.689 0.946,2.962c-0.359,0.716 -1.542,1.952 -0.905,3.25c0.202,0.411 0.516,0.397 0.813,0.694c0.222,0.223 0.124,1.358 0.124,1.713c0,0.796 -1.145,1.693 -0.659,2.665c0.394,0.787 1.036,1.106 1.234,2.098c0.05,0.249 0.164,1.456 0,1.727c-0.332,0.554 -1.634,1.012 -1.193,1.893c0.387,0.773 1.309,1.262 1.728,1.682c0.063,0.063 0,0.664 0,0.741c0,1.109 -0.999,1.225 -1.522,2.097c-0.458,0.766 0.402,2.578 0.782,2.958c0.253,0.253 0,2.167 0,2.54" style="fill:none;stroke:#000;stroke-width:0.1px;"/><path d="M30.229,90.356c0,-0.679 0.348,-1.131 0.864,-1.6c0.509,-0.461 0.605,-1.165 1.234,-1.481c0.292,-0.146 0.8,0.104 1.111,0c1.201,-0.399 2.148,-0.667 3.045,-1.563" style="fill:none;stroke:#000;stroke-width:0.1px;"/><path d="M34.961,86.525c0,-2.106 0.981,-1.777 2.262,-3.122c0.114,-0.12 1.049,-1.085 1.147,-0.987c0.181,0.181 -0.037,1.097 -0.124,1.27c-0.662,1.325 0.705,2.796 -1.028,3.662c-0.406,0.203 -2.546,0.578 -2.546,-0.037" style="fill:none;stroke:#000;stroke-width:0.1px;"/><path d="M28.913,81.136c0,-2.569 -3.538,-1.889 -3.538,-4.022" style="fill:none;stroke:#000;stroke-width:0.1px;"/><path d="M25.946,78.909c-1.266,0 -2.378,-0.182 -2.839,-1.563c-0.22,-0.66 0,-1.86 0,-2.551c0,-0.077 -0.066,-0.79 -0.247,-0.617c-0.109,0.105 0.098,0.299 0.206,0.407c0.113,0.113 0.67,-0.026 0.864,0.082c0.773,0.429 1.914,0.524 2.756,0.946c1.188,0.595 0.247,2.389 0.247,3.163" style="fill:none;stroke:#000;stroke-width:0.1px;"/></g><g id="Layer3"></g></g></svg>