<?xml version="1.0" encoding="UTF-8" standalone="no"?><!DOCTYPE svg PUBLIC "-//W3C//DTD SVG 1.1//EN" "http://www.w3.org/Graphics/SVG/1.1/DTD/svg11.dtd"><svg width="100%" height="100%" viewBox="0 0 446 328" version="1.1" xmlns="http://www.w3.org/2000/svg" xmlns:xlink="http://www.w3.org/1999/xlink" xml:space="preserve" xmlns:serif="http://www.serif.com/" style="fill-rule:evenodd;clip-rule:evenodd;stroke-linecap:round;stroke-linejoin:round;stroke-miterlimit:1.5;"><rect id="Artboard1" x="0" y="0" width="445.449" height="327.706" style="fill:none;"/><g id="Layer1"><path d="M275.57,91.891c0,-1.433 -0.866,-3.1 -1.313,-4.439c-0.53,-1.589 0.235,-3.702 -0.174,-5.335c-0.743,-2.97 -1.411,-5.922 -2.012,-8.921c-0.259,-1.292 -1.314,-2.371 -1.574,-3.672c-0.175,-0.875 -0.934,-6.997 -1.574,-6.997" style="fill:none;stroke:#000;stroke-width:1px;"/><path d="M263.7,47.593c0,-3.27 -3.306,-6.298 -4.111,-9.512c-1.264,-5.047 -2.361,-9.975 -2.361,-15.218" style="fill:none;stroke:#000;stroke-width:1px;"/><path d="M273.67,53.016c0.689,0 1.655,-2.832 2.089,-3.411c2.981,-3.976 4.875,-8.569 7.958,-12.682" style="fill:none;stroke:#000;stroke-width:1px;"/><path d="M290.189,31.424c-1.833,0 -2.663,2.202 -3.925,3.149c-0.671,0.504 -1.895,1.138 -2.361,1.836c-0.295,0.441 -1.68,2.711 -1.925,2.711" style="fill:none;stroke:#000;stroke-width:1px;"/><path d="M260.639,63.335c-2.407,0 -3.994,-1.516 -6.024,-2.623c-4.024,-2.195 -7.454,-5.321 -11.457,-7.608c-2.661,-1.521 -5.918,-1.801 -8.133,-4.024" style="fill:none;stroke:#000;stroke-width:1px;"/><path d="M335.8,48.398c-2.746,0 -7.359,-1.259 -9.873,0c-2.476,1.24 -4.448,5.235 -6.034,6.822c-0.18,0.179 0.072,1.257 0,1.476c-0.462,1.386 -1.83,1.91 -2.362,2.974c-1.477,2.955 -2.413,6.785 -3.411,9.784c-0.714,2.148 -1.09,7.748 0.263,9.096c0.291,0.289 2.445,0 2.879,0c2.288,0 4.83,-2.338 7.063,-3.936c3.17,-2.268 6.452,-6.765 7.696,-10.494c0.75,-2.246 2.563,-4.27 3.324,-6.56c0.955,-2.873 1.312,-5.567 1.312,-8.452" style="fill:none;stroke:#000;stroke-width:1px;"/><path d="M356.335,54.17c0,-1.391 0.794,-2.987 1.224,-4.275c0.074,-0.221 0.549,-1.287 0.263,-1.574c-2.829,-2.828 -5.82,-1.683 -8.123,0.612c-0.754,0.752 -2.109,1.155 -2.624,2.187c-0.232,0.466 -1.335,1.183 -1.749,2.011c-1.738,3.476 -4.291,6.395 -6.123,10.058c-0.932,1.864 -1.548,4.435 -2.186,6.559c-0.365,1.218 0.018,3.026 -0.524,4.111c-0.785,1.569 -1.275,6.784 -0.526,8.658c1.868,4.669 9.537,3.449 12.006,-1.879c0.946,-2.04 3.034,-4.319 4.024,-6.296c0.741,-1.479 0.422,-3.384 1.137,-4.81c2.289,-4.571 3.498,-10.832 3.498,-16.093" style="fill:none;stroke:#000;stroke-width:1px;"/><path d="M326.228,57.374c-3.451,0 -4.168,4.422 -5.324,6.735c-0.332,0.663 -1.657,2.691 -1.05,3.564c0.864,1.243 2.805,-1.651 3.096,-1.826c2.73,-1.638 2.712,-4.984 2.712,-8.976" style="stroke:#000;stroke-width:1px;"/><path d="M284.007,91.396c0,-0.61 0.957,-1.568 1.312,-2.089c1.432,-2.098 2.97,-3.526 5.422,-5.159c0.841,-0.561 1.346,-1.627 2.186,-2.188c3.525,-2.347 6.609,-4.868 10.058,-7.171c1.291,-0.861 1.966,-2.356 3.236,-3.06c2.145,-1.191 4.088,-2.705 5.14,-3.762c0.726,-0.728 1.657,-0.464 2.483,-1.29" style="fill:none;stroke:#000;stroke-width:1px;"/><path d="M335.174,59.449c1.834,0 4.171,-0.524 6.478,-0.524" style="fill:none;stroke:#000;stroke-width:1px;"/><path d="M357.363,65.539c4.717,0 6.852,3.183 8.769,7.017c2.669,5.338 2.642,10.581 3.825,16.51c0.327,1.635 0.684,4.342 0.262,6.035c-0.486,1.949 -1.02,3.79 -1.399,5.684c-0.624,3.116 -0.32,8.629 -2.624,10.933" style="fill:none;stroke:#000;stroke-width:1px;"/><path d="M366.024,114.732c0,12.015 -12.008,22.24 -14.372,34.045c-3.591,17.934 -0.694,38.384 -0.694,56.99c0,5.433 2.449,12.57 0.694,17.848c-2.548,7.663 -12.645,16.588 -17.152,21.094c-0.646,0.647 -14.371,0.462 -15.994,0.462c-5.243,0 -11.203,0.676 -15.991,-0.694c-4.015,-1.149 -6.613,-4.763 -9.272,-7.418c-4.539,-4.532 -12.542,-6.215 -19.006,-9.966c-3.133,-1.817 -5.002,-6.888 -8.807,-7.65c-3.101,-0.621 -5.498,-2.629 -8.115,-3.94c-1.458,-0.73 -4.14,0.4 -5.739,0c-6.501,-1.626 -13.456,-2.474 -19.933,-4.636c-1.386,-0.462 -12.482,1.318 -13.361,0c-0.869,-1.304 4.056,-7.328 4.868,-8.343c4.697,-5.872 9.186,-11.803 11.822,-19.702c2.66,-7.969 6.686,-16.554 8.576,-24.106c0.703,-2.807 0.788,-7.302 2.086,-9.707c5.397,-9.999 12.013,-16.488 18.774,-25.96c2.532,-3.547 4.019,-8.574 6.492,-12.286c3.004,-4.509 12.627,-23.586 16.633,-23.586" style="fill:none;stroke:#000;stroke-width:1px;"/><path d="M371.643,115.809c0,-3.175 3.464,-5.496 5.562,-7.596c5.372,-5.377 14.213,-13.441 20.601,-13.441" style="fill:none;stroke:#000;stroke-width:1px;"/><path d="M401.227,83.962c0,-6.848 5.767,-11.256 5.767,-16.727" style="fill:none;stroke:#000;stroke-width:1px;"/><path d="M404.908,93.343c0,-2.759 15.563,-11.793 18.31,-11.793" style="fill:none;stroke:#000;stroke-width:1px;"/><path d="M395.72,102.644c6.008,0 11.452,-0.464 17.329,-0.464" style="fill:none;stroke:#000;stroke-width:1px;"/><path d="M133.487,94.681c0,-1.956 1.292,-3.532 2.417,-5.033c3.712,-4.95 8.353,-8.764 13.03,-12.504c1.775,-1.42 3.775,-2.837 5.254,-3.574c0.294,-0.146 1.982,-0.715 2.367,-0.314c2.553,2.653 -0.342,11.264 -1.367,14.333c-0.368,1.104 -0.158,2.385 -0.735,3.363c-0.365,0.619 -0.805,-0.022 -1.118,0.303c-0.809,0.84 0.338,4.608 0,5.796c-0.893,3.139 -1.102,5.778 -2.627,8.827c-0.594,1.188 -0.388,3.015 -1.156,3.783c-1.453,1.453 -0.91,5.55 -1.997,7.356c-1.53,2.545 -3.327,4.336 -4.309,5.755c-0.066,0.097 -2.645,0.089 -2.773,0c-2.12,-1.474 -2.862,-3.916 -4.388,-6.503c-2.833,-4.803 -3.689,-13.995 -1.867,-20.374c0.661,-2.313 2.564,-3.124 3.468,-4.939c0.7,-1.406 3.996,-5.15 5.78,-5.15" style="fill:none;stroke:#000;stroke-width:1px;"/><path d="M145.975,95.147c-1.773,0 -4.036,2.541 -4.599,3.665c-0.252,0.505 0.391,2.084 0,2.459c-0.459,0.442 -0.439,1.685 0,2.144c0.465,0.484 1.476,-0.065 2.026,0.21c3.525,1.762 9.86,-3.209 8.03,-7.474c-0.397,-0.922 -5.873,-2.256 -5.873,-1.169" style="stroke:#000;stroke-width:1px;"/><path d="M131.738,72.271c0,0.909 -1.553,2.197 -2.207,2.825c-1.356,1.305 -4.33,3.618 -5.149,5.254c-2.002,3.995 -5.096,7.782 -7.146,11.876c-1.735,3.462 -0.348,8.136 -1.471,11.874c-0.543,1.81 -0.86,6.057 0,7.776c2.696,5.391 8.208,-2.371 9.659,-5.267c4.975,-9.932 9.352,-21.169 9.352,-33.522" style="fill:none;stroke:#000;stroke-width:1px;"/><path d="M122.717,88.838c-5.43,0 -6.57,2.52 -9.012,6.187c-0.488,0.732 -2.044,2.426 -1.261,3.559c0.07,0.1 3.124,0.108 3.232,0c2.06,-2.051 6.42,-2.015 7.671,-5.779c0.292,-0.878 1.898,-4.086 -0.067,-4.086" style="stroke:#000;stroke-width:1px;"/><path d="M114.109,88.627c-3.26,0 -6.594,0.091 -9.353,1.471c-1.226,0.613 -1.974,2.949 -2.943,4.309c-2.435,3.417 -4.062,8.425 -5.884,11.769c-2.232,4.095 -5.311,7.499 -7.882,11.35c-3.652,5.472 -5.989,11.874 -9.562,17.549c-2.212,3.513 -3.397,7.634 -5.149,11.139c-0.349,0.696 -1.577,2.203 -1.577,2.942" style="fill:none;stroke:#000;stroke-width:1px;"/><path d="M70.252,153.908c0,7.265 -9.555,17.495 -13.619,23.295c-5.921,8.448 -8.921,19.699 -13.413,28.682c-0.741,1.482 -0.195,3.562 -1.237,4.952c-6.839,9.12 -15.528,19.093 -20.637,29.302c-3.498,6.99 -9.698,15.911 -9.698,24.351c0,0.949 -1.67,6.092 -0.62,7.098c0.754,0.723 4.328,0.978 5.367,1.237c3.123,0.782 4.582,3.101 7.015,4.748c0.954,0.645 9.576,1.942 11.943,2.887c3.629,1.45 7.166,3.585 10.319,5.161c6.039,3.019 18.018,1.816 24.968,4.127c4.954,1.647 7.179,3.973 11.349,5.365c3.407,1.137 21.407,0.711 24.251,0c6.119,-1.532 11.083,-4.886 17.127,-6.398c4.206,-1.053 8.909,0.3 13.208,-0.413c2.354,-0.391 4.503,-1.808 6.808,-2.268c4.893,-0.976 15.728,-2.501 20.431,-0.62c3.8,1.52 8.714,3.896 13.206,1.651c2.121,-1.061 7.548,-10.186 8.668,-12.793c1.015,-2.367 -0.209,-5.987 0.617,-8.462c2.516,-7.538 2.27,-16.046 2.27,-24.325c0,-1.888 0.975,-9.875 -0.62,-10.936c-4.755,-3.164 -9.195,-11.642 -12.149,-17.54c-3.088,-6.164 1.18,-14.07 2.89,-19.192c2.097,-6.284 3.094,-13.095 3.094,-20.015c0,-10.51 -5.375,-21.065 -7.428,-31.317c-2.422,-12.089 -0.888,-24.537 -2.888,-36.524c-0.386,-2.312 -2.27,-4.971 -2.27,-6.191" style="fill:none;stroke:#000;stroke-width:1px;"/><path d="M191.721,157.729c10.108,-10.108 21.109,-18.455 33.61,-26.8c4.083,-2.725 7.238,-6.954 11.349,-9.698c4.946,-3.301 8.954,-18.367 17.104,-18.367" style="fill:none;stroke:#000;stroke-width:1px;"/><path d="M224.763,121.156c0,-10.548 10.316,-17.303 10.316,-26.621" style="fill:none;stroke:#000;stroke-width:1px;"/><path d="M231.39,127.429l22.624,0" style="fill:none;stroke:#000;stroke-width:1px;"/><path d="M68.126,151.508c0.299,-2.126 -4.405,-5.475 -5.355,-7.381c-3.409,-6.829 -4.733,-12.912 -6.614,-20.429c-3.258,-13.021 0.775,-27.329 2.27,-40.031c0.388,-3.294 3.508,-6.544 3.508,-9.699" style="fill:none;stroke:#000;stroke-width:1px;"/><path d="M45.732,115.831c0,-11.138 -12.176,-19.961 -12.176,-30.307" style="fill:none;stroke:#000;stroke-width:1px;"/><path d="M345.823,61.311c-4.025,0 -5.379,4.1 -6.55,7.608c-0.695,2.084 0.553,4.228 2.712,3.149c1.158,-0.579 1.927,-2.365 2.799,-3.237c1.369,-1.37 2.146,-2.239 2.71,-3.935c0.868,-2.609 -2.876,-2.026 -2.876,-3.663" style="stroke:#000;stroke-width:1px;"/></g></svg>